<?xml version="1.0" encoding="utf-8" standalone="no"?>
<!DOCTYPE svg PUBLIC "-//W3C//DTD SVG 1.1//EN"
  "http://www.w3.org/Graphics/SVG/1.1/DTD/svg11.dtd">
<!-- Created with matplotlib (http://matplotlib.org/) -->
<svg height="420pt" version="1.1" viewBox="0 0 564 420" width="564pt" xmlns="http://www.w3.org/2000/svg" xmlns:xlink="http://www.w3.org/1999/xlink">
 <defs>
  <style type="text/css">
*{stroke-linecap:butt;stroke-linejoin:round;stroke-miterlimit:100000;}
  </style>
 </defs>
 <g id="figure_1">
  <g id="patch_1">
   <path d="M 0 420.48 
L 564.48 420.48 
L 564.48 0 
L 0 0 
z
" style="fill:#ffffff;"/>
  </g>
  <g id="axes_1">
   <g id="patch_2">
    <path d="M 60.248906 372.563906 
L 546.615938 372.563906 
L 546.615938 14.408203 
L 60.248906 14.408203 
z
" style="fill:#ffffff;"/>
   </g>
   <g id="patch_3">
    <path clip-path="url(#paa73a93d63)" d="M 62.950945 372.563906 
L 64.031761 372.563906 
L 64.031761 99.314052 
L 62.950945 99.314052 
z
" style="fill:#ff0000;"/>
   </g>
   <g id="patch_4">
    <path clip-path="url(#paa73a93d63)" d="M 65.652984 372.563906 
L 66.7338 372.563906 
L 66.7338 98.921835 
L 65.652984 98.921835 
z
" style="fill:#ff0000;"/>
   </g>
   <g id="patch_5">
    <path clip-path="url(#paa73a93d63)" d="M 68.355023 372.563906 
L 69.435839 372.563906 
L 69.435839 99.593248 
L 68.355023 99.593248 
z
" style="fill:#ff0000;"/>
   </g>
   <g id="patch_6">
    <path clip-path="url(#paa73a93d63)" d="M 71.057063 372.563906 
L 72.137878 372.563906 
L 72.137878 97.233256 
L 71.057063 97.233256 
z
" style="fill:#ff0000;"/>
   </g>
   <g id="patch_7">
    <path clip-path="url(#paa73a93d63)" d="M 73.759102 372.563906 
L 74.839917 372.563906 
L 74.839917 100.430842 
L 73.759102 100.430842 
z
" style="fill:#ff0000;"/>
   </g>
   <g id="patch_8">
    <path clip-path="url(#paa73a93d63)" d="M 76.461141 372.563906 
L 77.541956 372.563906 
L 77.541956 100.353192 
L 76.461141 100.353192 
z
" style="fill:#ff0000;"/>
   </g>
   <g id="patch_9">
    <path clip-path="url(#paa73a93d63)" d="M 79.16318 372.563906 
L 80.243995 372.563906 
L 80.243995 99.099367 
L 79.16318 99.099367 
z
" style="fill:#ff0000;"/>
   </g>
   <g id="patch_10">
    <path clip-path="url(#paa73a93d63)" d="M 81.865219 372.563906 
L 82.946034 372.563906 
L 82.946034 100.713368 
L 81.865219 100.713368 
z
" style="fill:#ff0000;"/>
   </g>
   <g id="patch_11">
    <path clip-path="url(#paa73a93d63)" d="M 84.567258 372.563906 
L 85.648073 372.563906 
L 85.648073 99.67103 
L 84.567258 99.67103 
z
" style="fill:#ff0000;"/>
   </g>
   <g id="patch_12">
    <path clip-path="url(#paa73a93d63)" d="M 87.269297 372.563906 
L 88.350113 372.563906 
L 88.350113 100.010229 
L 87.269297 100.010229 
z
" style="fill:#ff0000;"/>
   </g>
   <g id="patch_13">
    <path clip-path="url(#paa73a93d63)" d="M 89.971336 372.563906 
L 91.052152 372.563906 
L 91.052152 101.727813 
L 89.971336 101.727813 
z
" style="fill:#ff0000;"/>
   </g>
   <g id="patch_14">
    <path clip-path="url(#paa73a93d63)" d="M 92.673375 372.563906 
L 93.754191 372.563906 
L 93.754191 97.90257 
L 92.673375 97.90257 
z
" style="fill:#ff0000;"/>
   </g>
   <g id="patch_15">
    <path clip-path="url(#paa73a93d63)" d="M 95.375414 372.563906 
L 96.45623 372.563906 
L 96.45623 99.089478 
L 95.375414 99.089478 
z
" style="fill:#ff0000;"/>
   </g>
   <g id="patch_16">
    <path clip-path="url(#paa73a93d63)" d="M 98.077453 372.563906 
L 99.158269 372.563906 
L 99.158269 97.961063 
L 98.077453 97.961063 
z
" style="fill:#ff0000;"/>
   </g>
   <g id="patch_17">
    <path clip-path="url(#paa73a93d63)" d="M 100.779492 372.563906 
L 101.860308 372.563906 
L 101.860308 96.426558 
L 100.779492 96.426558 
z
" style="fill:#ff0000;"/>
   </g>
   <g id="patch_18">
    <path clip-path="url(#paa73a93d63)" d="M 103.481531 372.563906 
L 104.562347 372.563906 
L 104.562347 98.065125 
L 103.481531 98.065125 
z
" style="fill:#ff0000;"/>
   </g>
   <g id="patch_19">
    <path clip-path="url(#paa73a93d63)" d="M 106.18357 372.563906 
L 107.264386 372.563906 
L 107.264386 97.632107 
L 106.18357 97.632107 
z
" style="fill:#ff0000;"/>
   </g>
   <g id="patch_20">
    <path clip-path="url(#paa73a93d63)" d="M 108.885609 372.563906 
L 109.966425 372.563906 
L 109.966425 95.54964 
L 108.885609 95.54964 
z
" style="fill:#ff0000;"/>
   </g>
   <g id="patch_21">
    <path clip-path="url(#paa73a93d63)" d="M 111.587648 372.563906 
L 112.668464 372.563906 
L 112.668464 97.681443 
L 111.587648 97.681443 
z
" style="fill:#ff0000;"/>
   </g>
   <g id="patch_22">
    <path clip-path="url(#paa73a93d63)" d="M 114.289688 372.563906 
L 115.370503 372.563906 
L 115.370503 98.406319 
L 114.289688 98.406319 
z
" style="fill:#ff0000;"/>
   </g>
   <g id="patch_23">
    <path clip-path="url(#paa73a93d63)" d="M 116.991727 372.563906 
L 118.072542 372.563906 
L 118.072542 95.843437 
L 116.991727 95.843437 
z
" style="fill:#ff0000;"/>
   </g>
   <g id="patch_24">
    <path clip-path="url(#paa73a93d63)" d="M 119.693766 372.563906 
L 120.774581 372.563906 
L 120.774581 100.626855 
L 119.693766 100.626855 
z
" style="fill:#ff0000;"/>
   </g>
   <g id="patch_25">
    <path clip-path="url(#paa73a93d63)" d="M 122.395805 372.563906 
L 123.47662 372.563906 
L 123.47662 98.336916 
L 122.395805 98.336916 
z
" style="fill:#ff0000;"/>
   </g>
   <g id="patch_26">
    <path clip-path="url(#paa73a93d63)" d="M 125.097844 372.563906 
L 126.178659 372.563906 
L 126.178659 100.530518 
L 125.097844 100.530518 
z
" style="fill:#ff0000;"/>
   </g>
   <g id="patch_27">
    <path clip-path="url(#paa73a93d63)" d="M 127.799883 372.563906 
L 128.880698 372.563906 
L 128.880698 111.889517 
L 127.799883 111.889517 
z
" style="fill:#ff0000;"/>
   </g>
   <g id="patch_28">
    <path clip-path="url(#paa73a93d63)" d="M 130.501922 372.563906 
L 131.582737 372.563906 
L 131.582737 99.583701 
L 130.501922 99.583701 
z
" style="fill:#ff0000;"/>
   </g>
   <g id="patch_29">
    <path clip-path="url(#paa73a93d63)" d="M 133.203961 372.563906 
L 134.284777 372.563906 
L 134.284777 96.764267 
L 133.203961 96.764267 
z
" style="fill:#ff0000;"/>
   </g>
   <g id="patch_30">
    <path clip-path="url(#paa73a93d63)" d="M 135.906 372.563906 
L 136.986816 372.563906 
L 136.986816 96.635221 
L 135.906 96.635221 
z
" style="fill:#ff0000;"/>
   </g>
   <g id="patch_31">
    <path clip-path="url(#paa73a93d63)" d="M 138.608039 372.563906 
L 139.688855 372.563906 
L 139.688855 99.609755 
L 138.608039 99.609755 
z
" style="fill:#ff0000;"/>
   </g>
   <g id="patch_32">
    <path clip-path="url(#paa73a93d63)" d="M 141.310078 372.563906 
L 142.390894 372.563906 
L 142.390894 95.077819 
L 141.310078 95.077819 
z
" style="fill:#ff0000;"/>
   </g>
   <g id="patch_33">
    <path clip-path="url(#paa73a93d63)" d="M 144.012117 372.563906 
L 145.092933 372.563906 
L 145.092933 99.867145 
L 144.012117 99.867145 
z
" style="fill:#ff0000;"/>
   </g>
   <g id="patch_34">
    <path clip-path="url(#paa73a93d63)" d="M 146.714156 372.563906 
L 147.794972 372.563906 
L 147.794972 97.634338 
L 146.714156 97.634338 
z
" style="fill:#ff0000;"/>
   </g>
   <g id="patch_35">
    <path clip-path="url(#paa73a93d63)" d="M 149.416195 372.563906 
L 150.497011 372.563906 
L 150.497011 100.222181 
L 149.416195 100.222181 
z
" style="fill:#ff0000;"/>
   </g>
   <g id="patch_36">
    <path clip-path="url(#paa73a93d63)" d="M 152.118234 372.563906 
L 153.19905 372.563906 
L 153.19905 98.758261 
L 152.118234 98.758261 
z
" style="fill:#ff0000;"/>
   </g>
   <g id="patch_37">
    <path clip-path="url(#paa73a93d63)" d="M 154.820273 372.563906 
L 155.901089 372.563906 
L 155.901089 98.880942 
L 154.820273 98.880942 
z
" style="fill:#ff0000;"/>
   </g>
   <g id="patch_38">
    <path clip-path="url(#paa73a93d63)" d="M 157.522312 372.563906 
L 158.603128 372.563906 
L 158.603128 97.413806 
L 157.522312 97.413806 
z
" style="fill:#ff0000;"/>
   </g>
   <g id="patch_39">
    <path clip-path="url(#paa73a93d63)" d="M 160.224352 372.563906 
L 161.305167 372.563906 
L 161.305167 96.478016 
L 160.224352 96.478016 
z
" style="fill:#ff0000;"/>
   </g>
   <g id="patch_40">
    <path clip-path="url(#paa73a93d63)" d="M 162.926391 372.563906 
L 164.007206 372.563906 
L 164.007206 98.9334 
L 162.926391 98.9334 
z
" style="fill:#ff0000;"/>
   </g>
   <g id="patch_41">
    <path clip-path="url(#paa73a93d63)" d="M 165.62843 372.563906 
L 166.709245 372.563906 
L 166.709245 91.549882 
L 165.62843 91.549882 
z
" style="fill:#ff0000;"/>
   </g>
   <g id="patch_42">
    <path clip-path="url(#paa73a93d63)" d="M 168.330469 372.563906 
L 169.411284 372.563906 
L 169.411284 94.548707 
L 168.330469 94.548707 
z
" style="fill:#ff0000;"/>
   </g>
   <g id="patch_43">
    <path clip-path="url(#paa73a93d63)" d="M 171.032508 372.563906 
L 172.113323 372.563906 
L 172.113323 93.884135 
L 171.032508 93.884135 
z
" style="fill:#ff0000;"/>
   </g>
   <g id="patch_44">
    <path clip-path="url(#paa73a93d63)" d="M 173.734547 372.563906 
L 174.815363 372.563906 
L 174.815363 91.768902 
L 173.734547 91.768902 
z
" style="fill:#ff0000;"/>
   </g>
   <g id="patch_45">
    <path clip-path="url(#paa73a93d63)" d="M 176.436586 372.563906 
L 177.517402 372.563906 
L 177.517402 98.501418 
L 176.436586 98.501418 
z
" style="fill:#ff0000;"/>
   </g>
   <g id="patch_46">
    <path clip-path="url(#paa73a93d63)" d="M 179.138625 372.563906 
L 180.219441 372.563906 
L 180.219441 100.270187 
L 179.138625 100.270187 
z
" style="fill:#ff0000;"/>
   </g>
   <g id="patch_47">
    <path clip-path="url(#paa73a93d63)" d="M 181.840664 372.563906 
L 182.92148 372.563906 
L 182.92148 97.136917 
L 181.840664 97.136917 
z
" style="fill:#ff0000;"/>
   </g>
   <g id="patch_48">
    <path clip-path="url(#paa73a93d63)" d="M 184.542703 372.563906 
L 185.623519 372.563906 
L 185.623519 89.504768 
L 184.542703 89.504768 
z
" style="fill:#ff0000;"/>
   </g>
   <g id="patch_49">
    <path clip-path="url(#paa73a93d63)" d="M 187.244742 372.563906 
L 188.325558 372.563906 
L 188.325558 98.698627 
L 187.244742 98.698627 
z
" style="fill:#ff0000;"/>
   </g>
   <g id="patch_50">
    <path clip-path="url(#paa73a93d63)" d="M 189.946781 372.563906 
L 191.027597 372.563906 
L 191.027597 100.419536 
L 189.946781 100.419536 
z
" style="fill:#ff0000;"/>
   </g>
   <g id="patch_51">
    <path clip-path="url(#paa73a93d63)" d="M 192.64882 372.563906 
L 193.729636 372.563906 
L 193.729636 100.189073 
L 192.64882 100.189073 
z
" style="fill:#ff0000;"/>
   </g>
   <g id="patch_52">
    <path clip-path="url(#paa73a93d63)" d="M 195.350859 372.563906 
L 196.431675 372.563906 
L 196.431675 96.546673 
L 195.350859 96.546673 
z
" style="fill:#ff0000;"/>
   </g>
   <g id="patch_53">
    <path clip-path="url(#paa73a93d63)" d="M 198.052898 372.563906 
L 199.133714 372.563906 
L 199.133714 94.320066 
L 198.052898 94.320066 
z
" style="fill:#ff0000;"/>
   </g>
   <g id="patch_54">
    <path clip-path="url(#paa73a93d63)" d="M 200.754938 372.563906 
L 201.835753 372.563906 
L 201.835753 96.496031 
L 200.754938 96.496031 
z
" style="fill:#ff0000;"/>
   </g>
   <g id="patch_55">
    <path clip-path="url(#paa73a93d63)" d="M 203.456977 372.563906 
L 204.537792 372.563906 
L 204.537792 97.364946 
L 203.456977 97.364946 
z
" style="fill:#ff0000;"/>
   </g>
   <g id="patch_56">
    <path clip-path="url(#paa73a93d63)" d="M 206.159016 372.563906 
L 207.239831 372.563906 
L 207.239831 99.104662 
L 206.159016 99.104662 
z
" style="fill:#ff0000;"/>
   </g>
   <g id="patch_57">
    <path clip-path="url(#paa73a93d63)" d="M 208.861055 372.563906 
L 209.94187 372.563906 
L 209.94187 97.904777 
L 208.861055 97.904777 
z
" style="fill:#ff0000;"/>
   </g>
   <g id="patch_58">
    <path clip-path="url(#paa73a93d63)" d="M 211.563094 372.563906 
L 212.643909 372.563906 
L 212.643909 96.019545 
L 211.563094 96.019545 
z
" style="fill:#ff0000;"/>
   </g>
   <g id="patch_59">
    <path clip-path="url(#paa73a93d63)" d="M 214.265133 372.563906 
L 215.345948 372.563906 
L 215.345948 92.227343 
L 214.265133 92.227343 
z
" style="fill:#ff0000;"/>
   </g>
   <g id="patch_60">
    <path clip-path="url(#paa73a93d63)" d="M 216.967172 372.563906 
L 218.047988 372.563906 
L 218.047988 99.515585 
L 216.967172 99.515585 
z
" style="fill:#ff0000;"/>
   </g>
   <g id="patch_61">
    <path clip-path="url(#paa73a93d63)" d="M 219.669211 372.563906 
L 220.750027 372.563906 
L 220.750027 98.866934 
L 219.669211 98.866934 
z
" style="fill:#ff0000;"/>
   </g>
   <g id="patch_62">
    <path clip-path="url(#paa73a93d63)" d="M 222.37125 372.563906 
L 223.452066 372.563906 
L 223.452066 94.325901 
L 222.37125 94.325901 
z
" style="fill:#ff0000;"/>
   </g>
   <g id="patch_63">
    <path clip-path="url(#paa73a93d63)" d="M 225.073289 372.563906 
L 226.154105 372.563906 
L 226.154105 87.675685 
L 225.073289 87.675685 
z
" style="fill:#ff0000;"/>
   </g>
   <g id="patch_64">
    <path clip-path="url(#paa73a93d63)" d="M 227.775328 372.563906 
L 228.856144 372.563906 
L 228.856144 82.173818 
L 227.775328 82.173818 
z
" style="fill:#ff0000;"/>
   </g>
   <g id="patch_65">
    <path clip-path="url(#paa73a93d63)" d="M 230.477367 372.563906 
L 231.558183 372.563906 
L 231.558183 80.980137 
L 230.477367 80.980137 
z
" style="fill:#ff0000;"/>
   </g>
   <g id="patch_66">
    <path clip-path="url(#paa73a93d63)" d="M 233.179406 372.563906 
L 234.260222 372.563906 
L 234.260222 83.547558 
L 233.179406 83.547558 
z
" style="fill:#ff0000;"/>
   </g>
   <g id="patch_67">
    <path clip-path="url(#paa73a93d63)" d="M 235.881445 372.563906 
L 236.962261 372.563906 
L 236.962261 80.121098 
L 235.881445 80.121098 
z
" style="fill:#ff0000;"/>
   </g>
   <g id="patch_68">
    <path clip-path="url(#paa73a93d63)" d="M 238.583484 372.563906 
L 239.6643 372.563906 
L 239.6643 74.634918 
L 238.583484 74.634918 
z
" style="fill:#ff0000;"/>
   </g>
   <g id="patch_69">
    <path clip-path="url(#paa73a93d63)" d="M 241.285523 372.563906 
L 242.366339 372.563906 
L 242.366339 78.863484 
L 241.285523 78.863484 
z
" style="fill:#ff0000;"/>
   </g>
   <g id="patch_70">
    <path clip-path="url(#paa73a93d63)" d="M 243.987563 372.563906 
L 245.068378 372.563906 
L 245.068378 78.510447 
L 243.987563 78.510447 
z
" style="fill:#ff0000;"/>
   </g>
   <g id="patch_71">
    <path clip-path="url(#paa73a93d63)" d="M 246.689602 372.563906 
L 247.770417 372.563906 
L 247.770417 81.466412 
L 246.689602 81.466412 
z
" style="fill:#ff0000;"/>
   </g>
   <g id="patch_72">
    <path clip-path="url(#paa73a93d63)" d="M 249.391641 372.563906 
L 250.472456 372.563906 
L 250.472456 79.684071 
L 249.391641 79.684071 
z
" style="fill:#ff0000;"/>
   </g>
   <g id="patch_73">
    <path clip-path="url(#paa73a93d63)" d="M 252.09368 372.563906 
L 253.174495 372.563906 
L 253.174495 79.448411 
L 252.09368 79.448411 
z
" style="fill:#ff0000;"/>
   </g>
   <g id="patch_74">
    <path clip-path="url(#paa73a93d63)" d="M 254.795719 372.563906 
L 255.876534 372.563906 
L 255.876534 83.207579 
L 254.795719 83.207579 
z
" style="fill:#ff0000;"/>
   </g>
   <g id="patch_75">
    <path clip-path="url(#paa73a93d63)" d="M 257.497758 372.563906 
L 258.578573 372.563906 
L 258.578573 86.994112 
L 257.497758 86.994112 
z
" style="fill:#ff0000;"/>
   </g>
   <g id="patch_76">
    <path clip-path="url(#paa73a93d63)" d="M 260.199797 372.563906 
L 261.280613 372.563906 
L 261.280613 85.411309 
L 260.199797 85.411309 
z
" style="fill:#ff0000;"/>
   </g>
   <g id="patch_77">
    <path clip-path="url(#paa73a93d63)" d="M 262.901836 372.563906 
L 263.982652 372.563906 
L 263.982652 86.640906 
L 262.901836 86.640906 
z
" style="fill:#ff0000;"/>
   </g>
   <g id="patch_78">
    <path clip-path="url(#paa73a93d63)" d="M 265.603875 372.563906 
L 266.684691 372.563906 
L 266.684691 84.738318 
L 265.603875 84.738318 
z
" style="fill:#ff0000;"/>
   </g>
   <g id="patch_79">
    <path clip-path="url(#paa73a93d63)" d="M 268.305914 372.563906 
L 269.38673 372.563906 
L 269.38673 79.667751 
L 268.305914 79.667751 
z
" style="fill:#ff0000;"/>
   </g>
   <g id="patch_80">
    <path clip-path="url(#paa73a93d63)" d="M 271.007953 372.563906 
L 272.088769 372.563906 
L 272.088769 84.042017 
L 271.007953 84.042017 
z
" style="fill:#ff0000;"/>
   </g>
   <g id="patch_81">
    <path clip-path="url(#paa73a93d63)" d="M 273.709992 372.563906 
L 274.790808 372.563906 
L 274.790808 78.132955 
L 273.709992 78.132955 
z
" style="fill:#ff0000;"/>
   </g>
   <g id="patch_82">
    <path clip-path="url(#paa73a93d63)" d="M 276.412031 372.563906 
L 277.492847 372.563906 
L 277.492847 85.01184 
L 276.412031 85.01184 
z
" style="fill:#ff0000;"/>
   </g>
   <g id="patch_83">
    <path clip-path="url(#paa73a93d63)" d="M 279.11407 372.563906 
L 280.194886 372.563906 
L 280.194886 85.626756 
L 279.11407 85.626756 
z
" style="fill:#ff0000;"/>
   </g>
   <g id="patch_84">
    <path clip-path="url(#paa73a93d63)" d="M 281.816109 372.563906 
L 282.896925 372.563906 
L 282.896925 83.400282 
L 281.816109 83.400282 
z
" style="fill:#ff0000;"/>
   </g>
   <g id="patch_85">
    <path clip-path="url(#paa73a93d63)" d="M 284.518148 372.563906 
L 285.598964 372.563906 
L 285.598964 84.864497 
L 284.518148 84.864497 
z
" style="fill:#ff0000;"/>
   </g>
   <g id="patch_86">
    <path clip-path="url(#paa73a93d63)" d="M 287.220188 372.563906 
L 288.301003 372.563906 
L 288.301003 80.483816 
L 287.220188 80.483816 
z
" style="fill:#ff0000;"/>
   </g>
   <g id="patch_87">
    <path clip-path="url(#paa73a93d63)" d="M 289.922227 372.563906 
L 291.003042 372.563906 
L 291.003042 76.910349 
L 289.922227 76.910349 
z
" style="fill:#ff0000;"/>
   </g>
   <g id="patch_88">
    <path clip-path="url(#paa73a93d63)" d="M 292.624266 372.563906 
L 293.705081 372.563906 
L 293.705081 77.515539 
L 292.624266 77.515539 
z
" style="fill:#ff0000;"/>
   </g>
   <g id="patch_89">
    <path clip-path="url(#paa73a93d63)" d="M 295.326305 372.563906 
L 296.40712 372.563906 
L 296.40712 72.104138 
L 295.326305 72.104138 
z
" style="fill:#ff0000;"/>
   </g>
   <g id="patch_90">
    <path clip-path="url(#paa73a93d63)" d="M 298.028344 372.563906 
L 299.109159 372.563906 
L 299.109159 74.718187 
L 298.028344 74.718187 
z
" style="fill:#ff0000;"/>
   </g>
   <g id="patch_91">
    <path clip-path="url(#paa73a93d63)" d="M 300.730383 372.563906 
L 301.811198 372.563906 
L 301.811198 83.667393 
L 300.730383 83.667393 
z
" style="fill:#ff0000;"/>
   </g>
   <g id="patch_92">
    <path clip-path="url(#paa73a93d63)" d="M 303.432422 372.563906 
L 304.513238 372.563906 
L 304.513238 84.770343 
L 303.432422 84.770343 
z
" style="fill:#ff0000;"/>
   </g>
   <g id="patch_93">
    <path clip-path="url(#paa73a93d63)" d="M 306.134461 372.563906 
L 307.215277 372.563906 
L 307.215277 85.276475 
L 306.134461 85.276475 
z
" style="fill:#ff0000;"/>
   </g>
   <g id="patch_94">
    <path clip-path="url(#paa73a93d63)" d="M 308.8365 372.563906 
L 309.917316 372.563906 
L 309.917316 82.388643 
L 308.8365 82.388643 
z
" style="fill:#ff0000;"/>
   </g>
   <g id="patch_95">
    <path clip-path="url(#paa73a93d63)" d="M 311.538539 372.563906 
L 312.619355 372.563906 
L 312.619355 81.236272 
L 311.538539 81.236272 
z
" style="fill:#ff0000;"/>
   </g>
   <g id="patch_96">
    <path clip-path="url(#paa73a93d63)" d="M 314.240578 372.563906 
L 315.321394 372.563906 
L 315.321394 77.965375 
L 314.240578 77.965375 
z
" style="fill:#ff0000;"/>
   </g>
   <g id="patch_97">
    <path clip-path="url(#paa73a93d63)" d="M 316.942617 372.563906 
L 318.023433 372.563906 
L 318.023433 80.404001 
L 316.942617 80.404001 
z
" style="fill:#ff0000;"/>
   </g>
   <g id="patch_98">
    <path clip-path="url(#paa73a93d63)" d="M 319.644656 372.563906 
L 320.725472 372.563906 
L 320.725472 78.744295 
L 319.644656 78.744295 
z
" style="fill:#ff0000;"/>
   </g>
   <g id="patch_99">
    <path clip-path="url(#paa73a93d63)" d="M 322.346695 372.563906 
L 323.427511 372.563906 
L 323.427511 82.00212 
L 322.346695 82.00212 
z
" style="fill:#ff0000;"/>
   </g>
   <g id="patch_100">
    <path clip-path="url(#paa73a93d63)" d="M 325.048734 372.563906 
L 326.12955 372.563906 
L 326.12955 85.782026 
L 325.048734 85.782026 
z
" style="fill:#ff0000;"/>
   </g>
   <g id="patch_101">
    <path clip-path="url(#paa73a93d63)" d="M 327.750773 372.563906 
L 328.831589 372.563906 
L 328.831589 81.408267 
L 327.750773 81.408267 
z
" style="fill:#ff0000;"/>
   </g>
   <g id="patch_102">
    <path clip-path="url(#paa73a93d63)" d="M 330.452813 372.563906 
L 331.533628 372.563906 
L 331.533628 83.747874 
L 330.452813 83.747874 
z
" style="fill:#ff0000;"/>
   </g>
   <g id="patch_103">
    <path clip-path="url(#paa73a93d63)" d="M 333.154852 372.563906 
L 334.235667 372.563906 
L 334.235667 81.993898 
L 333.154852 81.993898 
z
" style="fill:#ff0000;"/>
   </g>
   <g id="patch_104">
    <path clip-path="url(#paa73a93d63)" d="M 335.856891 372.563906 
L 336.937706 372.563906 
L 336.937706 83.690199 
L 335.856891 83.690199 
z
" style="fill:#ff0000;"/>
   </g>
   <g id="patch_105">
    <path clip-path="url(#paa73a93d63)" d="M 338.55893 372.563906 
L 339.639745 372.563906 
L 339.639745 81.674512 
L 338.55893 81.674512 
z
" style="fill:#ff0000;"/>
   </g>
   <g id="patch_106">
    <path clip-path="url(#paa73a93d63)" d="M 341.260969 372.563906 
L 342.341784 372.563906 
L 342.341784 83.065428 
L 341.260969 83.065428 
z
" style="fill:#ff0000;"/>
   </g>
   <g id="patch_107">
    <path clip-path="url(#paa73a93d63)" d="M 343.963008 372.563906 
L 345.043823 372.563906 
L 345.043823 84.314912 
L 343.963008 84.314912 
z
" style="fill:#ff0000;"/>
   </g>
   <g id="patch_108">
    <path clip-path="url(#paa73a93d63)" d="M 346.665047 372.563906 
L 347.745863 372.563906 
L 347.745863 81.807651 
L 346.665047 81.807651 
z
" style="fill:#ff0000;"/>
   </g>
   <g id="patch_109">
    <path clip-path="url(#paa73a93d63)" d="M 349.367086 372.563906 
L 350.447902 372.563906 
L 350.447902 83.635502 
L 349.367086 83.635502 
z
" style="fill:#ff0000;"/>
   </g>
   <g id="patch_110">
    <path clip-path="url(#paa73a93d63)" d="M 352.069125 372.563906 
L 353.149941 372.563906 
L 353.149941 83.585377 
L 352.069125 83.585377 
z
" style="fill:#ff0000;"/>
   </g>
   <g id="patch_111">
    <path clip-path="url(#paa73a93d63)" d="M 354.771164 372.563906 
L 355.85198 372.563906 
L 355.85198 83.528645 
L 354.771164 83.528645 
z
" style="fill:#ff0000;"/>
   </g>
   <g id="patch_112">
    <path clip-path="url(#paa73a93d63)" d="M 357.473203 372.563906 
L 358.554019 372.563906 
L 358.554019 85.101753 
L 357.473203 85.101753 
z
" style="fill:#ff0000;"/>
   </g>
   <g id="patch_113">
    <path clip-path="url(#paa73a93d63)" d="M 360.175242 372.563906 
L 361.256058 372.563906 
L 361.256058 77.832619 
L 360.175242 77.832619 
z
" style="fill:#ff0000;"/>
   </g>
   <g id="patch_114">
    <path clip-path="url(#paa73a93d63)" d="M 362.877281 372.563906 
L 363.958097 372.563906 
L 363.958097 86.878193 
L 362.877281 86.878193 
z
" style="fill:#ff0000;"/>
   </g>
   <g id="patch_115">
    <path clip-path="url(#paa73a93d63)" d="M 365.57932 372.563906 
L 366.660136 372.563906 
L 366.660136 81.301368 
L 365.57932 81.301368 
z
" style="fill:#ff0000;"/>
   </g>
   <g id="patch_116">
    <path clip-path="url(#paa73a93d63)" d="M 368.281359 372.563906 
L 369.362175 372.563906 
L 369.362175 84.005256 
L 368.281359 84.005256 
z
" style="fill:#ff0000;"/>
   </g>
   <g id="patch_117">
    <path clip-path="url(#paa73a93d63)" d="M 370.983398 372.563906 
L 372.064214 372.563906 
L 372.064214 83.035347 
L 370.983398 83.035347 
z
" style="fill:#ff0000;"/>
   </g>
   <g id="patch_118">
    <path clip-path="url(#paa73a93d63)" d="M 373.685438 372.563906 
L 374.766253 372.563906 
L 374.766253 81.474813 
L 373.685438 81.474813 
z
" style="fill:#ff0000;"/>
   </g>
   <g id="patch_119">
    <path clip-path="url(#paa73a93d63)" d="M 376.387477 372.563906 
L 377.468292 372.563906 
L 377.468292 84.111922 
L 376.387477 84.111922 
z
" style="fill:#ff0000;"/>
   </g>
   <g id="patch_120">
    <path clip-path="url(#paa73a93d63)" d="M 379.089516 372.563906 
L 380.170331 372.563906 
L 380.170331 79.984743 
L 379.089516 79.984743 
z
" style="fill:#ff0000;"/>
   </g>
   <g id="patch_121">
    <path clip-path="url(#paa73a93d63)" d="M 381.791555 372.563906 
L 382.87237 372.563906 
L 382.87237 78.452097 
L 381.791555 78.452097 
z
" style="fill:#ff0000;"/>
   </g>
   <g id="patch_122">
    <path clip-path="url(#paa73a93d63)" d="M 384.493594 372.563906 
L 385.574409 372.563906 
L 385.574409 86.696881 
L 384.493594 86.696881 
z
" style="fill:#ff0000;"/>
   </g>
   <g id="patch_123">
    <path clip-path="url(#paa73a93d63)" d="M 387.195633 372.563906 
L 388.276448 372.563906 
L 388.276448 100.804164 
L 387.195633 100.804164 
z
" style="fill:#ff0000;"/>
   </g>
   <g id="patch_124">
    <path clip-path="url(#paa73a93d63)" d="M 389.897672 372.563906 
L 390.978488 372.563906 
L 390.978488 98.121971 
L 389.897672 98.121971 
z
" style="fill:#ff0000;"/>
   </g>
   <g id="patch_125">
    <path clip-path="url(#paa73a93d63)" d="M 392.599711 372.563906 
L 393.680527 372.563906 
L 393.680527 100.301361 
L 392.599711 100.301361 
z
" style="fill:#ff0000;"/>
   </g>
   <g id="patch_126">
    <path clip-path="url(#paa73a93d63)" d="M 395.30175 372.563906 
L 396.382566 372.563906 
L 396.382566 101.273971 
L 395.30175 101.273971 
z
" style="fill:#ff0000;"/>
   </g>
   <g id="patch_127">
    <path clip-path="url(#paa73a93d63)" d="M 398.003789 372.563906 
L 399.084605 372.563906 
L 399.084605 101.27466 
L 398.003789 101.27466 
z
" style="fill:#ff0000;"/>
   </g>
   <g id="patch_128">
    <path clip-path="url(#paa73a93d63)" d="M 400.705828 372.563906 
L 401.786644 372.563906 
L 401.786644 98.917274 
L 400.705828 98.917274 
z
" style="fill:#ff0000;"/>
   </g>
   <g id="patch_129">
    <path clip-path="url(#paa73a93d63)" d="M 403.407867 372.563906 
L 404.488683 372.563906 
L 404.488683 101.009831 
L 403.407867 101.009831 
z
" style="fill:#ff0000;"/>
   </g>
   <g id="patch_130">
    <path clip-path="url(#paa73a93d63)" d="M 406.109906 372.563906 
L 407.190722 372.563906 
L 407.190722 98.362206 
L 406.109906 98.362206 
z
" style="fill:#ff0000;"/>
   </g>
   <g id="patch_131">
    <path clip-path="url(#paa73a93d63)" d="M 408.811945 372.563906 
L 409.892761 372.563906 
L 409.892761 97.232539 
L 408.811945 97.232539 
z
" style="fill:#ff0000;"/>
   </g>
   <g id="patch_132">
    <path clip-path="url(#paa73a93d63)" d="M 411.513984 372.563906 
L 412.5948 372.563906 
L 412.5948 98.331859 
L 411.513984 98.331859 
z
" style="fill:#ff0000;"/>
   </g>
   <g id="patch_133">
    <path clip-path="url(#paa73a93d63)" d="M 414.216023 372.563906 
L 415.296839 372.563906 
L 415.296839 101.092025 
L 414.216023 101.092025 
z
" style="fill:#ff0000;"/>
   </g>
   <g id="patch_134">
    <path clip-path="url(#paa73a93d63)" d="M 416.918063 372.563906 
L 417.998878 372.563906 
L 417.998878 99.852402 
L 416.918063 99.852402 
z
" style="fill:#ff0000;"/>
   </g>
   <g id="patch_135">
    <path clip-path="url(#paa73a93d63)" d="M 419.620102 372.563906 
L 420.700917 372.563906 
L 420.700917 102.849827 
L 419.620102 102.849827 
z
" style="fill:#ff0000;"/>
   </g>
   <g id="patch_136">
    <path clip-path="url(#paa73a93d63)" d="M 422.322141 372.563906 
L 423.402956 372.563906 
L 423.402956 100.969082 
L 422.322141 100.969082 
z
" style="fill:#ff0000;"/>
   </g>
   <g id="patch_137">
    <path clip-path="url(#paa73a93d63)" d="M 425.02418 372.563906 
L 426.104995 372.563906 
L 426.104995 99.315326 
L 425.02418 99.315326 
z
" style="fill:#ff0000;"/>
   </g>
   <g id="patch_138">
    <path clip-path="url(#paa73a93d63)" d="M 427.726219 372.563906 
L 428.807034 372.563906 
L 428.807034 99.638087 
L 427.726219 99.638087 
z
" style="fill:#ff0000;"/>
   </g>
   <g id="patch_139">
    <path clip-path="url(#paa73a93d63)" d="M 430.428258 372.563906 
L 431.509073 372.563906 
L 431.509073 104.43396 
L 430.428258 104.43396 
z
" style="fill:#ff0000;"/>
   </g>
   <g id="patch_140">
    <path clip-path="url(#paa73a93d63)" d="M 433.130297 372.563906 
L 434.211113 372.563906 
L 434.211113 100.184625 
L 433.130297 100.184625 
z
" style="fill:#ff0000;"/>
   </g>
   <g id="patch_141">
    <path clip-path="url(#paa73a93d63)" d="M 435.832336 372.563906 
L 436.913152 372.563906 
L 436.913152 100.077407 
L 435.832336 100.077407 
z
" style="fill:#ff0000;"/>
   </g>
   <g id="patch_142">
    <path clip-path="url(#paa73a93d63)" d="M 438.534375 372.563906 
L 439.615191 372.563906 
L 439.615191 101.730481 
L 438.534375 101.730481 
z
" style="fill:#ff0000;"/>
   </g>
   <g id="patch_143">
    <path clip-path="url(#paa73a93d63)" d="M 441.236414 372.563906 
L 442.31723 372.563906 
L 442.31723 103.165767 
L 441.236414 103.165767 
z
" style="fill:#ff0000;"/>
   </g>
   <g id="patch_144">
    <path clip-path="url(#paa73a93d63)" d="M 443.938453 372.563906 
L 445.019269 372.563906 
L 445.019269 97.802506 
L 443.938453 97.802506 
z
" style="fill:#ff0000;"/>
   </g>
   <g id="patch_145">
    <path clip-path="url(#paa73a93d63)" d="M 446.640492 372.563906 
L 447.721308 372.563906 
L 447.721308 100.50266 
L 446.640492 100.50266 
z
" style="fill:#ff0000;"/>
   </g>
   <g id="patch_146">
    <path clip-path="url(#paa73a93d63)" d="M 449.342531 372.563906 
L 450.423347 372.563906 
L 450.423347 99.852994 
L 449.342531 99.852994 
z
" style="fill:#ff0000;"/>
   </g>
   <g id="patch_147">
    <path clip-path="url(#paa73a93d63)" d="M 452.04457 372.563906 
L 453.125386 372.563906 
L 453.125386 101.357454 
L 452.04457 101.357454 
z
" style="fill:#ff0000;"/>
   </g>
   <g id="patch_148">
    <path clip-path="url(#paa73a93d63)" d="M 454.746609 372.563906 
L 455.827425 372.563906 
L 455.827425 98.798508 
L 454.746609 98.798508 
z
" style="fill:#ff0000;"/>
   </g>
   <g id="patch_149">
    <path clip-path="url(#paa73a93d63)" d="M 457.448648 372.563906 
L 458.529464 372.563906 
L 458.529464 100.873689 
L 457.448648 100.873689 
z
" style="fill:#ff0000;"/>
   </g>
   <g id="patch_150">
    <path clip-path="url(#paa73a93d63)" d="M 460.150688 372.563906 
L 461.231503 372.563906 
L 461.231503 100.712405 
L 460.150688 100.712405 
z
" style="fill:#ff0000;"/>
   </g>
   <g id="patch_151">
    <path clip-path="url(#paa73a93d63)" d="M 462.852727 372.563906 
L 463.933542 372.563906 
L 463.933542 97.481211 
L 462.852727 97.481211 
z
" style="fill:#ff0000;"/>
   </g>
   <g id="patch_152">
    <path clip-path="url(#paa73a93d63)" d="M 465.554766 372.563906 
L 466.635581 372.563906 
L 466.635581 100.707512 
L 465.554766 100.707512 
z
" style="fill:#ff0000;"/>
   </g>
   <g id="patch_153">
    <path clip-path="url(#paa73a93d63)" d="M 468.256805 372.563906 
L 469.33762 372.563906 
L 469.33762 103.448321 
L 468.256805 103.448321 
z
" style="fill:#ff0000;"/>
   </g>
   <g id="patch_154">
    <path clip-path="url(#paa73a93d63)" d="M 470.958844 372.563906 
L 472.039659 372.563906 
L 472.039659 95.771183 
L 470.958844 95.771183 
z
" style="fill:#ff0000;"/>
   </g>
   <g id="patch_155">
    <path clip-path="url(#paa73a93d63)" d="M 473.660883 372.563906 
L 474.741698 372.563906 
L 474.741698 100.267889 
L 473.660883 100.267889 
z
" style="fill:#ff0000;"/>
   </g>
   <g id="patch_156">
    <path clip-path="url(#paa73a93d63)" d="M 476.362922 372.563906 
L 477.443738 372.563906 
L 477.443738 98.047288 
L 476.362922 98.047288 
z
" style="fill:#ff0000;"/>
   </g>
   <g id="patch_157">
    <path clip-path="url(#paa73a93d63)" d="M 479.064961 372.563906 
L 480.145777 372.563906 
L 480.145777 103.704215 
L 479.064961 103.704215 
z
" style="fill:#ff0000;"/>
   </g>
   <g id="patch_158">
    <path clip-path="url(#paa73a93d63)" d="M 481.767 372.563906 
L 482.847816 372.563906 
L 482.847816 101.396723 
L 481.767 101.396723 
z
" style="fill:#ff0000;"/>
   </g>
   <g id="patch_159">
    <path clip-path="url(#paa73a93d63)" d="M 484.469039 372.563906 
L 485.549855 372.563906 
L 485.549855 105.393472 
L 484.469039 105.393472 
z
" style="fill:#ff0000;"/>
   </g>
   <g id="patch_160">
    <path clip-path="url(#paa73a93d63)" d="M 487.171078 372.563906 
L 488.251894 372.563906 
L 488.251894 102.957987 
L 487.171078 102.957987 
z
" style="fill:#ff0000;"/>
   </g>
   <g id="patch_161">
    <path clip-path="url(#paa73a93d63)" d="M 489.873117 372.563906 
L 490.953933 372.563906 
L 490.953933 98.55955 
L 489.873117 98.55955 
z
" style="fill:#ff0000;"/>
   </g>
   <g id="patch_162">
    <path clip-path="url(#paa73a93d63)" d="M 492.575156 372.563906 
L 493.655972 372.563906 
L 493.655972 100.607199 
L 492.575156 100.607199 
z
" style="fill:#ff0000;"/>
   </g>
   <g id="patch_163">
    <path clip-path="url(#paa73a93d63)" d="M 495.277195 372.563906 
L 496.358011 372.563906 
L 496.358011 101.706104 
L 495.277195 101.706104 
z
" style="fill:#ff0000;"/>
   </g>
   <g id="patch_164">
    <path clip-path="url(#paa73a93d63)" d="M 497.979234 372.563906 
L 499.06005 372.563906 
L 499.06005 99.423649 
L 497.979234 99.423649 
z
" style="fill:#ff0000;"/>
   </g>
   <g id="patch_165">
    <path clip-path="url(#paa73a93d63)" d="M 500.681273 372.563906 
L 501.762089 372.563906 
L 501.762089 102.486739 
L 500.681273 102.486739 
z
" style="fill:#ff0000;"/>
   </g>
   <g id="patch_166">
    <path clip-path="url(#paa73a93d63)" d="M 503.383313 372.563906 
L 504.464128 372.563906 
L 504.464128 99.73331 
L 503.383313 99.73331 
z
" style="fill:#ff0000;"/>
   </g>
   <g id="patch_167">
    <path clip-path="url(#paa73a93d63)" d="M 506.085352 372.563906 
L 507.166167 372.563906 
L 507.166167 102.27255 
L 506.085352 102.27255 
z
" style="fill:#ff0000;"/>
   </g>
   <g id="patch_168">
    <path clip-path="url(#paa73a93d63)" d="M 508.787391 372.563906 
L 509.868206 372.563906 
L 509.868206 98.569742 
L 508.787391 98.569742 
z
" style="fill:#ff0000;"/>
   </g>
   <g id="patch_169">
    <path clip-path="url(#paa73a93d63)" d="M 511.48943 372.563906 
L 512.570245 372.563906 
L 512.570245 102.522101 
L 511.48943 102.522101 
z
" style="fill:#ff0000;"/>
   </g>
   <g id="patch_170">
    <path clip-path="url(#paa73a93d63)" d="M 514.191469 372.563906 
L 515.272284 372.563906 
L 515.272284 102.110506 
L 514.191469 102.110506 
z
" style="fill:#ff0000;"/>
   </g>
   <g id="patch_171">
    <path clip-path="url(#paa73a93d63)" d="M 516.893508 372.563906 
L 517.974323 372.563906 
L 517.974323 102.682955 
L 516.893508 102.682955 
z
" style="fill:#ff0000;"/>
   </g>
   <g id="patch_172">
    <path clip-path="url(#paa73a93d63)" d="M 519.595547 372.563906 
L 520.676363 372.563906 
L 520.676363 99.609653 
L 519.595547 99.609653 
z
" style="fill:#ff0000;"/>
   </g>
   <g id="patch_173">
    <path clip-path="url(#paa73a93d63)" d="M 522.297586 372.563906 
L 523.378402 372.563906 
L 523.378402 100.752183 
L 522.297586 100.752183 
z
" style="fill:#ff0000;"/>
   </g>
   <g id="patch_174">
    <path clip-path="url(#paa73a93d63)" d="M 524.999625 372.563906 
L 526.080441 372.563906 
L 526.080441 107.252227 
L 524.999625 107.252227 
z
" style="fill:#ff0000;"/>
   </g>
   <g id="patch_175">
    <path clip-path="url(#paa73a93d63)" d="M 527.701664 372.563906 
L 528.78248 372.563906 
L 528.78248 99.699778 
L 527.701664 99.699778 
z
" style="fill:#ff0000;"/>
   </g>
   <g id="patch_176">
    <path clip-path="url(#paa73a93d63)" d="M 530.403703 372.563906 
L 531.484519 372.563906 
L 531.484519 102.672674 
L 530.403703 102.672674 
z
" style="fill:#ff0000;"/>
   </g>
   <g id="patch_177">
    <path clip-path="url(#paa73a93d63)" d="M 533.105742 372.563906 
L 534.186558 372.563906 
L 534.186558 103.515088 
L 533.105742 103.515088 
z
" style="fill:#ff0000;"/>
   </g>
   <g id="patch_178">
    <path clip-path="url(#paa73a93d63)" d="M 535.807781 372.563906 
L 536.888597 372.563906 
L 536.888597 102.277405 
L 535.807781 102.277405 
z
" style="fill:#ff0000;"/>
   </g>
   <g id="patch_179">
    <path clip-path="url(#paa73a93d63)" d="M 538.50982 372.563906 
L 539.590636 372.563906 
L 539.590636 100.167316 
L 538.50982 100.167316 
z
" style="fill:#ff0000;"/>
   </g>
   <g id="patch_180">
    <path clip-path="url(#paa73a93d63)" d="M 541.211859 372.563906 
L 542.292675 372.563906 
L 542.292675 105.181801 
L 541.211859 105.181801 
z
" style="fill:#ff0000;"/>
   </g>
   <g id="patch_181">
    <path clip-path="url(#paa73a93d63)" d="M 543.913898 372.563906 
L 544.994714 372.563906 
L 544.994714 102.945972 
L 543.913898 102.945972 
z
" style="fill:#ff0000;"/>
   </g>
   <g id="patch_182">
    <path clip-path="url(#paa73a93d63)" d="M 62.950945 99.314052 
L 64.031761 99.314052 
L 64.031761 14.408203 
L 62.950945 14.408203 
z
" style="fill:#0000ff;"/>
   </g>
   <g id="patch_183">
    <path clip-path="url(#paa73a93d63)" d="M 65.652984 98.921835 
L 66.7338 98.921835 
L 66.7338 14.408203 
L 65.652984 14.408203 
z
" style="fill:#0000ff;"/>
   </g>
   <g id="patch_184">
    <path clip-path="url(#paa73a93d63)" d="M 68.355023 99.593248 
L 69.435839 99.593248 
L 69.435839 14.408203 
L 68.355023 14.408203 
z
" style="fill:#0000ff;"/>
   </g>
   <g id="patch_185">
    <path clip-path="url(#paa73a93d63)" d="M 71.057063 97.233256 
L 72.137878 97.233256 
L 72.137878 14.408203 
L 71.057063 14.408203 
z
" style="fill:#0000ff;"/>
   </g>
   <g id="patch_186">
    <path clip-path="url(#paa73a93d63)" d="M 73.759102 100.430842 
L 74.839917 100.430842 
L 74.839917 14.408203 
L 73.759102 14.408203 
z
" style="fill:#0000ff;"/>
   </g>
   <g id="patch_187">
    <path clip-path="url(#paa73a93d63)" d="M 76.461141 100.353192 
L 77.541956 100.353192 
L 77.541956 14.408203 
L 76.461141 14.408203 
z
" style="fill:#0000ff;"/>
   </g>
   <g id="patch_188">
    <path clip-path="url(#paa73a93d63)" d="M 79.16318 99.099367 
L 80.243995 99.099367 
L 80.243995 14.408203 
L 79.16318 14.408203 
z
" style="fill:#0000ff;"/>
   </g>
   <g id="patch_189">
    <path clip-path="url(#paa73a93d63)" d="M 81.865219 100.713368 
L 82.946034 100.713368 
L 82.946034 14.408203 
L 81.865219 14.408203 
z
" style="fill:#0000ff;"/>
   </g>
   <g id="patch_190">
    <path clip-path="url(#paa73a93d63)" d="M 84.567258 99.67103 
L 85.648073 99.67103 
L 85.648073 14.408203 
L 84.567258 14.408203 
z
" style="fill:#0000ff;"/>
   </g>
   <g id="patch_191">
    <path clip-path="url(#paa73a93d63)" d="M 87.269297 100.010229 
L 88.350113 100.010229 
L 88.350113 14.408203 
L 87.269297 14.408203 
z
" style="fill:#0000ff;"/>
   </g>
   <g id="patch_192">
    <path clip-path="url(#paa73a93d63)" d="M 89.971336 101.727813 
L 91.052152 101.727813 
L 91.052152 14.408203 
L 89.971336 14.408203 
z
" style="fill:#0000ff;"/>
   </g>
   <g id="patch_193">
    <path clip-path="url(#paa73a93d63)" d="M 92.673375 97.90257 
L 93.754191 97.90257 
L 93.754191 14.408203 
L 92.673375 14.408203 
z
" style="fill:#0000ff;"/>
   </g>
   <g id="patch_194">
    <path clip-path="url(#paa73a93d63)" d="M 95.375414 99.089478 
L 96.45623 99.089478 
L 96.45623 14.408203 
L 95.375414 14.408203 
z
" style="fill:#0000ff;"/>
   </g>
   <g id="patch_195">
    <path clip-path="url(#paa73a93d63)" d="M 98.077453 97.961063 
L 99.158269 97.961063 
L 99.158269 14.408203 
L 98.077453 14.408203 
z
" style="fill:#0000ff;"/>
   </g>
   <g id="patch_196">
    <path clip-path="url(#paa73a93d63)" d="M 100.779492 96.426558 
L 101.860308 96.426558 
L 101.860308 14.408203 
L 100.779492 14.408203 
z
" style="fill:#0000ff;"/>
   </g>
   <g id="patch_197">
    <path clip-path="url(#paa73a93d63)" d="M 103.481531 98.065125 
L 104.562347 98.065125 
L 104.562347 14.408203 
L 103.481531 14.408203 
z
" style="fill:#0000ff;"/>
   </g>
   <g id="patch_198">
    <path clip-path="url(#paa73a93d63)" d="M 106.18357 97.632107 
L 107.264386 97.632107 
L 107.264386 14.408203 
L 106.18357 14.408203 
z
" style="fill:#0000ff;"/>
   </g>
   <g id="patch_199">
    <path clip-path="url(#paa73a93d63)" d="M 108.885609 95.54964 
L 109.966425 95.54964 
L 109.966425 14.408203 
L 108.885609 14.408203 
z
" style="fill:#0000ff;"/>
   </g>
   <g id="patch_200">
    <path clip-path="url(#paa73a93d63)" d="M 111.587648 97.681443 
L 112.668464 97.681443 
L 112.668464 14.408203 
L 111.587648 14.408203 
z
" style="fill:#0000ff;"/>
   </g>
   <g id="patch_201">
    <path clip-path="url(#paa73a93d63)" d="M 114.289688 98.406319 
L 115.370503 98.406319 
L 115.370503 14.408203 
L 114.289688 14.408203 
z
" style="fill:#0000ff;"/>
   </g>
   <g id="patch_202">
    <path clip-path="url(#paa73a93d63)" d="M 116.991727 95.843437 
L 118.072542 95.843437 
L 118.072542 14.408203 
L 116.991727 14.408203 
z
" style="fill:#0000ff;"/>
   </g>
   <g id="patch_203">
    <path clip-path="url(#paa73a93d63)" d="M 119.693766 100.626855 
L 120.774581 100.626855 
L 120.774581 14.408203 
L 119.693766 14.408203 
z
" style="fill:#0000ff;"/>
   </g>
   <g id="patch_204">
    <path clip-path="url(#paa73a93d63)" d="M 122.395805 98.336916 
L 123.47662 98.336916 
L 123.47662 14.408203 
L 122.395805 14.408203 
z
" style="fill:#0000ff;"/>
   </g>
   <g id="patch_205">
    <path clip-path="url(#paa73a93d63)" d="M 125.097844 100.530518 
L 126.178659 100.530518 
L 126.178659 14.408203 
L 125.097844 14.408203 
z
" style="fill:#0000ff;"/>
   </g>
   <g id="patch_206">
    <path clip-path="url(#paa73a93d63)" d="M 127.799883 111.889517 
L 128.880698 111.889517 
L 128.880698 14.408203 
L 127.799883 14.408203 
z
" style="fill:#0000ff;"/>
   </g>
   <g id="patch_207">
    <path clip-path="url(#paa73a93d63)" d="M 130.501922 99.583701 
L 131.582737 99.583701 
L 131.582737 14.408203 
L 130.501922 14.408203 
z
" style="fill:#0000ff;"/>
   </g>
   <g id="patch_208">
    <path clip-path="url(#paa73a93d63)" d="M 133.203961 96.764267 
L 134.284777 96.764267 
L 134.284777 14.408203 
L 133.203961 14.408203 
z
" style="fill:#0000ff;"/>
   </g>
   <g id="patch_209">
    <path clip-path="url(#paa73a93d63)" d="M 135.906 96.635221 
L 136.986816 96.635221 
L 136.986816 14.408203 
L 135.906 14.408203 
z
" style="fill:#0000ff;"/>
   </g>
   <g id="patch_210">
    <path clip-path="url(#paa73a93d63)" d="M 138.608039 99.609755 
L 139.688855 99.609755 
L 139.688855 14.408203 
L 138.608039 14.408203 
z
" style="fill:#0000ff;"/>
   </g>
   <g id="patch_211">
    <path clip-path="url(#paa73a93d63)" d="M 141.310078 95.077819 
L 142.390894 95.077819 
L 142.390894 14.408203 
L 141.310078 14.408203 
z
" style="fill:#0000ff;"/>
   </g>
   <g id="patch_212">
    <path clip-path="url(#paa73a93d63)" d="M 144.012117 99.867145 
L 145.092933 99.867145 
L 145.092933 14.408203 
L 144.012117 14.408203 
z
" style="fill:#0000ff;"/>
   </g>
   <g id="patch_213">
    <path clip-path="url(#paa73a93d63)" d="M 146.714156 97.634338 
L 147.794972 97.634338 
L 147.794972 14.408203 
L 146.714156 14.408203 
z
" style="fill:#0000ff;"/>
   </g>
   <g id="patch_214">
    <path clip-path="url(#paa73a93d63)" d="M 149.416195 100.222181 
L 150.497011 100.222181 
L 150.497011 14.408203 
L 149.416195 14.408203 
z
" style="fill:#0000ff;"/>
   </g>
   <g id="patch_215">
    <path clip-path="url(#paa73a93d63)" d="M 152.118234 98.758261 
L 153.19905 98.758261 
L 153.19905 14.408203 
L 152.118234 14.408203 
z
" style="fill:#0000ff;"/>
   </g>
   <g id="patch_216">
    <path clip-path="url(#paa73a93d63)" d="M 154.820273 98.880942 
L 155.901089 98.880942 
L 155.901089 14.408203 
L 154.820273 14.408203 
z
" style="fill:#0000ff;"/>
   </g>
   <g id="patch_217">
    <path clip-path="url(#paa73a93d63)" d="M 157.522312 97.413806 
L 158.603128 97.413806 
L 158.603128 14.408203 
L 157.522312 14.408203 
z
" style="fill:#0000ff;"/>
   </g>
   <g id="patch_218">
    <path clip-path="url(#paa73a93d63)" d="M 160.224352 96.478016 
L 161.305167 96.478016 
L 161.305167 14.408203 
L 160.224352 14.408203 
z
" style="fill:#0000ff;"/>
   </g>
   <g id="patch_219">
    <path clip-path="url(#paa73a93d63)" d="M 162.926391 98.9334 
L 164.007206 98.9334 
L 164.007206 14.408203 
L 162.926391 14.408203 
z
" style="fill:#0000ff;"/>
   </g>
   <g id="patch_220">
    <path clip-path="url(#paa73a93d63)" d="M 165.62843 91.549882 
L 166.709245 91.549882 
L 166.709245 14.408203 
L 165.62843 14.408203 
z
" style="fill:#0000ff;"/>
   </g>
   <g id="patch_221">
    <path clip-path="url(#paa73a93d63)" d="M 168.330469 94.548707 
L 169.411284 94.548707 
L 169.411284 14.408203 
L 168.330469 14.408203 
z
" style="fill:#0000ff;"/>
   </g>
   <g id="patch_222">
    <path clip-path="url(#paa73a93d63)" d="M 171.032508 93.884135 
L 172.113323 93.884135 
L 172.113323 14.408203 
L 171.032508 14.408203 
z
" style="fill:#0000ff;"/>
   </g>
   <g id="patch_223">
    <path clip-path="url(#paa73a93d63)" d="M 173.734547 91.768902 
L 174.815363 91.768902 
L 174.815363 14.408203 
L 173.734547 14.408203 
z
" style="fill:#0000ff;"/>
   </g>
   <g id="patch_224">
    <path clip-path="url(#paa73a93d63)" d="M 176.436586 98.501418 
L 177.517402 98.501418 
L 177.517402 14.408203 
L 176.436586 14.408203 
z
" style="fill:#0000ff;"/>
   </g>
   <g id="patch_225">
    <path clip-path="url(#paa73a93d63)" d="M 179.138625 100.270187 
L 180.219441 100.270187 
L 180.219441 14.408203 
L 179.138625 14.408203 
z
" style="fill:#0000ff;"/>
   </g>
   <g id="patch_226">
    <path clip-path="url(#paa73a93d63)" d="M 181.840664 97.136917 
L 182.92148 97.136917 
L 182.92148 14.408203 
L 181.840664 14.408203 
z
" style="fill:#0000ff;"/>
   </g>
   <g id="patch_227">
    <path clip-path="url(#paa73a93d63)" d="M 184.542703 89.504768 
L 185.623519 89.504768 
L 185.623519 14.408203 
L 184.542703 14.408203 
z
" style="fill:#0000ff;"/>
   </g>
   <g id="patch_228">
    <path clip-path="url(#paa73a93d63)" d="M 187.244742 98.698627 
L 188.325558 98.698627 
L 188.325558 14.408203 
L 187.244742 14.408203 
z
" style="fill:#0000ff;"/>
   </g>
   <g id="patch_229">
    <path clip-path="url(#paa73a93d63)" d="M 189.946781 100.419536 
L 191.027597 100.419536 
L 191.027597 14.408203 
L 189.946781 14.408203 
z
" style="fill:#0000ff;"/>
   </g>
   <g id="patch_230">
    <path clip-path="url(#paa73a93d63)" d="M 192.64882 100.189073 
L 193.729636 100.189073 
L 193.729636 14.408203 
L 192.64882 14.408203 
z
" style="fill:#0000ff;"/>
   </g>
   <g id="patch_231">
    <path clip-path="url(#paa73a93d63)" d="M 195.350859 96.546673 
L 196.431675 96.546673 
L 196.431675 14.408203 
L 195.350859 14.408203 
z
" style="fill:#0000ff;"/>
   </g>
   <g id="patch_232">
    <path clip-path="url(#paa73a93d63)" d="M 198.052898 94.320066 
L 199.133714 94.320066 
L 199.133714 14.408203 
L 198.052898 14.408203 
z
" style="fill:#0000ff;"/>
   </g>
   <g id="patch_233">
    <path clip-path="url(#paa73a93d63)" d="M 200.754938 96.496031 
L 201.835753 96.496031 
L 201.835753 14.408203 
L 200.754938 14.408203 
z
" style="fill:#0000ff;"/>
   </g>
   <g id="patch_234">
    <path clip-path="url(#paa73a93d63)" d="M 203.456977 97.364946 
L 204.537792 97.364946 
L 204.537792 14.408203 
L 203.456977 14.408203 
z
" style="fill:#0000ff;"/>
   </g>
   <g id="patch_235">
    <path clip-path="url(#paa73a93d63)" d="M 206.159016 99.104662 
L 207.239831 99.104662 
L 207.239831 14.408203 
L 206.159016 14.408203 
z
" style="fill:#0000ff;"/>
   </g>
   <g id="patch_236">
    <path clip-path="url(#paa73a93d63)" d="M 208.861055 97.904777 
L 209.94187 97.904777 
L 209.94187 14.408203 
L 208.861055 14.408203 
z
" style="fill:#0000ff;"/>
   </g>
   <g id="patch_237">
    <path clip-path="url(#paa73a93d63)" d="M 211.563094 96.019545 
L 212.643909 96.019545 
L 212.643909 14.408203 
L 211.563094 14.408203 
z
" style="fill:#0000ff;"/>
   </g>
   <g id="patch_238">
    <path clip-path="url(#paa73a93d63)" d="M 214.265133 92.227343 
L 215.345948 92.227343 
L 215.345948 14.408203 
L 214.265133 14.408203 
z
" style="fill:#0000ff;"/>
   </g>
   <g id="patch_239">
    <path clip-path="url(#paa73a93d63)" d="M 216.967172 99.515585 
L 218.047988 99.515585 
L 218.047988 14.408203 
L 216.967172 14.408203 
z
" style="fill:#0000ff;"/>
   </g>
   <g id="patch_240">
    <path clip-path="url(#paa73a93d63)" d="M 219.669211 98.866934 
L 220.750027 98.866934 
L 220.750027 14.408203 
L 219.669211 14.408203 
z
" style="fill:#0000ff;"/>
   </g>
   <g id="patch_241">
    <path clip-path="url(#paa73a93d63)" d="M 222.37125 94.325901 
L 223.452066 94.325901 
L 223.452066 14.408203 
L 222.37125 14.408203 
z
" style="fill:#0000ff;"/>
   </g>
   <g id="patch_242">
    <path clip-path="url(#paa73a93d63)" d="M 225.073289 87.675685 
L 226.154105 87.675685 
L 226.154105 14.408203 
L 225.073289 14.408203 
z
" style="fill:#0000ff;"/>
   </g>
   <g id="patch_243">
    <path clip-path="url(#paa73a93d63)" d="M 227.775328 82.173818 
L 228.856144 82.173818 
L 228.856144 14.408203 
L 227.775328 14.408203 
z
" style="fill:#0000ff;"/>
   </g>
   <g id="patch_244">
    <path clip-path="url(#paa73a93d63)" d="M 230.477367 80.980137 
L 231.558183 80.980137 
L 231.558183 14.408203 
L 230.477367 14.408203 
z
" style="fill:#0000ff;"/>
   </g>
   <g id="patch_245">
    <path clip-path="url(#paa73a93d63)" d="M 233.179406 83.547558 
L 234.260222 83.547558 
L 234.260222 14.408203 
L 233.179406 14.408203 
z
" style="fill:#0000ff;"/>
   </g>
   <g id="patch_246">
    <path clip-path="url(#paa73a93d63)" d="M 235.881445 80.121098 
L 236.962261 80.121098 
L 236.962261 14.408203 
L 235.881445 14.408203 
z
" style="fill:#0000ff;"/>
   </g>
   <g id="patch_247">
    <path clip-path="url(#paa73a93d63)" d="M 238.583484 74.634918 
L 239.6643 74.634918 
L 239.6643 14.408203 
L 238.583484 14.408203 
z
" style="fill:#0000ff;"/>
   </g>
   <g id="patch_248">
    <path clip-path="url(#paa73a93d63)" d="M 241.285523 78.863484 
L 242.366339 78.863484 
L 242.366339 14.408203 
L 241.285523 14.408203 
z
" style="fill:#0000ff;"/>
   </g>
   <g id="patch_249">
    <path clip-path="url(#paa73a93d63)" d="M 243.987563 78.510447 
L 245.068378 78.510447 
L 245.068378 14.408203 
L 243.987563 14.408203 
z
" style="fill:#0000ff;"/>
   </g>
   <g id="patch_250">
    <path clip-path="url(#paa73a93d63)" d="M 246.689602 81.466412 
L 247.770417 81.466412 
L 247.770417 14.408203 
L 246.689602 14.408203 
z
" style="fill:#0000ff;"/>
   </g>
   <g id="patch_251">
    <path clip-path="url(#paa73a93d63)" d="M 249.391641 79.684071 
L 250.472456 79.684071 
L 250.472456 14.408203 
L 249.391641 14.408203 
z
" style="fill:#0000ff;"/>
   </g>
   <g id="patch_252">
    <path clip-path="url(#paa73a93d63)" d="M 252.09368 79.448411 
L 253.174495 79.448411 
L 253.174495 14.408203 
L 252.09368 14.408203 
z
" style="fill:#0000ff;"/>
   </g>
   <g id="patch_253">
    <path clip-path="url(#paa73a93d63)" d="M 254.795719 83.207579 
L 255.876534 83.207579 
L 255.876534 14.408203 
L 254.795719 14.408203 
z
" style="fill:#0000ff;"/>
   </g>
   <g id="patch_254">
    <path clip-path="url(#paa73a93d63)" d="M 257.497758 86.994112 
L 258.578573 86.994112 
L 258.578573 14.408203 
L 257.497758 14.408203 
z
" style="fill:#0000ff;"/>
   </g>
   <g id="patch_255">
    <path clip-path="url(#paa73a93d63)" d="M 260.199797 85.411309 
L 261.280613 85.411309 
L 261.280613 14.408203 
L 260.199797 14.408203 
z
" style="fill:#0000ff;"/>
   </g>
   <g id="patch_256">
    <path clip-path="url(#paa73a93d63)" d="M 262.901836 86.640906 
L 263.982652 86.640906 
L 263.982652 14.408203 
L 262.901836 14.408203 
z
" style="fill:#0000ff;"/>
   </g>
   <g id="patch_257">
    <path clip-path="url(#paa73a93d63)" d="M 265.603875 84.738318 
L 266.684691 84.738318 
L 266.684691 14.408203 
L 265.603875 14.408203 
z
" style="fill:#0000ff;"/>
   </g>
   <g id="patch_258">
    <path clip-path="url(#paa73a93d63)" d="M 268.305914 79.667751 
L 269.38673 79.667751 
L 269.38673 14.408203 
L 268.305914 14.408203 
z
" style="fill:#0000ff;"/>
   </g>
   <g id="patch_259">
    <path clip-path="url(#paa73a93d63)" d="M 271.007953 84.042017 
L 272.088769 84.042017 
L 272.088769 14.408203 
L 271.007953 14.408203 
z
" style="fill:#0000ff;"/>
   </g>
   <g id="patch_260">
    <path clip-path="url(#paa73a93d63)" d="M 273.709992 78.132955 
L 274.790808 78.132955 
L 274.790808 14.408203 
L 273.709992 14.408203 
z
" style="fill:#0000ff;"/>
   </g>
   <g id="patch_261">
    <path clip-path="url(#paa73a93d63)" d="M 276.412031 85.01184 
L 277.492847 85.01184 
L 277.492847 14.408203 
L 276.412031 14.408203 
z
" style="fill:#0000ff;"/>
   </g>
   <g id="patch_262">
    <path clip-path="url(#paa73a93d63)" d="M 279.11407 85.626756 
L 280.194886 85.626756 
L 280.194886 14.408203 
L 279.11407 14.408203 
z
" style="fill:#0000ff;"/>
   </g>
   <g id="patch_263">
    <path clip-path="url(#paa73a93d63)" d="M 281.816109 83.400282 
L 282.896925 83.400282 
L 282.896925 14.408203 
L 281.816109 14.408203 
z
" style="fill:#0000ff;"/>
   </g>
   <g id="patch_264">
    <path clip-path="url(#paa73a93d63)" d="M 284.518148 84.864497 
L 285.598964 84.864497 
L 285.598964 14.408203 
L 284.518148 14.408203 
z
" style="fill:#0000ff;"/>
   </g>
   <g id="patch_265">
    <path clip-path="url(#paa73a93d63)" d="M 287.220188 80.483816 
L 288.301003 80.483816 
L 288.301003 14.408203 
L 287.220188 14.408203 
z
" style="fill:#0000ff;"/>
   </g>
   <g id="patch_266">
    <path clip-path="url(#paa73a93d63)" d="M 289.922227 76.910349 
L 291.003042 76.910349 
L 291.003042 14.408203 
L 289.922227 14.408203 
z
" style="fill:#0000ff;"/>
   </g>
   <g id="patch_267">
    <path clip-path="url(#paa73a93d63)" d="M 292.624266 77.515539 
L 293.705081 77.515539 
L 293.705081 14.408203 
L 292.624266 14.408203 
z
" style="fill:#0000ff;"/>
   </g>
   <g id="patch_268">
    <path clip-path="url(#paa73a93d63)" d="M 295.326305 72.104138 
L 296.40712 72.104138 
L 296.40712 14.408203 
L 295.326305 14.408203 
z
" style="fill:#0000ff;"/>
   </g>
   <g id="patch_269">
    <path clip-path="url(#paa73a93d63)" d="M 298.028344 74.718187 
L 299.109159 74.718187 
L 299.109159 14.408203 
L 298.028344 14.408203 
z
" style="fill:#0000ff;"/>
   </g>
   <g id="patch_270">
    <path clip-path="url(#paa73a93d63)" d="M 300.730383 83.667393 
L 301.811198 83.667393 
L 301.811198 14.408203 
L 300.730383 14.408203 
z
" style="fill:#0000ff;"/>
   </g>
   <g id="patch_271">
    <path clip-path="url(#paa73a93d63)" d="M 303.432422 84.770343 
L 304.513238 84.770343 
L 304.513238 14.408203 
L 303.432422 14.408203 
z
" style="fill:#0000ff;"/>
   </g>
   <g id="patch_272">
    <path clip-path="url(#paa73a93d63)" d="M 306.134461 85.276475 
L 307.215277 85.276475 
L 307.215277 14.408203 
L 306.134461 14.408203 
z
" style="fill:#0000ff;"/>
   </g>
   <g id="patch_273">
    <path clip-path="url(#paa73a93d63)" d="M 308.8365 82.388643 
L 309.917316 82.388643 
L 309.917316 14.408203 
L 308.8365 14.408203 
z
" style="fill:#0000ff;"/>
   </g>
   <g id="patch_274">
    <path clip-path="url(#paa73a93d63)" d="M 311.538539 81.236272 
L 312.619355 81.236272 
L 312.619355 14.408203 
L 311.538539 14.408203 
z
" style="fill:#0000ff;"/>
   </g>
   <g id="patch_275">
    <path clip-path="url(#paa73a93d63)" d="M 314.240578 77.965375 
L 315.321394 77.965375 
L 315.321394 14.408203 
L 314.240578 14.408203 
z
" style="fill:#0000ff;"/>
   </g>
   <g id="patch_276">
    <path clip-path="url(#paa73a93d63)" d="M 316.942617 80.404001 
L 318.023433 80.404001 
L 318.023433 14.408203 
L 316.942617 14.408203 
z
" style="fill:#0000ff;"/>
   </g>
   <g id="patch_277">
    <path clip-path="url(#paa73a93d63)" d="M 319.644656 78.744295 
L 320.725472 78.744295 
L 320.725472 14.408203 
L 319.644656 14.408203 
z
" style="fill:#0000ff;"/>
   </g>
   <g id="patch_278">
    <path clip-path="url(#paa73a93d63)" d="M 322.346695 82.00212 
L 323.427511 82.00212 
L 323.427511 14.408203 
L 322.346695 14.408203 
z
" style="fill:#0000ff;"/>
   </g>
   <g id="patch_279">
    <path clip-path="url(#paa73a93d63)" d="M 325.048734 85.782026 
L 326.12955 85.782026 
L 326.12955 14.408203 
L 325.048734 14.408203 
z
" style="fill:#0000ff;"/>
   </g>
   <g id="patch_280">
    <path clip-path="url(#paa73a93d63)" d="M 327.750773 81.408267 
L 328.831589 81.408267 
L 328.831589 14.408203 
L 327.750773 14.408203 
z
" style="fill:#0000ff;"/>
   </g>
   <g id="patch_281">
    <path clip-path="url(#paa73a93d63)" d="M 330.452813 83.747874 
L 331.533628 83.747874 
L 331.533628 14.408203 
L 330.452813 14.408203 
z
" style="fill:#0000ff;"/>
   </g>
   <g id="patch_282">
    <path clip-path="url(#paa73a93d63)" d="M 333.154852 81.993898 
L 334.235667 81.993898 
L 334.235667 14.408203 
L 333.154852 14.408203 
z
" style="fill:#0000ff;"/>
   </g>
   <g id="patch_283">
    <path clip-path="url(#paa73a93d63)" d="M 335.856891 83.690199 
L 336.937706 83.690199 
L 336.937706 14.408203 
L 335.856891 14.408203 
z
" style="fill:#0000ff;"/>
   </g>
   <g id="patch_284">
    <path clip-path="url(#paa73a93d63)" d="M 338.55893 81.674512 
L 339.639745 81.674512 
L 339.639745 14.408203 
L 338.55893 14.408203 
z
" style="fill:#0000ff;"/>
   </g>
   <g id="patch_285">
    <path clip-path="url(#paa73a93d63)" d="M 341.260969 83.065428 
L 342.341784 83.065428 
L 342.341784 14.408203 
L 341.260969 14.408203 
z
" style="fill:#0000ff;"/>
   </g>
   <g id="patch_286">
    <path clip-path="url(#paa73a93d63)" d="M 343.963008 84.314912 
L 345.043823 84.314912 
L 345.043823 14.408203 
L 343.963008 14.408203 
z
" style="fill:#0000ff;"/>
   </g>
   <g id="patch_287">
    <path clip-path="url(#paa73a93d63)" d="M 346.665047 81.807651 
L 347.745863 81.807651 
L 347.745863 14.408203 
L 346.665047 14.408203 
z
" style="fill:#0000ff;"/>
   </g>
   <g id="patch_288">
    <path clip-path="url(#paa73a93d63)" d="M 349.367086 83.635502 
L 350.447902 83.635502 
L 350.447902 14.408203 
L 349.367086 14.408203 
z
" style="fill:#0000ff;"/>
   </g>
   <g id="patch_289">
    <path clip-path="url(#paa73a93d63)" d="M 352.069125 83.585377 
L 353.149941 83.585377 
L 353.149941 14.408203 
L 352.069125 14.408203 
z
" style="fill:#0000ff;"/>
   </g>
   <g id="patch_290">
    <path clip-path="url(#paa73a93d63)" d="M 354.771164 83.528645 
L 355.85198 83.528645 
L 355.85198 14.408203 
L 354.771164 14.408203 
z
" style="fill:#0000ff;"/>
   </g>
   <g id="patch_291">
    <path clip-path="url(#paa73a93d63)" d="M 357.473203 85.101753 
L 358.554019 85.101753 
L 358.554019 14.408203 
L 357.473203 14.408203 
z
" style="fill:#0000ff;"/>
   </g>
   <g id="patch_292">
    <path clip-path="url(#paa73a93d63)" d="M 360.175242 77.832619 
L 361.256058 77.832619 
L 361.256058 14.408203 
L 360.175242 14.408203 
z
" style="fill:#0000ff;"/>
   </g>
   <g id="patch_293">
    <path clip-path="url(#paa73a93d63)" d="M 362.877281 86.878193 
L 363.958097 86.878193 
L 363.958097 14.408203 
L 362.877281 14.408203 
z
" style="fill:#0000ff;"/>
   </g>
   <g id="patch_294">
    <path clip-path="url(#paa73a93d63)" d="M 365.57932 81.301368 
L 366.660136 81.301368 
L 366.660136 14.408203 
L 365.57932 14.408203 
z
" style="fill:#0000ff;"/>
   </g>
   <g id="patch_295">
    <path clip-path="url(#paa73a93d63)" d="M 368.281359 84.005256 
L 369.362175 84.005256 
L 369.362175 14.408203 
L 368.281359 14.408203 
z
" style="fill:#0000ff;"/>
   </g>
   <g id="patch_296">
    <path clip-path="url(#paa73a93d63)" d="M 370.983398 83.035347 
L 372.064214 83.035347 
L 372.064214 14.408203 
L 370.983398 14.408203 
z
" style="fill:#0000ff;"/>
   </g>
   <g id="patch_297">
    <path clip-path="url(#paa73a93d63)" d="M 373.685438 81.474813 
L 374.766253 81.474813 
L 374.766253 14.408203 
L 373.685438 14.408203 
z
" style="fill:#0000ff;"/>
   </g>
   <g id="patch_298">
    <path clip-path="url(#paa73a93d63)" d="M 376.387477 84.111922 
L 377.468292 84.111922 
L 377.468292 14.408203 
L 376.387477 14.408203 
z
" style="fill:#0000ff;"/>
   </g>
   <g id="patch_299">
    <path clip-path="url(#paa73a93d63)" d="M 379.089516 79.984743 
L 380.170331 79.984743 
L 380.170331 14.408203 
L 379.089516 14.408203 
z
" style="fill:#0000ff;"/>
   </g>
   <g id="patch_300">
    <path clip-path="url(#paa73a93d63)" d="M 381.791555 78.452097 
L 382.87237 78.452097 
L 382.87237 14.408203 
L 381.791555 14.408203 
z
" style="fill:#0000ff;"/>
   </g>
   <g id="patch_301">
    <path clip-path="url(#paa73a93d63)" d="M 384.493594 86.696881 
L 385.574409 86.696881 
L 385.574409 14.408203 
L 384.493594 14.408203 
z
" style="fill:#0000ff;"/>
   </g>
   <g id="patch_302">
    <path clip-path="url(#paa73a93d63)" d="M 387.195633 100.804164 
L 388.276448 100.804164 
L 388.276448 14.408203 
L 387.195633 14.408203 
z
" style="fill:#0000ff;"/>
   </g>
   <g id="patch_303">
    <path clip-path="url(#paa73a93d63)" d="M 389.897672 98.121971 
L 390.978488 98.121971 
L 390.978488 14.408203 
L 389.897672 14.408203 
z
" style="fill:#0000ff;"/>
   </g>
   <g id="patch_304">
    <path clip-path="url(#paa73a93d63)" d="M 392.599711 100.301361 
L 393.680527 100.301361 
L 393.680527 14.408203 
L 392.599711 14.408203 
z
" style="fill:#0000ff;"/>
   </g>
   <g id="patch_305">
    <path clip-path="url(#paa73a93d63)" d="M 395.30175 101.273971 
L 396.382566 101.273971 
L 396.382566 14.408203 
L 395.30175 14.408203 
z
" style="fill:#0000ff;"/>
   </g>
   <g id="patch_306">
    <path clip-path="url(#paa73a93d63)" d="M 398.003789 101.27466 
L 399.084605 101.27466 
L 399.084605 14.408203 
L 398.003789 14.408203 
z
" style="fill:#0000ff;"/>
   </g>
   <g id="patch_307">
    <path clip-path="url(#paa73a93d63)" d="M 400.705828 98.917274 
L 401.786644 98.917274 
L 401.786644 14.408203 
L 400.705828 14.408203 
z
" style="fill:#0000ff;"/>
   </g>
   <g id="patch_308">
    <path clip-path="url(#paa73a93d63)" d="M 403.407867 101.009831 
L 404.488683 101.009831 
L 404.488683 14.408203 
L 403.407867 14.408203 
z
" style="fill:#0000ff;"/>
   </g>
   <g id="patch_309">
    <path clip-path="url(#paa73a93d63)" d="M 406.109906 98.362206 
L 407.190722 98.362206 
L 407.190722 14.408203 
L 406.109906 14.408203 
z
" style="fill:#0000ff;"/>
   </g>
   <g id="patch_310">
    <path clip-path="url(#paa73a93d63)" d="M 408.811945 97.232539 
L 409.892761 97.232539 
L 409.892761 14.408203 
L 408.811945 14.408203 
z
" style="fill:#0000ff;"/>
   </g>
   <g id="patch_311">
    <path clip-path="url(#paa73a93d63)" d="M 411.513984 98.331859 
L 412.5948 98.331859 
L 412.5948 14.408203 
L 411.513984 14.408203 
z
" style="fill:#0000ff;"/>
   </g>
   <g id="patch_312">
    <path clip-path="url(#paa73a93d63)" d="M 414.216023 101.092025 
L 415.296839 101.092025 
L 415.296839 14.408203 
L 414.216023 14.408203 
z
" style="fill:#0000ff;"/>
   </g>
   <g id="patch_313">
    <path clip-path="url(#paa73a93d63)" d="M 416.918063 99.852402 
L 417.998878 99.852402 
L 417.998878 14.408203 
L 416.918063 14.408203 
z
" style="fill:#0000ff;"/>
   </g>
   <g id="patch_314">
    <path clip-path="url(#paa73a93d63)" d="M 419.620102 102.849827 
L 420.700917 102.849827 
L 420.700917 14.408203 
L 419.620102 14.408203 
z
" style="fill:#0000ff;"/>
   </g>
   <g id="patch_315">
    <path clip-path="url(#paa73a93d63)" d="M 422.322141 100.969082 
L 423.402956 100.969082 
L 423.402956 14.408203 
L 422.322141 14.408203 
z
" style="fill:#0000ff;"/>
   </g>
   <g id="patch_316">
    <path clip-path="url(#paa73a93d63)" d="M 425.02418 99.315326 
L 426.104995 99.315326 
L 426.104995 14.408203 
L 425.02418 14.408203 
z
" style="fill:#0000ff;"/>
   </g>
   <g id="patch_317">
    <path clip-path="url(#paa73a93d63)" d="M 427.726219 99.638087 
L 428.807034 99.638087 
L 428.807034 14.408203 
L 427.726219 14.408203 
z
" style="fill:#0000ff;"/>
   </g>
   <g id="patch_318">
    <path clip-path="url(#paa73a93d63)" d="M 430.428258 104.43396 
L 431.509073 104.43396 
L 431.509073 14.408203 
L 430.428258 14.408203 
z
" style="fill:#0000ff;"/>
   </g>
   <g id="patch_319">
    <path clip-path="url(#paa73a93d63)" d="M 433.130297 100.184625 
L 434.211113 100.184625 
L 434.211113 14.408203 
L 433.130297 14.408203 
z
" style="fill:#0000ff;"/>
   </g>
   <g id="patch_320">
    <path clip-path="url(#paa73a93d63)" d="M 435.832336 100.077407 
L 436.913152 100.077407 
L 436.913152 14.408203 
L 435.832336 14.408203 
z
" style="fill:#0000ff;"/>
   </g>
   <g id="patch_321">
    <path clip-path="url(#paa73a93d63)" d="M 438.534375 101.730481 
L 439.615191 101.730481 
L 439.615191 14.408203 
L 438.534375 14.408203 
z
" style="fill:#0000ff;"/>
   </g>
   <g id="patch_322">
    <path clip-path="url(#paa73a93d63)" d="M 441.236414 103.165767 
L 442.31723 103.165767 
L 442.31723 14.408203 
L 441.236414 14.408203 
z
" style="fill:#0000ff;"/>
   </g>
   <g id="patch_323">
    <path clip-path="url(#paa73a93d63)" d="M 443.938453 97.802506 
L 445.019269 97.802506 
L 445.019269 14.408203 
L 443.938453 14.408203 
z
" style="fill:#0000ff;"/>
   </g>
   <g id="patch_324">
    <path clip-path="url(#paa73a93d63)" d="M 446.640492 100.50266 
L 447.721308 100.50266 
L 447.721308 14.408203 
L 446.640492 14.408203 
z
" style="fill:#0000ff;"/>
   </g>
   <g id="patch_325">
    <path clip-path="url(#paa73a93d63)" d="M 449.342531 99.852994 
L 450.423347 99.852994 
L 450.423347 14.408203 
L 449.342531 14.408203 
z
" style="fill:#0000ff;"/>
   </g>
   <g id="patch_326">
    <path clip-path="url(#paa73a93d63)" d="M 452.04457 101.357454 
L 453.125386 101.357454 
L 453.125386 14.408203 
L 452.04457 14.408203 
z
" style="fill:#0000ff;"/>
   </g>
   <g id="patch_327">
    <path clip-path="url(#paa73a93d63)" d="M 454.746609 98.798508 
L 455.827425 98.798508 
L 455.827425 14.408203 
L 454.746609 14.408203 
z
" style="fill:#0000ff;"/>
   </g>
   <g id="patch_328">
    <path clip-path="url(#paa73a93d63)" d="M 457.448648 100.873689 
L 458.529464 100.873689 
L 458.529464 14.408203 
L 457.448648 14.408203 
z
" style="fill:#0000ff;"/>
   </g>
   <g id="patch_329">
    <path clip-path="url(#paa73a93d63)" d="M 460.150688 100.712405 
L 461.231503 100.712405 
L 461.231503 14.408203 
L 460.150688 14.408203 
z
" style="fill:#0000ff;"/>
   </g>
   <g id="patch_330">
    <path clip-path="url(#paa73a93d63)" d="M 462.852727 97.481211 
L 463.933542 97.481211 
L 463.933542 14.408203 
L 462.852727 14.408203 
z
" style="fill:#0000ff;"/>
   </g>
   <g id="patch_331">
    <path clip-path="url(#paa73a93d63)" d="M 465.554766 100.707512 
L 466.635581 100.707512 
L 466.635581 14.408203 
L 465.554766 14.408203 
z
" style="fill:#0000ff;"/>
   </g>
   <g id="patch_332">
    <path clip-path="url(#paa73a93d63)" d="M 468.256805 103.448321 
L 469.33762 103.448321 
L 469.33762 14.408203 
L 468.256805 14.408203 
z
" style="fill:#0000ff;"/>
   </g>
   <g id="patch_333">
    <path clip-path="url(#paa73a93d63)" d="M 470.958844 95.771183 
L 472.039659 95.771183 
L 472.039659 14.408203 
L 470.958844 14.408203 
z
" style="fill:#0000ff;"/>
   </g>
   <g id="patch_334">
    <path clip-path="url(#paa73a93d63)" d="M 473.660883 100.267889 
L 474.741698 100.267889 
L 474.741698 14.408203 
L 473.660883 14.408203 
z
" style="fill:#0000ff;"/>
   </g>
   <g id="patch_335">
    <path clip-path="url(#paa73a93d63)" d="M 476.362922 98.047288 
L 477.443738 98.047288 
L 477.443738 14.408203 
L 476.362922 14.408203 
z
" style="fill:#0000ff;"/>
   </g>
   <g id="patch_336">
    <path clip-path="url(#paa73a93d63)" d="M 479.064961 103.704215 
L 480.145777 103.704215 
L 480.145777 14.408203 
L 479.064961 14.408203 
z
" style="fill:#0000ff;"/>
   </g>
   <g id="patch_337">
    <path clip-path="url(#paa73a93d63)" d="M 481.767 101.396723 
L 482.847816 101.396723 
L 482.847816 14.408203 
L 481.767 14.408203 
z
" style="fill:#0000ff;"/>
   </g>
   <g id="patch_338">
    <path clip-path="url(#paa73a93d63)" d="M 484.469039 105.393472 
L 485.549855 105.393472 
L 485.549855 14.408203 
L 484.469039 14.408203 
z
" style="fill:#0000ff;"/>
   </g>
   <g id="patch_339">
    <path clip-path="url(#paa73a93d63)" d="M 487.171078 102.957987 
L 488.251894 102.957987 
L 488.251894 14.408203 
L 487.171078 14.408203 
z
" style="fill:#0000ff;"/>
   </g>
   <g id="patch_340">
    <path clip-path="url(#paa73a93d63)" d="M 489.873117 98.55955 
L 490.953933 98.55955 
L 490.953933 14.408203 
L 489.873117 14.408203 
z
" style="fill:#0000ff;"/>
   </g>
   <g id="patch_341">
    <path clip-path="url(#paa73a93d63)" d="M 492.575156 100.607199 
L 493.655972 100.607199 
L 493.655972 14.408203 
L 492.575156 14.408203 
z
" style="fill:#0000ff;"/>
   </g>
   <g id="patch_342">
    <path clip-path="url(#paa73a93d63)" d="M 495.277195 101.706104 
L 496.358011 101.706104 
L 496.358011 14.408203 
L 495.277195 14.408203 
z
" style="fill:#0000ff;"/>
   </g>
   <g id="patch_343">
    <path clip-path="url(#paa73a93d63)" d="M 497.979234 99.423649 
L 499.06005 99.423649 
L 499.06005 14.408203 
L 497.979234 14.408203 
z
" style="fill:#0000ff;"/>
   </g>
   <g id="patch_344">
    <path clip-path="url(#paa73a93d63)" d="M 500.681273 102.486739 
L 501.762089 102.486739 
L 501.762089 14.408203 
L 500.681273 14.408203 
z
" style="fill:#0000ff;"/>
   </g>
   <g id="patch_345">
    <path clip-path="url(#paa73a93d63)" d="M 503.383313 99.73331 
L 504.464128 99.73331 
L 504.464128 14.408203 
L 503.383313 14.408203 
z
" style="fill:#0000ff;"/>
   </g>
   <g id="patch_346">
    <path clip-path="url(#paa73a93d63)" d="M 506.085352 102.27255 
L 507.166167 102.27255 
L 507.166167 14.408203 
L 506.085352 14.408203 
z
" style="fill:#0000ff;"/>
   </g>
   <g id="patch_347">
    <path clip-path="url(#paa73a93d63)" d="M 508.787391 98.569742 
L 509.868206 98.569742 
L 509.868206 14.408203 
L 508.787391 14.408203 
z
" style="fill:#0000ff;"/>
   </g>
   <g id="patch_348">
    <path clip-path="url(#paa73a93d63)" d="M 511.48943 102.522101 
L 512.570245 102.522101 
L 512.570245 14.408203 
L 511.48943 14.408203 
z
" style="fill:#0000ff;"/>
   </g>
   <g id="patch_349">
    <path clip-path="url(#paa73a93d63)" d="M 514.191469 102.110506 
L 515.272284 102.110506 
L 515.272284 14.408203 
L 514.191469 14.408203 
z
" style="fill:#0000ff;"/>
   </g>
   <g id="patch_350">
    <path clip-path="url(#paa73a93d63)" d="M 516.893508 102.682955 
L 517.974323 102.682955 
L 517.974323 14.408203 
L 516.893508 14.408203 
z
" style="fill:#0000ff;"/>
   </g>
   <g id="patch_351">
    <path clip-path="url(#paa73a93d63)" d="M 519.595547 99.609653 
L 520.676363 99.609653 
L 520.676363 14.408203 
L 519.595547 14.408203 
z
" style="fill:#0000ff;"/>
   </g>
   <g id="patch_352">
    <path clip-path="url(#paa73a93d63)" d="M 522.297586 100.752183 
L 523.378402 100.752183 
L 523.378402 14.408203 
L 522.297586 14.408203 
z
" style="fill:#0000ff;"/>
   </g>
   <g id="patch_353">
    <path clip-path="url(#paa73a93d63)" d="M 524.999625 107.252227 
L 526.080441 107.252227 
L 526.080441 14.408203 
L 524.999625 14.408203 
z
" style="fill:#0000ff;"/>
   </g>
   <g id="patch_354">
    <path clip-path="url(#paa73a93d63)" d="M 527.701664 99.699778 
L 528.78248 99.699778 
L 528.78248 14.408203 
L 527.701664 14.408203 
z
" style="fill:#0000ff;"/>
   </g>
   <g id="patch_355">
    <path clip-path="url(#paa73a93d63)" d="M 530.403703 102.672674 
L 531.484519 102.672674 
L 531.484519 14.408203 
L 530.403703 14.408203 
z
" style="fill:#0000ff;"/>
   </g>
   <g id="patch_356">
    <path clip-path="url(#paa73a93d63)" d="M 533.105742 103.515088 
L 534.186558 103.515088 
L 534.186558 14.408203 
L 533.105742 14.408203 
z
" style="fill:#0000ff;"/>
   </g>
   <g id="patch_357">
    <path clip-path="url(#paa73a93d63)" d="M 535.807781 102.277405 
L 536.888597 102.277405 
L 536.888597 14.408203 
L 535.807781 14.408203 
z
" style="fill:#0000ff;"/>
   </g>
   <g id="patch_358">
    <path clip-path="url(#paa73a93d63)" d="M 538.50982 100.167316 
L 539.590636 100.167316 
L 539.590636 14.408203 
L 538.50982 14.408203 
z
" style="fill:#0000ff;"/>
   </g>
   <g id="patch_359">
    <path clip-path="url(#paa73a93d63)" d="M 541.211859 105.181801 
L 542.292675 105.181801 
L 542.292675 14.408203 
L 541.211859 14.408203 
z
" style="fill:#0000ff;"/>
   </g>
   <g id="patch_360">
    <path clip-path="url(#paa73a93d63)" d="M 543.913898 102.945972 
L 544.994714 102.945972 
L 544.994714 14.408203 
L 543.913898 14.408203 
z
" style="fill:#0000ff;"/>
   </g>
   <g id="patch_361">
    <path d="M 60.248906 14.408203 
L 546.615938 14.408203 
" style="fill:none;stroke:#000000;stroke-linecap:square;stroke-linejoin:miter;"/>
   </g>
   <g id="patch_362">
    <path d="M 546.615938 372.563906 
L 546.615938 14.408203 
" style="fill:none;stroke:#000000;stroke-linecap:square;stroke-linejoin:miter;"/>
   </g>
   <g id="patch_363">
    <path d="M 60.248906 372.563906 
L 546.615938 372.563906 
" style="fill:none;stroke:#000000;stroke-linecap:square;stroke-linejoin:miter;"/>
   </g>
   <g id="patch_364">
    <path d="M 60.248906 372.563906 
L 60.248906 14.408203 
" style="fill:none;stroke:#000000;stroke-linecap:square;stroke-linejoin:miter;"/>
   </g>
   <g id="matplotlib.axis_1">
    <g id="xtick_1">
     <g id="line2d_1">
      <defs>
       <path d="M 0 0 
L 0 -4 
" id="ma746c25724" style="stroke:#000000;stroke-width:0.5;"/>
      </defs>
      <g>
       <use style="fill:none;stroke:#000000;stroke-width:0.5;" x="60.24890625" xlink:href="#ma746c25724" y="372.56390625"/>
      </g>
     </g>
     <g id="line2d_2">
      <defs>
       <path d="M 0 0 
L 0 4 
" id="mdfa2673c9b" style="stroke:#000000;stroke-width:0.5;"/>
      </defs>
      <g>
       <use style="fill:none;stroke:#000000;stroke-width:0.5;" x="60.24890625" xlink:href="#mdfa2673c9b" y="14.408203125"/>
      </g>
     </g>
     <g id="text_1">
      <text style="font-family:Verdana;font-size:15.0px;font-style:normal;font-weight:700;text-anchor:middle;" transform="rotate(-0.000000, 60.248906, 387.961563)" x="60.24890625" y="387.9615625">0</text>
     </g>
    </g>
    <g id="xtick_2">
     <g id="line2d_3">
      <g>
       <use style="fill:none;stroke:#000000;stroke-width:0.5;" x="114.2896875" xlink:href="#ma746c25724" y="372.56390625"/>
      </g>
     </g>
     <g id="line2d_4">
      <g>
       <use style="fill:none;stroke:#000000;stroke-width:0.5;" x="114.2896875" xlink:href="#mdfa2673c9b" y="14.408203125"/>
      </g>
     </g>
     <g id="text_2">
      <text style="font-family:Verdana;font-size:15.0px;font-style:normal;font-weight:700;text-anchor:middle;" transform="rotate(-0.000000, 114.289688, 387.961563)" x="114.2896875" y="387.9615625">10</text>
     </g>
    </g>
    <g id="xtick_3">
     <g id="line2d_5">
      <g>
       <use style="fill:none;stroke:#000000;stroke-width:0.5;" x="168.33046875" xlink:href="#ma746c25724" y="372.56390625"/>
      </g>
     </g>
     <g id="line2d_6">
      <g>
       <use style="fill:none;stroke:#000000;stroke-width:0.5;" x="168.33046875" xlink:href="#mdfa2673c9b" y="14.408203125"/>
      </g>
     </g>
     <g id="text_3">
      <text style="font-family:Verdana;font-size:15.0px;font-style:normal;font-weight:700;text-anchor:middle;" transform="rotate(-0.000000, 168.330469, 387.961563)" x="168.33046875" y="387.9615625">20</text>
     </g>
    </g>
    <g id="xtick_4">
     <g id="line2d_7">
      <g>
       <use style="fill:none;stroke:#000000;stroke-width:0.5;" x="222.37125" xlink:href="#ma746c25724" y="372.56390625"/>
      </g>
     </g>
     <g id="line2d_8">
      <g>
       <use style="fill:none;stroke:#000000;stroke-width:0.5;" x="222.37125" xlink:href="#mdfa2673c9b" y="14.408203125"/>
      </g>
     </g>
     <g id="text_4">
      <text style="font-family:Verdana;font-size:15.0px;font-style:normal;font-weight:700;text-anchor:middle;" transform="rotate(-0.000000, 222.371250, 387.961563)" x="222.37125" y="387.9615625">30</text>
     </g>
    </g>
    <g id="xtick_5">
     <g id="line2d_9">
      <g>
       <use style="fill:none;stroke:#000000;stroke-width:0.5;" x="276.41203125" xlink:href="#ma746c25724" y="372.56390625"/>
      </g>
     </g>
     <g id="line2d_10">
      <g>
       <use style="fill:none;stroke:#000000;stroke-width:0.5;" x="276.41203125" xlink:href="#mdfa2673c9b" y="14.408203125"/>
      </g>
     </g>
     <g id="text_5">
      <text style="font-family:Verdana;font-size:15.0px;font-style:normal;font-weight:700;text-anchor:middle;" transform="rotate(-0.000000, 276.412031, 387.961563)" x="276.41203125" y="387.9615625">40</text>
     </g>
    </g>
    <g id="xtick_6">
     <g id="line2d_11">
      <g>
       <use style="fill:none;stroke:#000000;stroke-width:0.5;" x="330.4528125" xlink:href="#ma746c25724" y="372.56390625"/>
      </g>
     </g>
     <g id="line2d_12">
      <g>
       <use style="fill:none;stroke:#000000;stroke-width:0.5;" x="330.4528125" xlink:href="#mdfa2673c9b" y="14.408203125"/>
      </g>
     </g>
     <g id="text_6">
      <text style="font-family:Verdana;font-size:15.0px;font-style:normal;font-weight:700;text-anchor:middle;" transform="rotate(-0.000000, 330.452813, 387.961563)" x="330.4528125" y="387.9615625">50</text>
     </g>
    </g>
    <g id="xtick_7">
     <g id="line2d_13">
      <g>
       <use style="fill:none;stroke:#000000;stroke-width:0.5;" x="384.49359375" xlink:href="#ma746c25724" y="372.56390625"/>
      </g>
     </g>
     <g id="line2d_14">
      <g>
       <use style="fill:none;stroke:#000000;stroke-width:0.5;" x="384.49359375" xlink:href="#mdfa2673c9b" y="14.408203125"/>
      </g>
     </g>
     <g id="text_7">
      <text style="font-family:Verdana;font-size:15.0px;font-style:normal;font-weight:700;text-anchor:middle;" transform="rotate(-0.000000, 384.493594, 387.961563)" x="384.49359375" y="387.9615625">60</text>
     </g>
    </g>
    <g id="xtick_8">
     <g id="line2d_15">
      <g>
       <use style="fill:none;stroke:#000000;stroke-width:0.5;" x="438.534375" xlink:href="#ma746c25724" y="372.56390625"/>
      </g>
     </g>
     <g id="line2d_16">
      <g>
       <use style="fill:none;stroke:#000000;stroke-width:0.5;" x="438.534375" xlink:href="#mdfa2673c9b" y="14.408203125"/>
      </g>
     </g>
     <g id="text_8">
      <text style="font-family:Verdana;font-size:15.0px;font-style:normal;font-weight:700;text-anchor:middle;" transform="rotate(-0.000000, 438.534375, 387.961563)" x="438.534375" y="387.9615625">70</text>
     </g>
    </g>
    <g id="xtick_9">
     <g id="line2d_17">
      <g>
       <use style="fill:none;stroke:#000000;stroke-width:0.5;" x="492.57515625" xlink:href="#ma746c25724" y="372.56390625"/>
      </g>
     </g>
     <g id="line2d_18">
      <g>
       <use style="fill:none;stroke:#000000;stroke-width:0.5;" x="492.57515625" xlink:href="#mdfa2673c9b" y="14.408203125"/>
      </g>
     </g>
     <g id="text_9">
      <text style="font-family:Verdana;font-size:15.0px;font-style:normal;font-weight:700;text-anchor:middle;" transform="rotate(-0.000000, 492.575156, 387.961563)" x="492.57515625" y="387.9615625">80</text>
     </g>
    </g>
    <g id="xtick_10">
     <g id="line2d_19">
      <g>
       <use style="fill:none;stroke:#000000;stroke-width:0.5;" x="546.6159375" xlink:href="#ma746c25724" y="372.56390625"/>
      </g>
     </g>
     <g id="line2d_20">
      <g>
       <use style="fill:none;stroke:#000000;stroke-width:0.5;" x="546.6159375" xlink:href="#mdfa2673c9b" y="14.408203125"/>
      </g>
     </g>
     <g id="text_10">
      <text style="font-family:Verdana;font-size:15.0px;font-style:normal;font-weight:700;text-anchor:middle;" transform="rotate(-0.000000, 546.615938, 387.961563)" x="546.6159375" y="387.9615625">90</text>
     </g>
    </g>
    <g id="text_11">
     <text style="font-family:Verdana;font-size:18.0px;font-style:normal;font-weight:700;text-anchor:middle;" transform="rotate(-0.000000, 303.432422, 409.657500)" x="303.432421875" y="409.6575">Time (sec)</text>
    </g>
   </g>
   <g id="matplotlib.axis_2">
    <g id="ytick_1">
     <g id="line2d_21">
      <defs>
       <path d="M 0 0 
L 4 0 
" id="m387c39e532" style="stroke:#000000;stroke-width:0.5;"/>
      </defs>
      <g>
       <use style="fill:none;stroke:#000000;stroke-width:0.5;" x="60.24890625" xlink:href="#m387c39e532" y="372.56390625"/>
      </g>
     </g>
     <g id="line2d_22">
      <defs>
       <path d="M 0 0 
L -4 0 
" id="m48e31c533b" style="stroke:#000000;stroke-width:0.5;"/>
      </defs>
      <g>
       <use style="fill:none;stroke:#000000;stroke-width:0.5;" x="546.6159375" xlink:href="#m48e31c533b" y="372.56390625"/>
      </g>
     </g>
     <g id="text_12">
      <text style="font-family:Verdana;font-size:15.0px;font-style:normal;font-weight:700;text-anchor:end;" transform="rotate(-0.000000, 56.248906, 376.753359)" x="56.24890625" y="376.753359375">0.0</text>
     </g>
    </g>
    <g id="ytick_2">
     <g id="line2d_23">
      <g>
       <use style="fill:none;stroke:#000000;stroke-width:0.5;" x="60.24890625" xlink:href="#m387c39e532" y="300.932765625"/>
      </g>
     </g>
     <g id="line2d_24">
      <g>
       <use style="fill:none;stroke:#000000;stroke-width:0.5;" x="546.6159375" xlink:href="#m48e31c533b" y="300.932765625"/>
      </g>
     </g>
     <g id="text_13">
      <text style="font-family:Verdana;font-size:15.0px;font-style:normal;font-weight:700;text-anchor:end;" transform="rotate(-0.000000, 56.248906, 305.122219)" x="56.24890625" y="305.12221875">0.2</text>
     </g>
    </g>
    <g id="ytick_3">
     <g id="line2d_25">
      <g>
       <use style="fill:none;stroke:#000000;stroke-width:0.5;" x="60.24890625" xlink:href="#m387c39e532" y="229.301625"/>
      </g>
     </g>
     <g id="line2d_26">
      <g>
       <use style="fill:none;stroke:#000000;stroke-width:0.5;" x="546.6159375" xlink:href="#m48e31c533b" y="229.301625"/>
      </g>
     </g>
     <g id="text_14">
      <text style="font-family:Verdana;font-size:15.0px;font-style:normal;font-weight:700;text-anchor:end;" transform="rotate(-0.000000, 56.248906, 233.491078)" x="56.24890625" y="233.491078125">0.4</text>
     </g>
    </g>
    <g id="ytick_4">
     <g id="line2d_27">
      <g>
       <use style="fill:none;stroke:#000000;stroke-width:0.5;" x="60.24890625" xlink:href="#m387c39e532" y="157.670484375"/>
      </g>
     </g>
     <g id="line2d_28">
      <g>
       <use style="fill:none;stroke:#000000;stroke-width:0.5;" x="546.6159375" xlink:href="#m48e31c533b" y="157.670484375"/>
      </g>
     </g>
     <g id="text_15">
      <text style="font-family:Verdana;font-size:15.0px;font-style:normal;font-weight:700;text-anchor:end;" transform="rotate(-0.000000, 56.248906, 161.859938)" x="56.24890625" y="161.8599375">0.6</text>
     </g>
    </g>
    <g id="ytick_5">
     <g id="line2d_29">
      <g>
       <use style="fill:none;stroke:#000000;stroke-width:0.5;" x="60.24890625" xlink:href="#m387c39e532" y="86.03934375"/>
      </g>
     </g>
     <g id="line2d_30">
      <g>
       <use style="fill:none;stroke:#000000;stroke-width:0.5;" x="546.6159375" xlink:href="#m48e31c533b" y="86.03934375"/>
      </g>
     </g>
     <g id="text_16">
      <text style="font-family:Verdana;font-size:15.0px;font-style:normal;font-weight:700;text-anchor:end;" transform="rotate(-0.000000, 56.248906, 90.228797)" x="56.24890625" y="90.228796875">0.8</text>
     </g>
    </g>
    <g id="ytick_6">
     <g id="line2d_31">
      <g>
       <use style="fill:none;stroke:#000000;stroke-width:0.5;" x="60.24890625" xlink:href="#m387c39e532" y="14.408203125"/>
      </g>
     </g>
     <g id="line2d_32">
      <g>
       <use style="fill:none;stroke:#000000;stroke-width:0.5;" x="546.6159375" xlink:href="#m48e31c533b" y="14.408203125"/>
      </g>
     </g>
     <g id="text_17">
      <text style="font-family:Verdana;font-size:15.0px;font-style:normal;font-weight:700;text-anchor:end;" transform="rotate(-0.000000, 56.248906, 18.597656)" x="56.24890625" y="18.59765625">1.0</text>
     </g>
    </g>
    <g id="text_18">
     <text style="font-family:Verdana;font-size:18.0px;font-style:normal;font-weight:700;text-anchor:middle;" transform="rotate(-90.000000, 20.877188, 193.486055)" x="20.8771875" y="193.486054688">Ratio Flow Selected</text>
    </g>
   </g>
   <g id="legend_1">
    <g id="patch_365">
     <path d="M 405.866719 70.241016 
L 539.115938 70.241016 
L 539.115938 21.908203 
L 405.866719 21.908203 
z
" style="fill:#ffffff;stroke:#000000;stroke-linejoin:miter;"/>
    </g>
    <g id="patch_366">
     <path d="M 411.866719 39.305859 
L 441.866719 39.305859 
L 441.866719 28.805859 
L 411.866719 28.805859 
z
" style="fill:#ff0000;"/>
    </g>
    <g id="text_19">
     <text style="font-family:Verdana;font-size:15.0px;font-style:normal;font-weight:700;text-anchor:start;" transform="rotate(-0.000000, 453.866719, 39.305859)" x="453.86671875" y="39.305859375">802.11ad</text>
    </g>
    <g id="patch_367">
     <path d="M 411.866719 61.222266 
L 441.866719 61.222266 
L 441.866719 50.722266 
L 411.866719 50.722266 
z
" style="fill:#0000ff;"/>
    </g>
    <g id="text_20">
     <text style="font-family:Verdana;font-size:15.0px;font-style:normal;font-weight:700;text-anchor:start;" transform="rotate(-0.000000, 453.866719, 61.222266)" x="453.86671875" y="61.222265625">802.11ac</text>
    </g>
   </g>
  </g>
 </g>
 <defs>
  <clipPath id="paa73a93d63">
   <rect height="358.155703125" width="486.36703125" x="60.24890625" y="14.408203125"/>
  </clipPath>
 </defs>
</svg>
