<?xml version="1.0" encoding="utf-8" standalone="no"?>
<!DOCTYPE svg PUBLIC "-//W3C//DTD SVG 1.1//EN"
  "http://www.w3.org/Graphics/SVG/1.1/DTD/svg11.dtd">
<!-- Created with matplotlib (http://matplotlib.org/) -->
<svg height="338.4pt" version="1.1" viewBox="0 0 453.6 338.4" width="453.6pt" xmlns="http://www.w3.org/2000/svg" xmlns:xlink="http://www.w3.org/1999/xlink">
 <defs>
  <style type="text/css">
*{stroke-linecap:butt;stroke-linejoin:round;}
  </style>
 </defs>
 <g id="figure_1">
  <g id="patch_1">
   <path d="M 0 338.4 
L 453.6 338.4 
L 453.6 0 
L 0 0 
z
" style="fill:#ffffff;"/>
  </g>
  <g id="axes_1">
   <g id="patch_2">
    <path d="M 78.251563 288.483906 
L 442.9 288.483906 
L 442.9 10.7 
L 78.251563 10.7 
z
" style="fill:#ffffff;"/>
   </g>
   <g id="matplotlib.axis_1">
    <g id="xtick_1">
     <g id="line2d_1">
      <defs>
       <path d="M 0 0 
L 0 3.5 
" id="mce78091941" style="stroke:#000000;stroke-width:0.8;"/>
      </defs>
      <g>
       <use style="fill-opacity:0;stroke:#000000;stroke-width:0.8;" x="78.251563" xlink:href="#mce78091941" y="288.483906"/>
      </g>
     </g>
     <g id="text_1">
      <text style="font-family:Verdana;font-size:15px;font-style:normal;font-weight:bold;text-anchor:middle;" transform="rotate(-0, 78.251563, 306.881562)" x="78.251563" y="306.881562">0</text>
     </g>
    </g>
    <g id="xtick_2">
     <g id="line2d_2">
      <g>
       <use style="fill-opacity:0;stroke:#000000;stroke-width:0.8;" x="159.284549" xlink:href="#mce78091941" y="288.483906"/>
      </g>
     </g>
     <g id="text_2">
      <text style="font-family:Verdana;font-size:15px;font-style:normal;font-weight:bold;text-anchor:middle;" transform="rotate(-0, 159.284549, 306.881562)" x="159.284549" y="306.881562">20</text>
     </g>
    </g>
    <g id="xtick_3">
     <g id="line2d_3">
      <g>
       <use style="fill-opacity:0;stroke:#000000;stroke-width:0.8;" x="240.317535" xlink:href="#mce78091941" y="288.483906"/>
      </g>
     </g>
     <g id="text_3">
      <text style="font-family:Verdana;font-size:15px;font-style:normal;font-weight:bold;text-anchor:middle;" transform="rotate(-0, 240.317535, 306.881562)" x="240.317535" y="306.881562">40</text>
     </g>
    </g>
    <g id="xtick_4">
     <g id="line2d_4">
      <g>
       <use style="fill-opacity:0;stroke:#000000;stroke-width:0.8;" x="321.350521" xlink:href="#mce78091941" y="288.483906"/>
      </g>
     </g>
     <g id="text_4">
      <text style="font-family:Verdana;font-size:15px;font-style:normal;font-weight:bold;text-anchor:middle;" transform="rotate(-0, 321.350521, 306.881562)" x="321.350521" y="306.881562">60</text>
     </g>
    </g>
    <g id="xtick_5">
     <g id="line2d_5">
      <g>
       <use style="fill-opacity:0;stroke:#000000;stroke-width:0.8;" x="402.383507" xlink:href="#mce78091941" y="288.483906"/>
      </g>
     </g>
     <g id="text_5">
      <text style="font-family:Verdana;font-size:15px;font-style:normal;font-weight:bold;text-anchor:middle;" transform="rotate(-0, 402.383507, 306.881562)" x="402.383507" y="306.881562">80</text>
     </g>
    </g>
    <g id="text_6">
     <text style="font-family:Verdana;font-size:18px;font-style:normal;font-weight:bold;text-anchor:middle;" transform="rotate(-0, 260.575781, 327.5775)" x="260.575781" y="327.5775">Time (sec)</text>
    </g>
   </g>
   <g id="matplotlib.axis_2">
    <g id="ytick_1">
     <g id="line2d_6">
      <path clip-path="url(#p2308e4fdac)" d="M 78.251563 288.483906 
L 442.9 288.483906 
" style="fill:none;stroke:#b0b0b0;stroke-linecap:square;stroke-width:0.8;"/>
     </g>
     <g id="line2d_7">
      <defs>
       <path d="M 0 0 
L -3.5 0 
" id="m8ee40b7d1d" style="stroke:#000000;stroke-width:0.8;"/>
      </defs>
      <g>
       <use style="fill-opacity:0;stroke:#000000;stroke-width:0.8;" x="78.251563" xlink:href="#m8ee40b7d1d" y="288.483906"/>
      </g>
     </g>
     <g id="text_7">
      <text style="font-family:Verdana;font-size:15px;font-style:normal;font-weight:bold;text-anchor:end;" transform="rotate(-0, 71.251563, 294.182734)" x="71.251563" y="294.182734">0</text>
     </g>
    </g>
    <g id="ytick_2">
     <g id="line2d_8">
      <path clip-path="url(#p2308e4fdac)" d="M 78.251563 255.149837 
L 442.9 255.149837 
" style="fill:none;stroke:#b0b0b0;stroke-linecap:square;stroke-width:0.8;"/>
     </g>
     <g id="line2d_9">
      <g>
       <use style="fill-opacity:0;stroke:#000000;stroke-width:0.8;" x="78.251563" xlink:href="#m8ee40b7d1d" y="255.149837"/>
      </g>
     </g>
     <g id="text_8">
      <text style="font-family:Verdana;font-size:15px;font-style:normal;font-weight:bold;text-anchor:end;" transform="rotate(-0, 71.251563, 260.848666)" x="71.251563" y="260.848666">300</text>
     </g>
    </g>
    <g id="ytick_3">
     <g id="line2d_10">
      <path clip-path="url(#p2308e4fdac)" d="M 78.251563 221.815769 
L 442.9 221.815769 
" style="fill:none;stroke:#b0b0b0;stroke-linecap:square;stroke-width:0.8;"/>
     </g>
     <g id="line2d_11">
      <g>
       <use style="fill-opacity:0;stroke:#000000;stroke-width:0.8;" x="78.251563" xlink:href="#m8ee40b7d1d" y="221.815769"/>
      </g>
     </g>
     <g id="text_9">
      <text style="font-family:Verdana;font-size:15px;font-style:normal;font-weight:bold;text-anchor:end;" transform="rotate(-0, 71.251563, 227.514597)" x="71.251563" y="227.514597">600</text>
     </g>
    </g>
    <g id="ytick_4">
     <g id="line2d_12">
      <path clip-path="url(#p2308e4fdac)" d="M 78.251563 188.4817 
L 442.9 188.4817 
" style="fill:none;stroke:#b0b0b0;stroke-linecap:square;stroke-width:0.8;"/>
     </g>
     <g id="line2d_13">
      <g>
       <use style="fill-opacity:0;stroke:#000000;stroke-width:0.8;" x="78.251563" xlink:href="#m8ee40b7d1d" y="188.4817"/>
      </g>
     </g>
     <g id="text_10">
      <text style="font-family:Verdana;font-size:15px;font-style:normal;font-weight:bold;text-anchor:end;" transform="rotate(-0, 71.251563, 194.180528)" x="71.251563" y="194.180528">900</text>
     </g>
    </g>
    <g id="ytick_5">
     <g id="line2d_14">
      <path clip-path="url(#p2308e4fdac)" d="M 78.251563 155.147631 
L 442.9 155.147631 
" style="fill:none;stroke:#b0b0b0;stroke-linecap:square;stroke-width:0.8;"/>
     </g>
     <g id="line2d_15">
      <g>
       <use style="fill-opacity:0;stroke:#000000;stroke-width:0.8;" x="78.251563" xlink:href="#m8ee40b7d1d" y="155.147631"/>
      </g>
     </g>
     <g id="text_11">
      <text style="font-family:Verdana;font-size:15px;font-style:normal;font-weight:bold;text-anchor:end;" transform="rotate(-0, 71.251563, 160.846459)" x="71.251563" y="160.846459">1200</text>
     </g>
    </g>
    <g id="ytick_6">
     <g id="line2d_16">
      <path clip-path="url(#p2308e4fdac)" d="M 78.251563 121.813562 
L 442.9 121.813562 
" style="fill:none;stroke:#b0b0b0;stroke-linecap:square;stroke-width:0.8;"/>
     </g>
     <g id="line2d_17">
      <g>
       <use style="fill-opacity:0;stroke:#000000;stroke-width:0.8;" x="78.251563" xlink:href="#m8ee40b7d1d" y="121.813562"/>
      </g>
     </g>
     <g id="text_12">
      <text style="font-family:Verdana;font-size:15px;font-style:normal;font-weight:bold;text-anchor:end;" transform="rotate(-0, 71.251563, 127.512391)" x="71.251563" y="127.512391">1500</text>
     </g>
    </g>
    <g id="ytick_7">
     <g id="line2d_18">
      <path clip-path="url(#p2308e4fdac)" d="M 78.251563 88.479494 
L 442.9 88.479494 
" style="fill:none;stroke:#b0b0b0;stroke-linecap:square;stroke-width:0.8;"/>
     </g>
     <g id="line2d_19">
      <g>
       <use style="fill-opacity:0;stroke:#000000;stroke-width:0.8;" x="78.251563" xlink:href="#m8ee40b7d1d" y="88.479494"/>
      </g>
     </g>
     <g id="text_13">
      <text style="font-family:Verdana;font-size:15px;font-style:normal;font-weight:bold;text-anchor:end;" transform="rotate(-0, 71.251563, 94.178322)" x="71.251563" y="94.178322">1800</text>
     </g>
    </g>
    <g id="ytick_8">
     <g id="line2d_20">
      <path clip-path="url(#p2308e4fdac)" d="M 78.251563 55.145425 
L 442.9 55.145425 
" style="fill:none;stroke:#b0b0b0;stroke-linecap:square;stroke-width:0.8;"/>
     </g>
     <g id="line2d_21">
      <g>
       <use style="fill-opacity:0;stroke:#000000;stroke-width:0.8;" x="78.251563" xlink:href="#m8ee40b7d1d" y="55.145425"/>
      </g>
     </g>
     <g id="text_14">
      <text style="font-family:Verdana;font-size:15px;font-style:normal;font-weight:bold;text-anchor:end;" transform="rotate(-0, 71.251563, 60.844253)" x="71.251563" y="60.844253">2100</text>
     </g>
    </g>
    <g id="ytick_9">
     <g id="line2d_22">
      <path clip-path="url(#p2308e4fdac)" d="M 78.251563 21.811356 
L 442.9 21.811356 
" style="fill:none;stroke:#b0b0b0;stroke-linecap:square;stroke-width:0.8;"/>
     </g>
     <g id="line2d_23">
      <g>
       <use style="fill-opacity:0;stroke:#000000;stroke-width:0.8;" x="78.251563" xlink:href="#m8ee40b7d1d" y="21.811356"/>
      </g>
     </g>
     <g id="text_15">
      <text style="font-family:Verdana;font-size:15px;font-style:normal;font-weight:bold;text-anchor:end;" transform="rotate(-0, 71.251563, 27.510184)" x="71.251563" y="27.510184">2400</text>
     </g>
    </g>
    <g id="text_16">
     <text style="font-family:Verdana;font-size:18px;font-style:normal;font-weight:bold;text-anchor:middle;" transform="rotate(-90, 20.877188, 149.591953)" x="20.877188" y="149.591953">Throughput (Mbps)</text>
    </g>
   </g>
   <g id="line2d_24">
    <path clip-path="url(#p2308e4fdac)" d="M 78.251563 72.502075 
L 78.656727 48.003401 
L 79.061892 56.000377 
L 79.467057 48.003401 
L 79.872222 52.573102 
L 80.277387 52.573102 
L 80.682552 45.71855 
L 81.087717 57.021093 
L 81.492882 53.994786 
L 81.898047 49.437779 
L 82.303212 49.717039 
L 82.708377 54.857952 
L 83.113542 42.862487 
L 83.518707 51.430676 
L 83.923872 57.142802 
L 84.329036 46.289763 
L 84.734201 54.339789 
L 85.139366 49.145826 
L 85.544531 58.85644 
L 85.949696 49.694354 
L 86.354861 62.306401 
L 86.760026 44.220704 
L 87.165191 53.499735 
L 87.570356 52.243068 
L 87.975521 50.618285 
L 88.380686 56.57159 
L 88.785851 55.429165 
L 89.191016 48.574613 
L 89.596181 49.145826 
L 90.001345 54.286739 
L 90.40651 74.659989 
L 90.811675 51.621081 
L 91.21684 47.68606 
L 91.622005 63.565771 
L 92.02717 59.605363 
L 92.432335 50.620987 
L 92.8375 64.807043 
L 93.242665 46.289763 
L 93.64783 54.616773 
L 94.052995 57.066641 
L 94.45816 49.260068 
L 95.26849 44.576125 
L 95.673655 48.603983 
L 96.078819 57.142802 
L 96.483984 53.053574 
L 96.889149 52.677246 
L 97.294314 51.367208 
L 97.699479 79.001205 
L 98.104644 59.503423 
L 98.509809 58.85644 
L 98.914974 45.464678 
L 99.320139 54.540612 
L 99.725304 54.032867 
L 100.130469 45.972423 
L 100.535634 54.286739 
L 100.940799 50.782982 
L 101.345964 57.105788 
L 101.751128 58.284694 
L 102.156293 67.551565 
L 102.561458 53.715527 
L 102.966623 58.85644 
L 103.371788 50.299949 
L 103.776953 59.211861 
L 104.182118 58.551793 
L 104.587283 55.429165 
L 104.992448 51.227579 
L 105.397613 42.608615 
L 105.802778 50.105954 
L 106.207943 53.910518 
L 106.613108 44.449189 
L 107.018273 47.432188 
L 107.423438 59.998865 
L 107.828602 52.573102 
L 108.233767 54.286739 
L 108.638932 54.705629 
L 109.044097 49.869362 
L 109.449262 129.686803 
L 109.854427 52.846174 
L 110.259592 53.144314 
L 110.664757 51.430676 
L 111.069922 42.291275 
L 111.475087 54.857952 
L 111.880252 57.142802 
L 112.285417 57.142802 
L 112.690582 46.860976 
L 113.095747 56.000377 
L 113.500911 55.898828 
L 113.906076 54.388288 
L 114.311241 49.717039 
L 114.716406 55.429165 
L 115.121571 46.657878 
L 115.526736 60.253449 
L 115.931901 42.456292 
L 116.337066 48.980809 
L 116.742231 73.339853 
L 117.147396 47.800303 
L 117.552561 58.285228 
L 117.957726 47.749528 
L 118.362891 52.525029 
L 118.768056 86.335126 
L 119.17322 81.461063 
L 119.578385 88.254849 
L 119.98355 86.579185 
L 120.388715 83.418582 
L 120.79388 87.41707 
L 121.199045 83.685184 
L 121.60421 99.691794 
L 122.009375 96.743534 
L 122.41454 116.548913 
L 122.819705 86.274645 
L 123.22487 73.204028 
L 123.630035 73.009535 
L 124.0352 84.85296 
L 124.440365 83.418582 
L 124.84553 96.834807 
L 125.250694 75.898203 
L 125.655859 89.448048 
L 126.061024 77.236935 
L 126.466189 83.989795 
L 126.871354 88.044569 
L 127.276519 71.001241 
L 127.681684 76.138955 
L 128.086849 79.219378 
L 128.492014 76.817903 
L 128.897179 78.848881 
L 129.302344 78.306967 
L 129.707509 75.943395 
L 130.112674 101.291048 
L 130.517839 81.121678 
L 130.923003 93.865853 
L 131.328168 84.561007 
L 131.733333 65.088755 
L 132.138498 83.911393 
L 132.543663 93.534539 
L 132.948828 68.594468 
L 133.353993 75.93255 
L 133.759158 87.539313 
L 134.164323 83.888352 
L 134.569488 88.014452 
L 134.974653 66.225989 
L 135.379818 76.564031 
L 135.784983 81.207298 
L 136.190148 78.617872 
L 136.595313 89.83803 
L 137.000477 86.896881 
L 137.405642 64.941552 
L 137.810807 100.202277 
L 138.215972 84.75326 
L 139.026302 74.675598 
L 139.431467 100.778147 
L 139.836632 64.593953 
L 140.241797 65.582277 
L 140.646962 78.993027 
L 141.052127 73.895136 
L 141.457292 76.065033 
L 141.862457 106.724661 
L 142.267622 58.325335 
L 142.672786 78.140101 
L 143.077951 74.704897 
L 143.483116 97.749174 
L 143.888281 78.170182 
L 144.293446 80.160519 
L 144.698611 93.408456 
L 145.103776 64.671929 
L 145.508941 84.812391 
L 145.914106 69.138267 
L 146.319271 74.086892 
L 147.129601 94.627043 
L 147.534766 95.756205 
L 147.939931 84.01248 
L 148.345095 77.884664 
L 148.75026 65.987584 
L 149.155425 80.440881 
L 149.56059 87.530104 
L 149.965755 66.853417 
L 150.37092 97.910848 
L 150.776085 80.079806 
L 151.18125 86.274645 
L 151.586415 65.281435 
L 151.99158 77.479607 
L 152.396745 78.53723 
L 152.80191 89.772358 
L 153.207075 80.091113 
L 153.61224 95.626425 
L 154.017405 73.136755 
L 154.422569 88.559496 
L 154.827734 88.316255 
L 155.232899 68.792766 
L 155.638064 88.542748 
L 156.043229 96.133636 
L 156.448394 79.74835 
L 157.258724 91.73393 
L 157.663889 86.848773 
L 158.069054 71.99433 
L 158.474219 77.623503 
L 158.879384 86.170252 
L 159.284549 88.96434 
L 159.689714 84.681543 
L 160.500043 73.227495 
L 160.905208 75.421606 
L 161.310373 72.565543 
L 161.715538 76.452882 
L 162.120703 81.463481 
L 162.525868 75.056122 
L 162.931033 87.439755 
L 163.336198 67.296733 
L 163.741363 81.116558 
L 164.146528 65.95217 
L 164.551693 88.318317 
L 164.956858 69.70948 
L 165.362023 91.773255 
L 165.767188 91.964086 
L 166.172352 95.985259 
L 166.577517 61.572838 
L 166.982682 68.567054 
L 167.387847 93.321236 
L 167.793012 64.301076 
L 168.198177 100.989032 
L 168.603342 82.682566 
L 169.008507 70.581214 
L 169.413672 91.815318 
L 169.818837 80.562519 
L 170.224002 64.516476 
L 170.629167 91.415559 
L 171.034332 70.519418 
L 171.439497 94.81158 
L 171.844661 81.533741 
L 172.249826 72.692479 
L 172.654991 91.280267 
L 173.060156 91.266009 
L 173.465321 63.432399 
L 174.275651 90.273133 
L 174.680816 74.27918 
L 175.085981 77.767826 
L 175.491146 84.847022 
L 175.896311 72.994637 
L 176.301476 86.744309 
L 176.706641 69.688217 
L 177.111806 84.142118 
L 177.51697 77.122123 
L 177.922135 80.02096 
L 178.3273 74.723457 
L 178.732465 75.548542 
L 179.13763 73.707968 
L 179.542795 102.327977 
L 179.94796 165.064117 
L 180.353125 161.103496 
L 180.75829 134.297393 
L 181.163455 136.584484 
L 181.56862 134.015325 
L 181.973785 145.913365 
L 182.37895 147.676462 
L 182.784115 124.811958 
L 183.18928 133.738981 
L 183.999609 157.504945 
L 184.404774 140.479859 
L 184.809939 132.841575 
L 185.215104 139.737158 
L 185.620269 112.550425 
L 186.025434 140.201559 
L 186.430599 136.541354 
L 186.835764 149.730552 
L 187.240929 133.55103 
L 187.646094 131.677709 
L 188.456424 126.802295 
L 188.861589 133.675691 
L 189.266753 112.092424 
L 189.671918 139.638596 
L 190.077083 133.743959 
L 190.482248 185.659593 
L 190.887413 160.362857 
L 191.292578 152.196811 
L 191.697743 137.112567 
L 192.102908 132.693589 
L 192.508073 122.765548 
L 192.913238 153.813842 
L 193.318403 135.810636 
L 193.723568 149.039977 
L 194.128733 168.394217 
L 194.533898 140.623115 
L 194.939063 144.872276 
L 195.344227 130.23309 
L 196.154557 167.665241 
L 196.559722 88.66076 
L 197.370052 145.680756 
L 197.775217 140.515842 
L 198.180382 155.492919 
L 198.585547 129.063109 
L 198.990712 131.672873 
L 199.395877 149.581108 
L 199.801042 128.284816 
L 200.206207 150.806202 
L 200.611372 112.435791 
L 201.016536 135.138052 
L 201.421701 149.53549 
L 201.826866 96.782646 
L 202.232031 152.671701 
L 202.637196 149.037736 
L 203.447526 119.639968 
L 203.852691 156.686119 
L 204.257856 130.272451 
L 204.663021 143.154549 
L 205.068186 118.155064 
L 205.473351 147.470555 
L 205.878516 144.830284 
L 206.688845 125.639389 
L 207.09401 132.825681 
L 207.499175 130.258015 
L 207.90434 105.911523 
L 208.309505 146.251968 
L 208.71467 146.932126 
L 209.119835 142.74622 
L 209.525 141.695743 
L 209.930165 143.685121 
L 210.33533 113.756318 
L 210.740495 139.193359 
L 211.14566 150.250457 
L 211.550825 135.871579 
L 211.95599 130.422001 
L 212.361155 138.518109 
L 212.766319 108.595386 
L 213.171484 141.024617 
L 213.576649 155.090137 
L 213.981814 102.56688 
L 214.386979 120.968317 
L 214.792144 105.697723 
L 215.197309 142.754398 
L 215.602474 162.951003 
L 216.007639 145.16718 
L 216.412804 136.360088 
L 216.817969 122.956699 
L 217.223134 150.821669 
L 217.628299 129.330422 
L 218.033464 163.352292 
L 218.438628 147.394394 
L 218.843793 153.680292 
L 219.248958 124.217882 
L 219.654123 148.190216 
L 220.059288 159.157142 
L 220.464453 134.587747 
L 220.869618 129.585858 
L 221.274783 128.131711 
L 221.679948 123.403749 
L 222.085113 134.911487 
L 222.490278 116.37202 
L 222.895443 144.67764 
L 223.300608 139.046725 
L 223.705773 125.688315 
L 224.516102 137.213191 
L 224.921267 155.70871 
L 225.731597 137.728829 
L 226.136762 134.074953 
L 226.541927 153.621944 
L 226.947092 111.962465 
L 227.352257 150.448292 
L 227.757422 149.359415 
L 228.162587 129.014432 
L 228.567752 130.744426 
L 228.972917 156.098088 
L 229.378082 146.149175 
L 229.783247 159.804125 
L 230.593576 127.951405 
L 230.998741 147.937019 
L 231.403906 153.10652 
L 231.809071 130.495354 
L 232.214236 115.305721 
L 233.024566 157.105008 
L 233.429731 126.304293 
L 233.834896 171.956535 
L 234.645226 129.571138 
L 235.050391 129.48687 
L 235.455556 176.437203 
L 235.86072 133.685291 
L 236.265885 129.709381 
L 236.67105 112.531722 
L 237.076215 144.363322 
L 237.48138 114.743398 
L 237.886545 132.052011 
L 238.29171 132.542866 
L 238.696875 149.280764 
L 239.10204 146.210154 
L 239.507205 123.60386 
L 239.91237 138.578519 
L 240.317535 134.171133 
L 240.7227 54.151839 
L 241.127865 51.430676 
L 241.53303 46.289763 
L 241.938194 44.004913 
L 242.343359 50.694447 
L 242.748524 51.993284 
L 243.153689 48.092256 
L 243.558854 50.859464 
L 243.964019 48.003401 
L 244.369184 46.543635 
L 244.774349 55.746505 
L 245.179514 62.261031 
L 245.989844 43.230602 
L 246.395009 38.495884 
L 247.205339 60.354287 
L 247.610503 38.863999 
L 248.015668 53.144314 
L 248.420833 50.859464 
L 248.825998 65.620678 
L 249.231163 47.114848 
L 250.041493 59.427653 
L 250.446658 42.496257 
L 250.851823 46.632491 
L 251.256988 48.574613 
L 251.662153 44.719275 
L 252.067318 49.145826 
L 252.472483 43.604121 
L 252.877648 67.82542 
L 253.282813 52.573102 
L 253.687977 57.714015 
L 254.093142 38.532827 
L 254.498307 53.144314 
L 254.903472 49.717039 
L 255.308637 38.292787 
L 255.713802 45.21173 
L 256.118967 57.714015 
L 256.524132 57.714015 
L 256.929297 40.577637 
L 257.334462 48.71979 
L 257.739627 64.020039 
L 258.144792 49.671669 
L 258.549957 53.189684 
L 258.955122 52.573102 
L 259.360286 42.862487 
L 259.765451 43.598717 
L 260.170616 43.268683 
L 260.575781 38.941441 
L 260.980946 56.57159 
L 261.386111 47.889976 
L 261.791276 50.972889 
L 262.196441 40.886586 
L 262.601606 45.147338 
L 263.006771 61.509405 
L 263.411936 52.307211 
L 263.817101 45.737929 
L 264.222266 58.285228 
L 264.627431 45.71855 
L 265.032595 58.85644 
L 265.43776 49.717039 
L 265.842925 52.001889 
L 266.24809 49.767813 
L 266.653255 53.772986 
L 267.463585 73.136755 
L 267.86875 66.726481 
L 268.273915 37.340766 
L 268.67908 42.964036 
L 269.084245 44.855385 
L 269.48941 54.960674 
L 269.894575 42.921546 
L 270.29974 52.573102 
L 270.704905 67.995842 
L 271.110069 48.751222 
L 271.515234 49.739724 
L 271.920399 54.286739 
L 272.325564 45.101968 
L 272.730729 46.034966 
L 273.135894 44.59433 
L 273.541059 46.607103 
L 273.946224 40.831509 
L 274.351389 64.187758 
L 274.756554 45.789876 
L 275.161719 44.618153 
L 275.566884 49.123141 
L 275.972049 41.485497 
L 276.377214 52.001889 
L 276.782378 49.361617 
L 277.187543 52.35731 
L 277.592708 44.004913 
L 278.403038 54.857952 
L 278.808203 44.576125 
L 279.213368 54.857952 
L 279.618533 44.004913 
L 280.023698 53.639365 
L 280.428863 54.083642 
L 280.834028 79.009738 
L 281.239193 81.845356 
L 282.049523 56.167456 
L 282.454687 67.118809 
L 282.859852 63.223825 
L 283.265017 64.293076 
L 283.670182 56.763096 
L 284.075347 71.99433 
L 284.480512 78.836863 
L 284.885677 57.074356 
L 285.290842 65.698333 
L 285.696007 61.510188 
L 286.101172 62.283716 
L 286.506337 79.968622 
L 286.911502 66.01962 
L 287.316667 66.332978 
L 287.721832 50.078647 
L 288.126997 70.4365 
L 288.532161 65.422025 
L 288.937326 56.845658 
L 289.747656 63.059448 
L 290.152821 60.887276 
L 290.557986 63.51873 
L 290.963151 58.85644 
L 291.368316 75.891269 
L 291.773481 58.238827 
L 292.178646 76.849157 
L 292.583811 58.041524 
L 292.988976 69.760894 
L 293.394141 48.53703 
L 293.799306 75.959858 
L 294.20447 66.155979 
L 294.609635 80.318745 
L 295.0148 55.140376 
L 295.419965 50.745648 
L 296.230295 75.421606 
L 296.63546 61.578634 
L 297.040625 58.613057 
L 297.44579 74.02641 
L 297.850955 76.774133 
L 298.25612 58.40395 
L 298.661285 66.20622 
L 299.06645 85.734295 
L 299.471615 62.394936 
L 299.87678 64.298765 
L 300.281944 41.224478 
L 300.687109 70.394117 
L 301.092274 44.843082 
L 301.497439 66.385033 
L 301.902604 58.094823 
L 302.307769 53.284655 
L 302.712934 81.904486 
L 303.118099 58.478796 
L 303.523264 62.370296 
L 303.928429 53.999906 
L 304.333594 55.885317 
L 304.738759 67.24603 
L 305.143924 66.853417 
L 305.549089 57.091032 
L 305.954253 64.568566 
L 306.359418 64.09364 
L 306.764583 53.354417 
L 307.169748 77.759079 
L 307.574913 58.664116 
L 307.980078 61.637906 
L 308.385243 75.313052 
L 308.790408 53.585355 
L 309.195573 65.926783 
L 309.600738 89.644533 
L 310.005903 65.947868 
L 310.411068 73.286981 
L 310.816233 69.42478 
L 311.221398 62.548255 
L 311.626562 65.897342 
L 312.031727 56.494504 
L 312.436892 60.454875 
L 312.842057 83.989795 
L 313.247222 58.680507 
L 313.652387 51.747732 
L 314.462717 68.499 
L 314.867882 60.570078 
L 315.273047 54.943821 
L 315.678212 59.553344 
L 316.083377 61.635879 
L 316.488542 53.144314 
L 316.893707 72.443158 
L 317.298872 65.776486 
L 317.704036 82.558723 
L 318.109201 66.394527 
L 318.919531 52.320687 
L 319.729861 71.853278 
L 320.135026 58.342473 
L 320.540191 48.561955 
L 320.945356 55.204164 
L 321.350521 90.23107 
L 321.755686 86.116242 
L 322.160851 90.273133 
L 322.566016 82.322985 
L 322.971181 89.249324 
L 323.376345 104.298581 
L 323.78151 94.954979 
L 324.186675 68.909818 
L 324.59184 102.157769 
L 324.997005 103.700558 
L 325.40217 76.164022 
L 325.807335 95.483951 
L 326.2125 79.498176 
L 326.617665 99.759031 
L 327.02283 96.520844 
L 327.427995 72.585988 
L 327.83316 108.836316 
L 328.238325 85.150531 
L 328.64349 86.280583 
L 329.048655 98.795952 
L 329.453819 82.114731 
L 329.858984 82.659561 
L 330.264149 101.984574 
L 330.669314 81.505864 
L 331.074479 88.895858 
L 331.479644 92.002558 
L 331.884809 96.556472 
L 332.289974 102.593974 
L 332.695139 73.029268 
L 333.100304 86.480659 
L 333.505469 85.222462 
L 333.910634 95.2944 
L 334.315799 100.88439 
L 334.720964 80.399671 
L 335.531293 92.012443 
L 335.936458 70.487275 
L 336.341623 111.973203 
L 336.746788 85.250765 
L 337.151953 95.52996 
L 337.557118 95.483951 
L 337.962283 81.517136 
L 338.367448 96.081759 
L 338.772613 87.074058 
L 339.177778 84.175648 
L 339.582943 112.30217 
L 339.988108 72.135809 
L 340.393273 114.610737 
L 340.798437 106.510967 
L 341.203602 79.765915 
L 341.608767 98.780983 
L 342.013932 77.694047 
L 342.419097 84.342549 
L 342.824262 85.947811 
L 343.229427 85.318464 
L 343.634592 79.413765 
L 344.039757 130.793885 
L 344.444922 80.349786 
L 344.850087 77.48014 
L 345.255252 70.911888 
L 345.660417 89.82619 
L 346.065582 85.52814 
L 346.470747 97.972717 
L 346.875911 93.751717 
L 347.281076 87.196159 
L 347.686241 93.102067 
L 348.091406 75.317959 
L 348.496571 81.164808 
L 348.901736 80.258868 
L 349.306901 92.533237 
L 349.712066 77.773409 
L 350.117231 100.451491 
L 350.522396 75.853402 
L 350.927561 102.809623 
L 351.332726 81.948647 
L 351.737891 77.138052 
L 352.143056 106.952577 
L 352.54822 83.848814 
L 352.953385 80.345519 
L 353.35855 83.672845 
L 353.763715 109.5249 
L 354.16888 78.053059 
L 354.574045 74.713608 
L 354.97921 84.525487 
L 355.384375 90.028257 
L 355.78954 79.671335 
L 356.194705 91.696774 
L 356.59987 122.517507 
L 357.005035 84.493735 
L 357.4102 107.794978 
L 357.815365 69.409277 
L 358.22053 99.15852 
L 358.625694 88.891485 
L 359.030859 103.699314 
L 359.436024 74.874927 
L 359.841189 102.115172 
L 360.246354 67.919893 
L 361.056684 104.738981 
L 361.461849 81.738723 
L 361.867014 99.466865 
L 362.272179 164.589475 
L 362.677344 128.763156 
L 363.082509 124.756667 
L 363.487674 122.166104 
L 363.892839 126.434393 
L 364.298003 113.649329 
L 364.703168 118.967633 
L 365.108333 149.825487 
L 365.513498 94.115031 
L 365.918663 128.673696 
L 366.323828 129.802823 
L 366.728993 133.897527 
L 367.134158 123.494417 
L 367.539323 107.583417 
L 367.944488 114.101143 
L 368.349653 144.496694 
L 368.754818 123.310484 
L 369.159983 131.629139 
L 369.565148 99.084528 
L 369.970312 140.137451 
L 370.375477 147.986051 
L 370.780642 132.480678 
L 371.185807 137.165937 
L 371.590972 131.302305 
L 371.996137 152.693177 
L 372.401302 113.820391 
L 372.806467 147.525561 
L 373.211632 148.147548 
L 373.616797 134.390373 
L 374.021962 127.515342 
L 374.427127 133.1624 
L 374.832292 118.170247 
L 375.237457 96.626482 
L 375.642622 123.613567 
L 376.047786 131.840984 
L 376.452951 152.986552 
L 376.858116 156.224526 
L 377.263281 102.365845 
L 377.668446 143.439391 
L 378.073611 150.833581 
L 378.478776 135.083189 
L 378.883941 151.278284 
L 379.289106 114.949482 
L 379.694271 143.049302 
L 380.099436 99.116955 
L 380.504601 100.160107 
L 381.314931 139.47045 
L 381.720095 113.937015 
L 382.12526 136.66253 
L 382.530425 140.584359 
L 382.93559 103.032206 
L 383.340755 113.587603 
L 383.74592 104.892371 
L 384.151085 150.920409 
L 384.55625 124.4005 
L 384.961415 135.563661 
L 385.36658 124.930111 
L 385.771745 99.413566 
L 386.17691 153.140974 
L 386.582075 130.408739 
L 386.98724 130.499443 
L 387.392405 119.811172 
L 387.797569 136.810729 
L 388.202734 113.505077 
L 388.607899 121.843039 
L 389.013064 116.175749 
L 389.418229 115.260849 
L 390.228559 132.811281 
L 390.633724 118.704907 
L 391.038889 128.003566 
L 391.444054 100.00885 
L 391.849219 117.335135 
L 392.254384 127.117075 
L 392.659549 132.902909 
L 393.469878 109.2951 
L 393.875043 138.989266 
L 394.280208 95.285546 
L 394.685373 140.769607 
L 395.090538 133.152835 
L 395.495703 103.613125 
L 395.900868 130.849673 
L 396.306033 133.414921 
L 396.711198 104.757684 
L 397.521528 135.931385 
L 397.926693 115.344051 
L 398.331858 151.877372 
L 398.737023 142.836675 
L 399.142187 116.676454 
L 399.547352 143.516441 
L 399.952517 122.237856 
L 400.357682 126.022864 
L 400.762847 154.583459 
L 401.168012 131.18536 
L 401.573177 141.602052 
L 401.978342 114.837124 
L 402.383507 122.100004 
L 402.788672 44.571254 
L 403.193837 57.714015 
L 403.599002 40.350787 
L 404.004167 52.573102 
L 404.409332 54.548861 
L 404.814497 42.418104 
L 405.219661 43.849816 
L 405.624826 49.624059 
L 406.029991 43.845727 
L 406.435156 48.31651 
L 406.840321 67.368841 
L 407.245486 109.123149 
L 407.650651 49.296763 
L 408.055816 41.89411 
L 408.460981 39.960663 
L 408.866146 48.27114 
L 409.271311 48.624072 
L 409.676476 46.32091 
L 410.081641 59.998865 
L 410.486806 48.574613 
L 410.89197 48.853553 
L 411.297135 53.144314 
L 411.7023 40.577637 
L 412.107465 43.290479 
L 412.51263 47.493914 
L 412.917795 45.71855 
L 413.32296 57.655596 
L 413.728125 42.862487 
L 414.13329 60.666365 
L 414.538455 52.573102 
L 414.94362 63.426141 
L 415.348785 39.983739 
L 415.75395 45.779316 
L 416.159115 62.854928 
L 416.56428 48.092256 
L 416.969444 53.346096 
L 417.374609 41.981259 
L 417.779774 41.488519 
L 418.184939 54.880637 
L 418.590104 41.432767 
L 418.995269 62.142379 
L 419.400434 44.576125 
L 419.805599 66.859888 
L 420.210764 37.239217 
L 420.615929 45.156902 
L 421.021094 49.145826 
L 421.426259 48.574613 
L 421.831424 37.214861 
L 422.236589 36.665871 
L 422.641753 49.139675 
L 423.046918 33.151873 
L 423.452083 54.857952 
L 423.857248 39.367157 
L 424.262413 71.724351 
L 424.667578 37.98814 
L 425.072743 50.288251 
L 425.477908 35.041835 
L 425.883073 53.22268 
L 426.288238 43.482768 
L 426.693403 39.412527 
L 427.098568 47.04082 
L 427.908898 46.860976 
L 428.314062 38.737063 
L 428.719227 44.703061 
L 429.124392 38.292787 
L 429.529557 49.145826 
L 429.934722 38.68252 
L 430.339887 56.218942 
L 430.745052 47.611428 
L 431.150217 34.888196 
L 431.555382 54.857952 
L 431.960547 42.954294 
L 432.365712 42.747285 
L 432.770877 45.693163 
L 433.176042 45.124653 
L 433.581207 45.598014 
L 433.986372 59.568065 
L 434.391536 43.845762 
L 434.796701 43.34296 
L 435.201866 58.228693 
L 435.607031 40.006424 
L 436.012196 66.663012 
L 436.417361 63.616545 
L 436.822526 38.821652 
L 437.227691 46.289763 
L 437.632856 42.195664 
L 438.038021 40.102604 
L 438.443186 45.182787 
L 438.848351 42.856549 
L 439.658681 45.668487 
L 440.063845 43.152912 
L 440.46901 43.365254 
L 440.874175 47.41953 
L 441.27934 40.969219 
L 441.684505 58.406795 
L 442.08967 40.772806 
L 442.494835 42.862487 
L 442.494835 42.862487 
" style="fill:none;stroke:#000000;stroke-linecap:square;stroke-width:1.5;"/>
   </g>
   <g id="line2d_25">
    <path clip-path="url(#p2308e4fdac)" d="M 118.768056 288.483906 
L 118.768056 10.7 
" style="fill:none;stroke:#000000;stroke-linecap:square;stroke-width:1.5;"/>
   </g>
   <g id="line2d_26">
    <path clip-path="url(#p2308e4fdac)" d="M 179.542795 288.483906 
L 179.542795 10.7 
" style="fill:none;stroke:#000000;stroke-linecap:square;stroke-width:1.5;"/>
   </g>
   <g id="line2d_27">
    <path clip-path="url(#p2308e4fdac)" d="M 240.317535 288.483906 
L 240.317535 10.7 
" style="fill:none;stroke:#000000;stroke-linecap:square;stroke-width:1.5;"/>
   </g>
   <g id="line2d_28">
    <path clip-path="url(#p2308e4fdac)" d="M 280.834028 288.483906 
L 280.834028 10.7 
" style="fill:none;stroke:#000000;stroke-linecap:square;stroke-width:1.5;"/>
   </g>
   <g id="line2d_29">
    <path clip-path="url(#p2308e4fdac)" d="M 321.350521 288.483906 
L 321.350521 10.7 
" style="fill:none;stroke:#000000;stroke-linecap:square;stroke-width:1.5;"/>
   </g>
   <g id="line2d_30">
    <path clip-path="url(#p2308e4fdac)" d="M 361.867014 288.483906 
L 361.867014 10.7 
" style="fill:none;stroke:#000000;stroke-linecap:square;stroke-width:1.5;"/>
   </g>
   <g id="line2d_31">
    <path clip-path="url(#p2308e4fdac)" d="M 402.383507 288.483906 
L 402.383507 10.7 
" style="fill:none;stroke:#000000;stroke-linecap:square;stroke-width:1.5;"/>
   </g>
   <g id="patch_3">
    <path d="M 78.251563 288.483906 
L 78.251563 10.7 
" style="fill:none;stroke:#000000;stroke-linecap:square;stroke-linejoin:miter;stroke-width:0.8;"/>
   </g>
   <g id="patch_4">
    <path d="M 442.9 288.483906 
L 442.9 10.7 
" style="fill:none;stroke:#000000;stroke-linecap:square;stroke-linejoin:miter;stroke-width:0.8;"/>
   </g>
   <g id="patch_5">
    <path d="M 78.251563 288.483906 
L 442.9 288.483906 
" style="fill:none;stroke:#000000;stroke-linecap:square;stroke-linejoin:miter;stroke-width:0.8;"/>
   </g>
   <g id="patch_6">
    <path d="M 78.251563 10.7 
L 442.9 10.7 
" style="fill:none;stroke:#000000;stroke-linecap:square;stroke-linejoin:miter;stroke-width:0.8;"/>
   </g>
  </g>
 </g>
 <defs>
  <clipPath id="p2308e4fdac">
   <rect height="277.783906" width="364.648438" x="78.251563" y="10.7"/>
  </clipPath>
 </defs>
</svg>
