<?xml version="1.0" encoding="utf-8" standalone="no"?>
<!DOCTYPE svg PUBLIC "-//W3C//DTD SVG 1.1//EN"
  "http://www.w3.org/Graphics/SVG/1.1/DTD/svg11.dtd">
<!-- Created with matplotlib (http://matplotlib.org/) -->
<svg height="420pt" version="1.1" viewBox="0 0 564 420" width="564pt" xmlns="http://www.w3.org/2000/svg" xmlns:xlink="http://www.w3.org/1999/xlink">
 <defs>
  <style type="text/css">
*{stroke-linecap:butt;stroke-linejoin:round;stroke-miterlimit:100000;}
  </style>
 </defs>
 <g id="figure_1">
  <g id="patch_1">
   <path d="M 0 420.48 
L 564.48 420.48 
L 564.48 0 
L 0 0 
z
" style="fill:#ffffff;"/>
  </g>
  <g id="axes_1">
   <g id="patch_2">
    <path d="M 76.251563 372.563906 
L 546.615938 372.563906 
L 546.615938 14.408203 
L 76.251563 14.408203 
z
" style="fill:#ffffff;"/>
   </g>
   <g id="line2d_1">
    <path clip-path="url(#pdd4ef55287)" d="M 76.251563 165.86772 
L 76.77419 109.207065 
L 77.296817 119.721643 
L 77.819444 127.415292 
L 78.342071 146.294204 
L 78.864698 152.44384 
L 79.387325 152.295174 
L 79.909952 107.000553 
L 80.432579 97.053675 
L 80.955206 101.23426 
L 81.477833 101.388656 
L 82.00046 100.070752 
L 82.523088 95.343369 
L 83.045715 113.379572 
L 83.568342 101.637031 
L 84.090969 96.735879 
L 84.613596 110.406975 
L 85.136223 97.966133 
L 85.65885 100.378343 
L 86.181477 123.611501 
L 86.704104 88.217749 
L 87.226731 94.605282 
L 87.749358 111.757952 
L 88.271985 91.374104 
L 88.794613 111.841126 
L 89.31724 105.003722 
L 89.839867 88.036938 
L 90.362494 108.506581 
L 90.885121 89.768638 
L 91.407748 99.383311 
L 91.930375 123.737244 
L 92.453002 108.190148 
L 92.975629 102.032108 
L 93.498256 114.26496 
L 94.020883 152.560141 
L 94.54351 98.332175 
L 95.066138 93.48347 
L 95.588765 91.029947 
L 96.111392 100.476907 
L 96.634019 101.694391 
L 97.156646 92.403464 
L 97.679273 94.246062 
L 98.724527 103.652473 
L 99.247154 102.770959 
L 99.769781 102.161235 
L 100.292408 96.159064 
L 100.815035 94.441008 
L 101.337663 95.336656 
L 101.86029 116.644806 
L 102.382917 95.546502 
L 102.905544 117.186747 
L 103.428171 117.983722 
L 103.950798 102.670703 
L 104.473425 139.593077 
L 105.518679 111.220705 
L 106.041306 130.697717 
L 106.563933 100.812987 
L 107.08656 106.677299 
L 107.609188 124.684412 
L 108.131815 132.293413 
L 108.654442 104.065996 
L 109.177069 109.69372 
L 109.699696 100.223674 
L 110.222323 94.274715 
L 110.74495 102.49475 
L 111.267577 98.227335 
L 111.790204 91.382508 
L 112.312831 94.49613 
L 112.835458 107.02604 
L 113.358085 89.357571 
L 113.880713 97.849995 
L 114.40334 91.545036 
L 114.925967 109.449274 
L 115.448594 100.817135 
L 115.971221 107.605147 
L 116.493848 101.96427 
L 117.016475 100.568868 
L 117.539102 97.35237 
L 118.061729 91.319691 
L 118.584356 94.205239 
L 119.62961 84.660751 
L 120.152238 97.375729 
L 120.674865 97.425721 
L 121.197492 97.341073 
L 121.720119 97.116711 
L 122.242746 96.545954 
L 122.765373 101.428278 
L 123.288 92.109408 
L 123.810627 123.774083 
L 124.333254 97.059679 
L 124.855881 88.808153 
L 125.378508 106.90308 
L 125.901135 96.304291 
L 126.423763 93.413122 
L 126.94639 97.402253 
L 127.469017 103.615142 
L 127.991644 94.951022 
L 128.514271 92.604631 
L 129.036898 91.161039 
L 129.559525 96.305055 
L 130.604779 103.970433 
L 131.127406 97.455192 
L 131.650033 88.455264 
L 132.17266 94.542083 
L 132.695288 99.216035 
L 133.217915 97.43287 
L 133.740542 103.836449 
L 134.263169 97.336762 
L 134.785796 84.478085 
L 135.308423 103.389743 
L 135.83105 102.847475 
L 136.353677 107.174542 
L 136.876304 96.507532 
L 137.398931 94.338678 
L 137.921558 122.435276 
L 138.444185 94.240059 
L 138.966813 105.359286 
L 139.48944 98.900695 
L 140.012067 94.37055 
L 140.534694 84.199692 
L 141.057321 93.161744 
L 141.579948 94.092812 
L 142.102575 90.582532 
L 142.625202 98.660232 
L 143.147829 89.797509 
L 143.670456 97.461468 
L 144.193083 113.474807 
L 144.71571 116.822397 
L 145.238338 94.305004 
L 146.283592 86.78458 
L 146.806219 94.277116 
L 147.328846 97.522102 
L 147.851473 94.929082 
L 148.3741 93.155795 
L 148.896727 96.188317 
L 149.419354 89.6519 
L 149.941981 99.673983 
L 150.987235 89.833093 
L 151.509863 92.729992 
L 152.03249 84.956772 
L 152.555117 93.993429 
L 153.077744 100.08123 
L 153.600371 103.252866 
L 154.122998 105.66322 
L 154.645625 86.87676 
L 155.168252 102.492021 
L 155.690879 97.901843 
L 156.213506 101.13515 
L 156.736133 94.304459 
L 157.25876 94.177133 
L 157.781388 93.127361 
L 158.304015 87.757127 
L 158.826642 93.507866 
L 159.349269 96.09843 
L 159.871896 100.700778 
L 160.394523 91.352764 
L 160.91715 89.045341 
L 161.439777 89.26692 
L 161.962404 92.420437 
L 162.485031 91.136861 
L 163.007658 109.72341 
L 163.530285 134.804296 
L 164.052913 95.547593 
L 164.57554 116.177307 
L 165.098167 105.259793 
L 165.620794 106.273763 
L 166.143421 89.288587 
L 166.666048 97.482698 
L 167.188675 92.330714 
L 167.711302 90.10963 
L 168.233929 97.261447 
L 168.756556 101.176245 
L 169.279183 86.252573 
L 169.80181 125.002264 
L 170.324438 91.415472 
L 170.847065 94.592129 
L 171.369692 92.858192 
L 171.892319 90.456898 
L 172.414946 89.364066 
L 172.937573 100.472323 
L 173.4602 119.163111 
L 173.982827 95.90141 
L 174.505454 92.720987 
L 175.028081 100.898344 
L 175.550708 101.164784 
L 176.073335 98.212708 
L 176.595963 97.294138 
L 177.11859 96.698822 
L 177.641217 96.73577 
L 178.163844 91.379234 
L 178.686471 100.523133 
L 179.209098 96.228867 
L 179.731725 89.518625 
L 180.254352 91.000858 
L 180.776979 96.18335 
L 181.299606 97.763983 
L 181.822233 98.470089 
L 182.34486 94.590656 
L 182.867488 98.957781 
L 183.390115 86.118697 
L 183.912742 91.877459 
L 184.435369 89.702929 
L 184.957996 93.092869 
L 185.480623 116.422026 
L 186.00325 91.29797 
L 186.525877 90.240394 
L 187.048504 91.511035 
L 187.571131 93.893391 
L 188.093758 90.199353 
L 188.616385 107.956945 
L 189.139013 112.377882 
L 189.66164 119.966417 
L 190.184267 109.760194 
L 190.706894 116.925327 
L 191.229521 96.065466 
L 191.752148 91.095438 
L 192.274775 89.676023 
L 192.797402 95.854693 
L 193.320029 82.581129 
L 193.842656 92.381033 
L 194.365283 95.355813 
L 195.410538 88.19439 
L 195.933165 96.097939 
L 196.455792 93.888807 
L 196.978419 94.870577 
L 197.501046 89.977501 
L 198.023673 98.32197 
L 199.068927 87.343549 
L 199.591554 97.865222 
L 200.114181 91.118797 
L 200.636808 147.19209 
L 201.159435 160.879341 
L 201.682063 130.228799 
L 202.20469 138.182393 
L 203.249944 86.60317 
L 203.772571 90.07934 
L 204.295198 90.877679 
L 204.817825 92.65173 
L 205.340452 92.791991 
L 205.863079 89.91392 
L 206.385706 95.853929 
L 206.908333 97.86162 
L 207.43096 89.434742 
L 207.953588 90.014122 
L 208.476215 87.477588 
L 208.998842 90.85694 
L 209.521469 90.944644 
L 210.044096 104.172419 
L 210.566723 90.528283 
L 211.08935 93.906872 
L 212.134604 97.39554 
L 212.657231 93.559167 
L 213.179858 97.450116 
L 213.702485 95.740793 
L 214.225113 88.745173 
L 214.74774 90.749698 
L 215.270367 90.18691 
L 215.792994 96.04822 
L 216.315621 94.134017 
L 216.838248 88.993821 
L 217.360875 148.401933 
L 217.883502 92.872436 
L 218.406129 85.124976 
L 218.928756 90.975971 
L 219.451383 110.33368 
L 219.97401 92.887881 
L 220.496638 89.622211 
L 221.019265 92.189198 
L 221.541892 90.361335 
L 222.064519 89.347474 
L 222.587146 112.372916 
L 223.109773 91.363516 
L 223.6324 82.040934 
L 224.155027 100.675018 
L 224.677654 92.284706 
L 225.200281 96.130684 
L 225.722908 124.127791 
L 226.245535 123.463436 
L 226.768163 103.919895 
L 227.29079 122.712632 
L 227.813417 119.849733 
L 228.336044 114.444297 
L 228.858671 91.244704 
L 229.381298 84.561914 
L 229.903925 96.55867 
L 230.426552 112.747581 
L 230.949179 142.940939 
L 231.471806 128.114903 
L 231.994433 169.720616 
L 232.51706 202.311775 
L 233.039688 158.395965 
L 233.562315 158.834047 
L 234.084942 161.766039 
L 234.607569 170.887562 
L 235.130196 175.593387 
L 235.652823 165.224855 
L 236.17545 160.667586 
L 237.220704 130.581906 
L 237.743331 161.014963 
L 238.265958 169.132176 
L 238.788585 189.963331 
L 239.311213 164.64733 
L 239.83384 184.03904 
L 240.356467 184.405082 
L 240.879094 189.036192 
L 241.401721 182.221928 
L 241.924348 185.958318 
L 242.446975 152.084947 
L 242.969602 169.167323 
L 243.492229 195.466676 
L 244.014856 241.98342 
L 244.537483 130.311864 
L 245.06011 179.73173 
L 245.582738 170.741735 
L 246.105365 139.331603 
L 246.627992 185.763699 
L 247.150619 182.644948 
L 247.673246 160.817561 
L 248.195873 156.572522 
L 248.7185 182.580493 
L 249.241127 172.809787 
L 249.763754 206.165831 
L 250.286381 151.925094 
L 250.809008 162.854396 
L 251.331635 207.330649 
L 251.854263 165.422475 
L 252.37689 158.189776 
L 252.899517 181.884048 
L 253.422144 177.520742 
L 253.944771 188.874756 
L 254.467398 188.362341 
L 254.990025 199.892635 
L 255.512652 164.027291 
L 256.035279 141.097249 
L 256.557906 157.023485 
L 257.080533 185.410264 
L 257.60316 178.936337 
L 258.125788 196.347589 
L 258.648415 195.087918 
L 259.171042 173.68306 
L 259.693669 164.190637 
L 260.216296 219.130494 
L 260.738923 136.915245 
L 261.26155 146.688516 
L 261.784177 193.140097 
L 262.306804 191.044756 
L 262.829431 156.199877 
L 263.352058 197.232868 
L 263.874685 192.640343 
L 264.397312 197.416571 
L 264.91994 205.373986 
L 265.442567 157.467025 
L 265.965194 151.906374 
L 266.487821 207.438436 
L 267.010448 157.481924 
L 267.533075 174.130584 
L 268.055702 122.678904 
L 268.578329 165.357857 
L 269.100956 160.132249 
L 269.623583 189.17285 
L 270.14621 144.586954 
L 270.668838 144.401723 
L 271.191465 165.718332 
L 271.714092 218.359061 
L 272.236719 138.111663 
L 272.759346 199.467814 
L 273.281973 188.475477 
L 273.8046 155.845841 
L 274.327227 159.124883 
L 274.849854 204.450122 
L 275.372481 166.548216 
L 275.895108 166.959338 
L 276.417735 178.721035 
L 276.940363 147.845421 
L 277.46299 164.882662 
L 277.985617 190.99089 
L 278.508244 153.983268 
L 279.030871 199.99109 
L 279.553498 159.800535 
L 280.076125 174.037313 
L 280.598752 171.220204 
L 281.121379 147.560424 
L 281.644006 221.775853 
L 282.166633 226.119074 
L 282.68926 142.795057 
L 283.211888 181.943426 
L 283.734515 199.681425 
L 284.257142 179.521175 
L 284.779769 145.637435 
L 285.302396 167.588491 
L 285.825023 155.256037 
L 286.34765 190.212361 
L 286.870277 211.555767 
L 287.392904 169.127537 
L 288.438158 194.80958 
L 288.960785 176.358762 
L 289.483413 213.00318 
L 290.00604 197.069958 
L 290.528667 167.958845 
L 291.051294 154.102844 
L 291.573921 207.632946 
L 292.096548 168.437641 
L 292.619175 230.171677 
L 293.141802 178.157318 
L 293.664429 153.082981 
L 294.187056 206.043689 
L 294.709683 175.438718 
L 295.23231 185.349139 
L 295.754938 172.643549 
L 296.277565 142.185551 
L 296.800192 172.844552 
L 297.322819 193.871144 
L 297.845446 188.785251 
L 298.368073 176.631206 
L 298.8907 200.305721 
L 299.413327 142.041961 
L 299.935954 189.294937 
L 300.458581 120.28978 
L 300.981208 153.652428 
L 301.503835 156.421019 
L 302.026463 198.24329 
L 302.54909 161.674297 
L 303.071717 177.098705 
L 303.594344 166.697809 
L 304.116971 151.636877 
L 304.639598 198.649773 
L 305.162225 187.404967 
L 305.684852 210.69723 
L 306.207479 140.964301 
L 306.730106 167.713907 
L 307.252733 156.863904 
L 307.77536 196.881398 
L 308.297988 187.93108 
L 308.820615 154.484004 
L 309.343242 163.576602 
L 309.865869 204.672137 
L 310.388496 189.004101 
L 310.911123 209.578748 
L 311.43375 174.500064 
L 311.956377 181.899929 
L 312.479004 148.016462 
L 313.524258 165.005186 
L 314.046885 170.013635 
L 314.569513 192.270918 
L 315.09214 155.674527 
L 315.614767 174.834397 
L 316.137394 162.171321 
L 316.660021 158.710541 
L 317.182648 135.605201 
L 317.705275 141.473333 
L 318.227902 181.074466 
L 318.750529 140.438788 
L 319.273156 193.733012 
L 319.795783 202.798649 
L 320.31841 116.363521 
L 320.841038 128.899107 
L 321.363665 161.41446 
L 321.886292 154.988451 
L 322.408919 143.27227 
L 322.931546 150.424578 
L 323.454173 165.43601 
L 323.9768 193.288926 
L 324.499427 172.963419 
L 325.022054 166.318778 
L 325.544681 147.076662 
L 326.067308 180.614607 
L 326.589935 170.562725 
L 327.112563 139.575776 
L 327.63519 141.183643 
L 328.157817 178.059736 
L 328.680444 163.949902 
L 329.203071 179.546989 
L 329.725698 174.333825 
L 330.248325 175.090032 
L 330.770952 149.423925 
L 331.293579 143.558631 
L 331.816206 185.149663 
L 332.338833 163.317802 
L 332.86146 126.290041 
L 333.384088 167.699936 
L 333.906715 146.182705 
L 334.429342 151.366016 
L 334.951969 182.867345 
L 335.474596 149.655001 
L 335.997223 160.623052 
L 336.51985 195.534132 
L 337.042477 163.141575 
L 337.565104 182.040244 
L 338.087731 187.592763 
L 338.610358 185.983859 
L 339.132985 146.57598 
L 339.655613 170.533691 
L 340.17824 147.638468 
L 340.700867 166.290617 
L 341.223494 138.508377 
L 342.268748 171.889088 
L 342.791375 161.150202 
L 343.314002 157.008749 
L 343.836629 165.420237 
L 344.359256 119.234551 
L 345.40451 178.636605 
L 345.927138 153.877336 
L 346.449765 151.74794 
L 346.972392 150.404713 
L 347.495019 141.114877 
L 348.017646 137.760356 
L 348.540273 140.230198 
L 349.0629 132.249916 
L 349.585527 176.858461 
L 350.108154 193.594552 
L 350.630781 179.027643 
L 351.153408 194.177534 
L 351.676035 157.918751 
L 352.198663 149.720219 
L 352.72129 197.554758 
L 353.243917 211.000892 
L 353.766544 192.059544 
L 354.289171 151.901844 
L 354.811798 165.952136 
L 355.334425 122.18892 
L 355.857052 150.495964 
L 356.379679 167.859352 
L 356.902306 154.112395 
L 357.424933 156.848677 
L 357.94756 196.149696 
L 358.470188 165.17721 
L 358.992815 180.396739 
L 359.515442 142.596454 
L 360.038069 159.556689 
L 360.560696 134.397704 
L 361.083323 215.430616 
L 361.60595 140.274623 
L 362.128577 161.130173 
L 363.173831 119.131785 
L 363.696458 148.269368 
L 364.219085 160.09923 
L 364.741713 140.41532 
L 365.26434 174.629355 
L 365.786967 178.454758 
L 366.309594 144.882702 
L 366.832221 158.20664 
L 367.354848 181.736747 
L 367.877475 128.86778 
L 368.400102 156.813312 
L 368.922729 178.291739 
L 369.445356 189.533817 
L 369.967983 123.448209 
L 370.49061 167.011185 
L 371.013238 229.830358 
L 372.058492 126.836185 
L 372.581119 162.685592 
L 373.103746 151.134068 
L 373.626373 144.760343 
L 374.149 171.083763 
L 374.671627 178.702915 
L 375.194254 180.864948 
L 375.716881 143.514916 
L 376.239508 190.694869 
L 376.762135 163.439288 
L 377.284763 158.622455 
L 377.80739 140.644049 
L 378.330017 198.736331 
L 378.852644 134.853196 
L 379.375271 135.05169 
L 379.897898 176.045277 
L 380.943152 126.164189 
L 381.465779 137.859085 
L 381.988406 204.996156 
L 383.03366 137.75599 
L 383.556288 140.059648 
L 384.078915 149.143241 
L 384.601542 140.270748 
L 385.124169 119.598792 
L 385.646796 129.538411 
L 386.169423 174.852189 
L 386.69205 162.489664 
L 387.214677 173.186635 
L 387.737304 93.352324 
L 388.259931 93.031635 
L 388.782558 98.705476 
L 389.305185 89.038083 
L 389.827813 94.363455 
L 390.35044 91.51431 
L 390.873067 89.682299 
L 391.395694 93.749092 
L 391.918321 92.837071 
L 392.440948 91.474196 
L 392.963575 92.643926 
L 393.486202 93.297748 
L 394.008829 86.011728 
L 394.531456 88.838552 
L 395.054083 95.591745 
L 395.57671 88.912503 
L 396.099338 89.35959 
L 396.621965 84.540684 
L 397.667219 94.935468 
L 398.189846 98.647079 
L 398.712473 85.151827 
L 399.2351 88.137358 
L 399.757727 91.946607 
L 400.280354 114.034103 
L 400.802981 89.986561 
L 401.325608 122.133853 
L 401.848235 91.685351 
L 402.370863 98.291734 
L 402.89349 90.444836 
L 403.416117 92.698993 
L 403.938744 88.075142 
L 404.461371 92.707453 
L 404.983998 94.707339 
L 405.506625 94.72917 
L 406.029252 85.78431 
L 406.551879 95.257139 
L 407.074506 93.420271 
L 407.597133 92.206935 
L 408.11976 93.291744 
L 408.642388 112.526711 
L 409.165015 98.146999 
L 409.687642 96.219043 
L 410.732896 89.197772 
L 411.255523 96.376222 
L 411.77815 94.380319 
L 412.300777 90.06062 
L 412.823404 97.939773 
L 413.346031 91.68999 
L 413.868658 94.450013 
L 414.391285 92.634593 
L 414.913913 87.972811 
L 415.43654 92.633556 
L 415.959167 117.564304 
L 416.481794 84.220868 
L 417.004421 93.153503 
L 417.527048 94.568007 
L 418.049675 85.312554 
L 418.572302 89.270249 
L 419.094929 95.398437 
L 419.617556 89.416404 
L 420.140183 89.608075 
L 420.66281 89.174687 
L 421.185438 82.863833 
L 422.230692 91.981809 
L 422.753319 87.393923 
L 423.275946 86.366473 
L 423.798573 92.346814 
L 424.3212 91.370065 
L 424.843827 84.542867 
L 425.366454 97.338399 
L 425.889081 91.711984 
L 426.411708 88.700966 
L 426.934335 83.384598 
L 427.456963 90.033278 
L 427.97959 91.483147 
L 428.502217 87.708609 
L 429.024844 82.352673 
L 429.547471 90.770383 
L 430.070098 94.100835 
L 430.592725 90.945845 
L 431.115352 85.984713 
L 431.637979 79.125151 
L 432.160606 175.899559 
L 432.683233 93.996704 
L 433.20586 113.362763 
L 433.728488 84.750038 
L 434.251115 94.129215 
L 434.773742 92.184122 
L 435.818996 85.003817 
L 436.341623 94.113497 
L 436.86425 87.771589 
L 437.386877 96.691617 
L 437.909504 121.196781 
L 438.432131 88.866113 
L 438.954758 87.104178 
L 439.477385 87.719688 
L 440.000013 90.452968 
L 440.52264 97.298504 
L 441.045267 91.263478 
L 441.567894 92.129164 
L 442.090521 83.349888 
L 442.613148 83.19511 
L 443.135775 97.567237 
L 443.658402 94.590819 
L 444.181029 110.29624 
L 444.703656 80.855159 
L 445.226283 80.685318 
L 445.74891 95.534058 
L 446.271538 92.228111 
L 446.794165 87.658508 
L 447.316792 105.885181 
L 447.839419 102.625841 
L 448.362046 88.075087 
L 448.884673 107.460848 
L 449.4073 88.402707 
L 449.929927 100.145576 
L 450.452554 94.7027 
L 450.975181 85.58347 
L 451.497808 87.541551 
L 452.020435 90.339996 
L 452.543063 94.339169 
L 453.06569 85.184682 
L 453.588317 90.024273 
L 454.110944 86.168635 
L 454.633571 92.719841 
L 455.156198 104.895771 
L 455.678825 86.862133 
L 456.201452 89.981103 
L 456.724079 92.020176 
L 457.246706 91.457005 
L 457.769333 80.643404 
L 458.29196 89.8618 
L 458.814588 89.405653 
L 459.337215 88.009159 
L 459.859842 90.257586 
L 460.382469 115.412041 
L 460.905096 84.706213 
L 461.427723 89.337705 
L 461.95035 88.539912 
L 462.472977 88.79309 
L 462.995604 96.062737 
L 463.518231 86.041036 
L 464.040858 88.416352 
L 464.563485 94.814854 
L 465.086113 82.253126 
L 465.60874 88.847284 
L 466.131367 93.755478 
L 466.653994 88.986563 
L 467.176621 88.380659 
L 467.699248 85.929155 
L 468.221875 88.101229 
L 468.744502 97.931259 
L 469.267129 91.14221 
L 469.789756 91.935746 
L 470.312383 101.30701 
L 470.83501 96.818616 
L 471.357638 96.754107 
L 471.880265 91.862396 
L 472.402892 97.489084 
L 472.925519 96.544971 
L 473.448146 94.17042 
L 473.970773 93.748383 
L 474.4934 102.938344 
L 475.538654 92.938801 
L 476.061281 132.306293 
L 476.583908 100.560027 
L 477.106535 101.982771 
L 477.629163 109.663649 
L 478.674417 91.43512 
L 479.197044 108.261643 
L 479.719671 95.6246 
L 480.242298 94.045004 
L 480.764925 98.861836 
L 481.287552 96.52205 
L 481.810179 109.146322 
L 482.332806 94.859716 
L 483.37806 97.154805 
L 483.900688 94.730261 
L 484.423315 92.833196 
L 484.945942 93.292508 
L 485.468569 96.498254 
L 485.991196 105.247623 
L 486.513823 92.796739 
L 487.03645 97.22106 
L 487.559077 94.701609 
L 488.081704 94.489253 
L 488.604331 99.262916 
L 489.126958 95.767317 
L 489.649585 100.677583 
L 490.172213 92.072569 
L 490.69484 91.186034 
L 491.217467 90.697797 
L 491.740094 100.994889 
L 492.262721 127.394334 
L 492.785348 90.432775 
L 493.307975 93.682291 
L 493.830602 95.330708 
L 494.353229 97.861238 
L 494.875856 94.025466 
L 495.398483 94.005382 
L 495.92111 101.073533 
L 496.443738 92.608615 
L 496.966365 90.533577 
L 497.488992 113.549304 
L 498.011619 92.280067 
L 498.534246 109.312124 
L 499.056873 100.500648 
L 499.5795 104.885019 
L 500.102127 91.774419 
L 500.624754 95.759239 
L 501.147381 93.555784 
L 501.670008 93.611833 
L 502.192635 99.983321 
L 502.715263 93.938853 
L 503.23789 95.915327 
L 503.760517 121.235093 
L 504.283144 93.057831 
L 504.805771 107.083672 
L 505.328398 117.503234 
L 505.851025 94.885912 
L 506.373652 96.87674 
L 506.896279 114.740918 
L 507.418906 102.23202 
L 507.941533 192.394151 
L 508.46416 102.529897 
L 508.986788 109.715551 
L 509.509415 105.249751 
L 510.032042 125.399196 
L 510.554669 94.17937 
L 511.077296 98.03419 
L 511.599923 124.176363 
L 512.12255 99.817246 
L 512.645177 103.73843 
L 513.167804 128.164294 
L 513.690431 95.337639 
L 514.213058 102.311483 
L 515.258313 91.527299 
L 515.78094 102.49022 
L 516.303567 106.42805 
L 516.826194 107.148563 
L 517.348821 102.411521 
L 517.871448 91.559499 
L 518.394075 142.07367 
L 518.916702 92.910694 
L 519.439329 93.768685 
L 519.961956 91.618332 
L 520.484583 100.873894 
L 521.00721 84.626368 
L 521.529838 99.312253 
L 522.052465 104.775867 
L 523.097719 94.035562 
L 523.620346 93.775998 
L 524.142973 94.364874 
L 524.6656 91.870855 
L 525.188227 96.387792 
L 525.710854 131.774995 
L 526.233481 100.170844 
L 527.278735 97.586556 
L 527.801363 93.860537 
L 528.32399 91.793576 
L 528.846617 91.557316 
L 529.369244 94.020663 
L 529.891871 98.020873 
L 530.414498 95.736154 
L 530.937125 92.071968 
L 531.459752 95.636443 
L 531.982379 91.720553 
L 533.027633 94.292834 
L 533.55026 98.434505 
L 534.072888 96.627218 
L 534.595515 93.537173 
L 535.118142 93.622694 
L 535.640769 97.455356 
L 536.163396 96.742155 
L 536.686023 92.213539 
L 537.20865 95.353248 
L 537.731277 100.753881 
L 538.776531 96.146348 
L 539.299158 96.675572 
L 539.821785 95.273621 
L 540.344413 94.695442 
L 541.389667 92.411377 
L 541.912294 133.118004 
L 542.434921 92.795047 
L 542.957548 101.309247 
L 543.480175 94.596823 
L 544.002802 91.582966 
L 544.525429 91.665977 
L 545.048056 90.892961 
L 545.570683 90.857432 
L 546.09331 91.905129 
L 546.09331 91.905129 
" style="fill:none;stroke:#0000ff;stroke-linecap:square;stroke-width:1.5;"/>
   </g>
   <g id="line2d_2">
    <path clip-path="url(#pdd4ef55287)" d="M 76.251563 320.130061 
L 76.77419 304.889479 
L 77.296817 323.591346 
L 77.819444 314.421523 
L 78.342071 315.511736 
L 78.864698 329.565957 
L 79.387325 323.884693 
L 79.909952 302.149103 
L 80.955206 287.231871 
L 81.477833 293.053067 
L 82.00046 292.746404 
L 82.523088 292.217889 
L 83.045715 310.934219 
L 83.568342 308.369415 
L 84.090969 292.974478 
L 84.613596 312.999434 
L 85.136223 286.540555 
L 85.65885 288.820254 
L 86.181477 305.597276 
L 86.704104 288.596437 
L 87.226731 290.793289 
L 87.749358 293.719387 
L 88.271985 291.83411 
L 88.794613 300.934185 
L 89.31724 286.940598 
L 89.839867 287.260359 
L 90.362494 292.895124 
L 90.885121 284.137951 
L 91.407748 283.940003 
L 92.453002 298.702404 
L 92.975629 318.837276 
L 93.498256 306.515301 
L 94.020883 321.570393 
L 94.54351 286.261562 
L 95.066138 284.000856 
L 95.588765 289.774681 
L 96.111392 291.931419 
L 96.634019 288.555177 
L 97.156646 288.202943 
L 97.679273 284.626953 
L 98.2019 291.824668 
L 98.724527 285.740578 
L 99.247154 291.912645 
L 99.769781 287.972141 
L 100.292408 286.543666 
L 101.337663 289.526086 
L 101.86029 305.20864 
L 102.382917 288.341239 
L 102.905544 310.59039 
L 103.428171 320.872638 
L 103.950798 318.727633 
L 104.473425 323.456598 
L 104.996052 319.388331 
L 105.518679 318.815719 
L 106.041306 312.194054 
L 106.563933 300.616552 
L 107.08656 300.425699 
L 107.609188 325.602749 
L 108.131815 300.98625 
L 108.654442 297.430617 
L 109.177069 295.073966 
L 109.699696 293.792191 
L 110.222323 292.079047 
L 110.74495 291.639546 
L 111.267577 283.376723 
L 111.790204 289.567455 
L 112.312831 288.109673 
L 112.835458 290.347129 
L 113.358085 287.337694 
L 113.880713 285.005602 
L 114.40334 284.439102 
L 114.925967 292.79072 
L 115.448594 296.162759 
L 115.971221 289.290045 
L 116.493848 290.262045 
L 117.016475 289.584101 
L 117.539102 284.527352 
L 118.061729 282.71859 
L 118.584356 284.626735 
L 119.106983 286.997412 
L 119.62961 286.478065 
L 120.152238 290.511949 
L 120.674865 287.307349 
L 121.197492 287.202945 
L 121.720119 293.355473 
L 122.242746 286.60048 
L 122.765373 284.527188 
L 123.288 289.202395 
L 124.333254 292.241793 
L 124.855881 286.770866 
L 125.378508 294.296038 
L 125.901135 285.778727 
L 126.423763 288.302763 
L 126.94639 289.100174 
L 127.469017 295.677359 
L 127.991644 284.651021 
L 128.514271 283.549184 
L 129.036898 287.416884 
L 129.559525 289.739151 
L 130.082152 287.930281 
L 130.604779 288.235907 
L 131.127406 284.712255 
L 131.650033 285.31554 
L 132.17266 283.323348 
L 132.695288 287.25452 
L 133.217915 283.769835 
L 133.740542 291.122165 
L 134.263169 289.080745 
L 134.785796 295.493765 
L 135.308423 305.268564 
L 135.83105 321.136076 
L 136.353677 306.061446 
L 136.876304 295.423362 
L 137.398931 292.15851 
L 137.921558 287.10389 
L 138.444185 286.6526 
L 138.966813 299.046888 
L 139.48944 288.470148 
L 140.012067 282.546457 
L 140.534694 283.400682 
L 141.057321 290.028787 
L 141.579948 287.123373 
L 142.102575 285.170367 
L 142.625202 284.528934 
L 143.147829 282.90142 
L 143.670456 284.986937 
L 144.193083 293.109226 
L 144.71571 321.212538 
L 145.238338 285.778236 
L 145.760965 282.726722 
L 146.283592 290.245836 
L 146.806219 287.968921 
L 147.328846 288.219316 
L 147.851473 289.644899 
L 148.3741 287.040199 
L 148.896727 283.297206 
L 149.419354 286.634699 
L 149.941981 298.81292 
L 150.464608 287.534495 
L 150.987235 289.777082 
L 151.509863 290.825653 
L 152.03249 284.655933 
L 152.555117 286.725841 
L 153.077744 286.756131 
L 153.600371 283.47889 
L 154.122998 287.524453 
L 154.645625 288.692982 
L 155.168252 292.503977 
L 155.690879 289.864022 
L 156.213506 295.29358 
L 156.736133 285.374755 
L 157.25876 285.9412 
L 157.781388 281.733491 
L 158.304015 288.141108 
L 158.826642 285.017172 
L 159.349269 285.598844 
L 159.871896 283.30954 
L 160.394523 283.265497 
L 160.91715 287.977762 
L 161.439777 284.776491 
L 161.962404 288.079492 
L 162.485031 283.575162 
L 163.007658 299.321079 
L 163.530285 327.568744 
L 164.052913 300.268847 
L 164.57554 308.434797 
L 165.620794 311.902727 
L 166.143421 281.58499 
L 166.666048 286.655329 
L 167.188675 282.264026 
L 167.711302 281.841661 
L 168.233929 293.918317 
L 169.279183 281.526321 
L 169.80181 280.715374 
L 170.324438 283.926196 
L 170.847065 283.402483 
L 171.369692 290.964331 
L 171.892319 286.372733 
L 172.414946 283.454604 
L 172.937573 285.313848 
L 173.4602 296.610829 
L 173.982827 296.985003 
L 174.505454 288.117586 
L 175.028081 294.130891 
L 175.550708 289.707115 
L 176.073335 290.744553 
L 176.595963 286.803394 
L 177.11859 285.75968 
L 177.641217 285.497114 
L 178.163844 284.558405 
L 178.686471 287.770264 
L 179.209098 287.030266 
L 179.731725 282.4283 
L 180.254352 282.733271 
L 180.776979 285.295619 
L 181.299606 286.625639 
L 181.822233 287.43413 
L 182.34486 287.523634 
L 182.867488 281.10472 
L 183.390115 284.737033 
L 183.912742 281.602018 
L 184.435369 283.515456 
L 185.480623 286.204967 
L 186.00325 290.606475 
L 186.525877 290.278964 
L 187.048504 278.112803 
L 187.571131 285.457656 
L 188.093758 280.376784 
L 188.616385 301.601487 
L 189.66164 324.76053 
L 190.184267 308.600545 
L 190.706894 302.751187 
L 191.229521 285.502135 
L 191.752148 283.815788 
L 192.274775 280.100411 
L 192.797402 285.322034 
L 193.320029 283.53805 
L 193.842656 282.506071 
L 194.365283 288.976232 
L 194.88791 282.958288 
L 195.410538 280.880139 
L 195.933165 286.736538 
L 196.455792 283.380817 
L 196.978419 285.64698 
L 197.501046 285.589348 
L 198.023673 291.021799 
L 198.5463 289.879958 
L 199.068927 282.493846 
L 199.591554 280.435017 
L 200.114181 290.91996 
L 200.636808 321.762064 
L 201.159435 329.212631 
L 201.682063 308.997859 
L 202.20469 319.65892 
L 202.727317 316.93972 
L 203.249944 286.44461 
L 203.772571 292.975187 
L 204.295198 283.126547 
L 204.817825 284.873419 
L 205.340452 284.223799 
L 205.863079 287.715742 
L 206.385706 282.119181 
L 206.908333 284.368208 
L 207.43096 280.929749 
L 207.953588 289.68594 
L 208.476215 281.464922 
L 208.998842 279.320027 
L 209.521469 282.782881 
L 210.044096 292.385547 
L 210.566723 282.629577 
L 211.08935 283.410779 
L 211.611977 284.422456 
L 212.134604 288.539623 
L 212.657231 280.723997 
L 213.179858 281.240724 
L 213.702485 287.274385 
L 214.225113 284.209555 
L 214.74774 288.867516 
L 215.270367 284.224782 
L 215.792994 287.108147 
L 216.315621 284.214085 
L 216.838248 285.898685 
L 217.360875 289.251023 
L 217.883502 283.681695 
L 218.406129 285.441829 
L 218.928756 280.445659 
L 219.451383 292.11283 
L 219.97401 283.219162 
L 220.496638 288.798532 
L 221.019265 281.415804 
L 221.541892 281.78583 
L 222.064519 285.427093 
L 222.587146 291.743404 
L 223.109773 284.255563 
L 223.6324 282.424425 
L 224.155027 285.440301 
L 224.677654 282.392334 
L 225.200281 291.811133 
L 225.722908 324.938012 
L 226.245535 319.798634 
L 226.768163 321.881804 
L 227.29079 311.26757 
L 227.813417 322.832084 
L 228.336044 308.92631 
L 228.858671 281.577895 
L 229.381298 293.69903 
L 229.903925 283.770272 
L 230.426552 297.641663 
L 230.949179 316.999371 
L 231.471806 316.154479 
L 231.994433 321.804743 
L 232.51706 325.348206 
L 233.039688 335.549735 
L 233.562315 325.854672 
L 234.084942 326.013216 
L 234.607569 321.531207 
L 235.130196 324.411407 
L 235.652823 328.855048 
L 236.17545 319.069116 
L 236.698077 311.832706 
L 237.220704 321.750112 
L 237.743331 318.005482 
L 238.265958 335.698346 
L 238.788585 331.59013 
L 239.311213 320.575689 
L 239.83384 326.885942 
L 240.356467 328.875023 
L 240.879094 339.937109 
L 241.401721 330.328985 
L 241.924348 335.78736 
L 242.446975 327.646842 
L 242.969602 330.863831 
L 243.492229 327.880701 
L 244.014856 345.152729 
L 245.06011 324.559199 
L 246.105365 332.61747 
L 246.627992 327.54151 
L 247.150619 333.61785 
L 247.673246 328.792067 
L 248.195873 325.815923 
L 248.7185 329.84686 
L 249.241127 327.840533 
L 249.763754 333.43824 
L 250.286381 331.940727 
L 250.809008 325.282278 
L 251.331635 332.094086 
L 251.854263 331.866776 
L 252.37689 322.931139 
L 252.899517 320.003622 
L 253.422144 332.549741 
L 253.944771 336.211198 
L 254.467398 333.564202 
L 254.990025 334.281168 
L 255.512652 346.577165 
L 256.035279 335.449861 
L 256.557906 342.99026 
L 257.080533 333.884291 
L 257.60316 339.540395 
L 258.125788 338.451383 
L 258.648415 341.597696 
L 259.171042 345.809498 
L 259.693669 326.219513 
L 260.216296 352.152879 
L 260.738923 349.137494 
L 261.26155 327.153583 
L 261.784177 334.171852 
L 262.306804 338.107172 
L 262.829431 325.070905 
L 263.352058 326.910665 
L 263.874685 334.666203 
L 264.397312 330.79632 
L 264.91994 328.78852 
L 265.965194 327.040174 
L 266.487821 330.733994 
L 267.010448 329.522569 
L 267.533075 323.118117 
L 268.055702 332.126122 
L 268.578329 324.633532 
L 269.100956 322.612851 
L 269.623583 339.90289 
L 270.14621 324.144257 
L 270.668838 318.891143 
L 271.191465 337.935312 
L 271.714092 335.9566 
L 272.236719 331.500734 
L 272.759346 333.804228 
L 273.281973 328.612621 
L 273.8046 325.792946 
L 274.327227 326.860892 
L 274.849854 338.286181 
L 275.372481 326.960984 
L 275.895108 325.448298 
L 276.417735 326.978394 
L 276.940363 321.400498 
L 277.46299 332.006382 
L 277.985617 331.865575 
L 278.508244 333.9649 
L 279.553498 324.977361 
L 280.076125 323.866355 
L 280.598752 329.467938 
L 281.121379 328.387986 
L 281.644006 337.765907 
L 282.166633 326.199593 
L 282.68926 325.688433 
L 283.211888 330.671177 
L 284.257142 333.330835 
L 284.779769 331.596079 
L 285.302396 340.421035 
L 285.825023 335.355499 
L 286.34765 336.182218 
L 286.870277 342.318755 
L 287.392904 332.534296 
L 287.915531 333.853019 
L 288.438158 330.196693 
L 288.960785 327.373034 
L 290.00604 341.458854 
L 290.528667 330.26142 
L 291.051294 328.818591 
L 291.573921 334.977287 
L 292.096548 342.487887 
L 292.619175 335.029571 
L 293.141802 335.15717 
L 293.664429 333.234999 
L 294.187056 342.619361 
L 294.709683 324.061465 
L 295.754938 338.664721 
L 296.277565 327.559357 
L 297.322819 332.350484 
L 297.845446 336.011122 
L 298.368073 327.608857 
L 299.413327 346.966348 
L 300.458581 326.425702 
L 300.981208 326.494904 
L 301.503835 325.735696 
L 302.026463 332.278444 
L 302.54909 325.443823 
L 303.071717 323.70541 
L 303.594344 327.113579 
L 304.116971 328.184635 
L 304.639598 326.675933 
L 305.162225 335.382296 
L 305.684852 336.662815 
L 306.207479 324.103325 
L 306.730106 326.487482 
L 307.252733 323.145896 
L 307.77536 327.457354 
L 308.297988 325.314369 
L 308.820615 333.825185 
L 309.343242 340.259217 
L 309.865869 329.489113 
L 310.388496 330.429023 
L 310.911123 341.081133 
L 311.43375 328.291004 
L 311.956377 342.516539 
L 312.479004 320.453493 
L 313.001631 326.64799 
L 313.524258 327.733509 
L 314.046885 327.449495 
L 314.569513 319.258877 
L 315.09214 327.213399 
L 315.614767 322.979112 
L 316.137394 331.273807 
L 316.660021 327.576985 
L 317.182648 335.723779 
L 317.705275 322.750983 
L 318.227902 325.299961 
L 318.750529 325.526997 
L 319.273156 324.035323 
L 319.795783 330.806144 
L 320.31841 326.271961 
L 320.841038 330.563499 
L 321.363665 327.992309 
L 321.886292 322.363821 
L 322.408919 326.143816 
L 322.931546 325.60455 
L 323.454173 321.562261 
L 323.9768 328.993781 
L 324.499427 317.501035 
L 325.022054 328.64242 
L 325.544681 324.192338 
L 326.067308 327.302249 
L 327.112563 324.838574 
L 327.63519 331.268786 
L 328.157817 326.979868 
L 328.680444 325.244129 
L 329.203071 329.893686 
L 330.248325 324.444153 
L 330.770952 328.860397 
L 331.293579 326.080017 
L 331.816206 329.12782 
L 332.338833 323.081933 
L 332.86146 321.326165 
L 333.384088 328.812479 
L 333.906715 325.33418 
L 334.429342 335.154659 
L 334.951969 331.822515 
L 335.474596 336.303977 
L 335.997223 325.000611 
L 336.51985 337.869984 
L 337.042477 326.853906 
L 337.565104 326.081217 
L 338.087731 333.834136 
L 338.610358 337.603216 
L 339.132985 325.989475 
L 339.655613 329.254382 
L 340.17824 328.933965 
L 340.700867 328.973642 
L 341.223494 322.635337 
L 341.746121 331.432296 
L 342.268748 317.291954 
L 343.314002 326.070302 
L 343.836629 318.150054 
L 344.359256 326.715501 
L 344.881883 322.30526 
L 345.40451 326.992038 
L 345.927138 329.074226 
L 346.449765 317.605111 
L 346.972392 321.551073 
L 347.495019 326.505001 
L 348.017646 314.723493 
L 348.540273 320.844313 
L 349.0629 334.777756 
L 349.585527 321.103112 
L 350.108154 328.421768 
L 350.630781 324.527709 
L 351.153408 334.030555 
L 351.676035 328.772802 
L 352.198663 330.350706 
L 352.72129 333.215734 
L 353.243917 335.416024 
L 353.766544 336.218457 
L 354.289171 325.296304 
L 354.811798 324.460143 
L 355.334425 324.797478 
L 355.857052 320.870291 
L 356.379679 333.256611 
L 356.902306 317.113817 
L 357.424933 337.64333 
L 357.94756 326.962021 
L 358.470188 330.271462 
L 358.992815 319.626556 
L 360.038069 329.466301 
L 360.560696 321.33135 
L 361.083323 328.218309 
L 361.60595 317.043742 
L 362.128577 320.058144 
L 362.651204 331.540411 
L 363.173831 327.471653 
L 363.696458 328.342961 
L 364.219085 334.640825 
L 364.741713 327.489609 
L 365.26434 334.948525 
L 365.786967 328.465757 
L 366.309594 325.417681 
L 366.832221 321.106878 
L 367.354848 333.293778 
L 367.877475 317.291626 
L 368.922729 323.54643 
L 369.445356 336.628978 
L 369.967983 330.340937 
L 370.49061 322.698154 
L 371.013238 333.000922 
L 371.535865 333.810395 
L 372.058492 321.809273 
L 372.581119 326.8425 
L 373.103746 321.673433 
L 373.626373 328.205538 
L 374.149 338.02056 
L 374.671627 332.924079 
L 375.194254 333.521469 
L 375.716881 319.711913 
L 376.239508 328.218636 
L 376.762135 326.753159 
L 377.284763 328.84135 
L 377.80739 330.256563 
L 378.330017 342.177512 
L 378.852644 323.955205 
L 379.375271 318.408908 
L 379.897898 324.348754 
L 380.420525 321.821225 
L 380.943152 325.595654 
L 381.465779 322.568918 
L 381.988406 329.897834 
L 382.511033 332.183154 
L 383.03366 329.114285 
L 383.556288 321.594734 
L 384.078915 327.709386 
L 384.601542 328.773457 
L 385.124169 319.741002 
L 385.646796 327.324188 
L 386.169423 331.170931 
L 386.69205 321.163965 
L 387.214677 317.503109 
L 387.737304 283.74664 
L 388.259931 277.988588 
L 388.782558 279.106143 
L 389.305185 276.461112 
L 389.827813 284.609434 
L 390.35044 283.553878 
L 390.873067 280.947978 
L 391.395694 281.811099 
L 391.918321 282.190293 
L 392.440948 281.759361 
L 392.963575 282.343379 
L 393.486202 287.32072 
L 394.008829 279.059208 
L 394.531456 284.357292 
L 395.054083 279.152042 
L 395.57671 282.416948 
L 396.099338 282.676894 
L 396.621965 283.084032 
L 397.144592 282.550605 
L 397.667219 280.67728 
L 398.189846 281.116781 
L 398.712473 278.253282 
L 399.757727 283.665049 
L 400.280354 279.35572 
L 400.802981 281.637001 
L 401.325608 291.341724 
L 401.848235 279.736333 
L 402.370863 288.697403 
L 402.89349 283.227894 
L 403.416117 283.121144 
L 403.938744 284.079991 
L 404.983998 280.581881 
L 405.506625 280.812956 
L 406.029252 281.729726 
L 406.551879 280.213274 
L 407.074506 285.988681 
L 407.597133 296.441698 
L 408.11976 302.511707 
L 408.642388 313.15956 
L 409.687642 283.114267 
L 410.210269 281.072193 
L 410.732896 278.323467 
L 411.255523 281.786867 
L 411.77815 280.532653 
L 412.300777 277.329254 
L 412.823404 286.266528 
L 413.868658 280.396813 
L 414.391285 285.137458 
L 414.913913 281.950431 
L 415.43654 280.947159 
L 415.959167 281.504326 
L 416.481794 275.03613 
L 417.527048 286.683053 
L 418.049675 286.083698 
L 418.572302 284.348997 
L 419.094929 285.154322 
L 419.617556 279.729293 
L 420.140183 277.207495 
L 420.66281 283.900709 
L 421.185438 280.595198 
L 421.708065 278.837519 
L 422.230692 278.748288 
L 422.753319 279.863441 
L 423.275946 283.373776 
L 423.798573 278.22332 
L 424.3212 279.998408 
L 424.843827 278.496965 
L 425.366454 292.890267 
L 425.889081 278.97718 
L 426.411708 283.996981 
L 426.934335 278.201872 
L 427.456963 282.930509 
L 427.97959 282.564849 
L 428.502217 292.44056 
L 429.024844 280.485336 
L 429.547471 281.890562 
L 430.070098 281.286568 
L 430.592725 281.208033 
L 431.115352 279.179221 
L 431.637979 288.979179 
L 432.160606 291.822485 
L 432.683233 284.861084 
L 433.20586 279.604314 
L 433.728488 285.155741 
L 434.251115 284.991467 
L 434.773742 283.847934 
L 435.818996 277.76308 
L 436.341623 292.24032 
L 436.86425 279.080056 
L 437.386877 284.798104 
L 437.909504 276.526985 
L 438.432131 285.915386 
L 438.954758 276.695189 
L 439.477385 281.982631 
L 440.000013 293.588241 
L 440.52264 282.587553 
L 441.045267 280.922381 
L 441.567894 281.616098 
L 442.090521 284.902726 
L 442.613148 282.249017 
L 443.135775 292.915972 
L 443.658402 287.943761 
L 444.181029 286.126814 
L 444.703656 279.799041 
L 445.226283 280.698783 
L 445.74891 289.129864 
L 446.271538 278.984548 
L 446.794165 284.098547 
L 447.316792 302.786607 
L 447.839419 290.72556 
L 448.362046 285.042714 
L 448.884673 290.118128 
L 449.4073 284.121687 
L 449.929927 292.255001 
L 450.452554 284.808637 
L 450.975181 289.200922 
L 451.497808 276.673522 
L 452.020435 281.318768 
L 452.543063 293.257619 
L 453.06569 280.799858 
L 453.588317 282.837675 
L 454.110944 280.184949 
L 454.633571 285.852459 
L 455.156198 286.166381 
L 455.678825 289.886234 
L 456.201452 282.0407 
L 456.724079 278.344424 
L 457.246706 281.715481 
L 457.769333 280.790853 
L 458.29196 280.269215 
L 458.814588 280.571894 
L 459.337215 283.466556 
L 459.859842 279.296395 
L 460.382469 276.046279 
L 460.905096 277.073129 
L 461.427723 285.358273 
L 461.95035 275.613654 
L 462.472977 284.032073 
L 462.995604 284.066238 
L 464.040858 275.741963 
L 465.086113 285.42049 
L 465.60874 283.679021 
L 466.131367 285.665154 
L 466.653994 286.369568 
L 467.699248 276.855534 
L 468.221875 286.908453 
L 468.744502 283.428625 
L 469.267129 276.282594 
L 469.789756 281.000207 
L 470.312383 279.313914 
L 470.83501 278.123118 
L 471.357638 277.305677 
L 471.880265 284.411705 
L 472.402892 282.164861 
L 472.925519 285.504155 
L 473.448146 279.938974 
L 473.970773 280.012598 
L 474.4934 278.705172 
L 475.016027 279.935864 
L 475.538654 279.823055 
L 476.061281 292.58284 
L 476.583908 292.656135 
L 477.106535 284.963251 
L 477.629163 293.251506 
L 478.15179 290.448204 
L 478.674417 290.653738 
L 479.197044 280.516499 
L 479.719671 280.971336 
L 480.242298 285.832375 
L 481.287552 277.06003 
L 481.810179 292.33883 
L 482.332806 293.210792 
L 482.855433 288.34817 
L 483.37806 291.705856 
L 483.900688 280.200831 
L 484.423315 282.882155 
L 484.945942 282.522607 
L 485.468569 282.388732 
L 485.991196 280.846466 
L 486.513823 281.35708 
L 487.03645 278.678703 
L 487.559077 288.345332 
L 488.081704 283.133696 
L 488.604331 287.615431 
L 489.126958 277.830645 
L 489.649585 285.676233 
L 490.172213 277.631333 
L 490.69484 284.528989 
L 491.217467 275.987009 
L 491.740094 280.00714 
L 492.262721 278.902902 
L 492.785348 278.660966 
L 493.307975 279.504221 
L 493.830602 284.237225 
L 494.353229 285.354998 
L 494.875856 279.441841 
L 495.398483 287.585033 
L 495.92111 280.92189 
L 496.443738 275.697429 
L 496.966365 279.90099 
L 497.488992 288.230559 
L 498.011619 279.171853 
L 498.534246 293.677036 
L 499.056873 296.992098 
L 499.5795 292.955485 
L 500.102127 278.616213 
L 500.624754 280.027824 
L 501.147381 280.255407 
L 501.670008 284.182594 
L 502.192635 283.383491 
L 502.715263 280.7944 
L 503.23789 282.795597 
L 503.760517 301.080667 
L 504.283144 293.600247 
L 504.805771 294.156978 
L 505.328398 308.669202 
L 505.851025 295.769702 
L 506.373652 290.118728 
L 506.896279 293.379323 
L 507.418906 295.394546 
L 507.941533 304.428966 
L 508.46416 301.78257 
L 508.986788 297.29636 
L 509.509415 296.963227 
L 510.032042 289.81594 
L 510.554669 293.610071 
L 511.077296 301.483984 
L 511.599923 305.471478 
L 512.12255 291.859706 
L 512.645177 295.464458 
L 513.167804 304.131035 
L 513.690431 289.165557 
L 514.213058 287.593928 
L 514.735685 297.108945 
L 515.258313 286.467532 
L 515.78094 289.100393 
L 516.826194 295.849165 
L 517.348821 296.756766 
L 517.871448 294.769922 
L 518.394075 312.546616 
L 518.916702 282.726176 
L 519.439329 279.549356 
L 520.484583 289.917288 
L 521.00721 287.435057 
L 521.529838 286.973944 
L 522.052465 313.758315 
L 522.575092 285.456783 
L 523.097719 284.268115 
L 523.620346 280.871244 
L 524.142973 285.422509 
L 524.6656 279.184187 
L 525.188227 280.910429 
L 525.710854 278.891604 
L 526.233481 280.570365 
L 526.756108 286.531987 
L 527.278735 280.670786 
L 527.801363 281.035518 
L 528.32399 278.983565 
L 528.846617 275.503192 
L 529.369244 275.739943 
L 529.891871 277.287121 
L 530.414498 278.352338 
L 530.937125 286.206931 
L 531.459752 287.744013 
L 531.982379 280.077925 
L 532.505006 281.278545 
L 533.027633 279.930624 
L 533.55026 280.097955 
L 534.072888 289.32863 
L 534.595515 280.66189 
L 535.640769 286.242133 
L 536.163396 280.3251 
L 536.686023 279.761329 
L 537.20865 279.854491 
L 537.731277 281.722085 
L 538.253904 275.046445 
L 538.776531 282.398338 
L 539.299158 283.924777 
L 539.821785 279.977996 
L 540.344413 277.503134 
L 540.86704 280.853233 
L 541.389667 277.979201 
L 541.912294 284.368044 
L 542.434921 284.925321 
L 542.957548 296.121554 
L 543.480175 280.169613 
L 544.002802 283.697413 
L 544.525429 281.886305 
L 545.048056 277.23582 
L 545.570683 282.243396 
L 546.09331 283.148595 
L 546.09331 283.148595 
" style="fill:none;stroke:#008000;stroke-dasharray:6.000000,6.000000;stroke-dashoffset:0.0;stroke-width:1.5;"/>
   </g>
   <g id="line2d_3">
    <path clip-path="url(#pdd4ef55287)" d="M 227.813417 372.563906 
L 227.813417 14.408203 
" style="fill:none;stroke:#000000;stroke-linecap:square;stroke-width:1.5;"/>
   </g>
   <g id="line2d_4">
    <path clip-path="url(#pdd4ef55287)" d="M 389.827813 372.563906 
L 389.827813 14.408203 
" style="fill:none;stroke:#000000;stroke-linecap:square;stroke-width:1.5;"/>
   </g>
   <g id="patch_3">
    <path d="M 76.251563 14.408203 
L 546.615938 14.408203 
" style="fill:none;stroke:#000000;stroke-linecap:square;stroke-linejoin:miter;"/>
   </g>
   <g id="patch_4">
    <path d="M 546.615938 372.563906 
L 546.615938 14.408203 
" style="fill:none;stroke:#000000;stroke-linecap:square;stroke-linejoin:miter;"/>
   </g>
   <g id="patch_5">
    <path d="M 76.251563 372.563906 
L 546.615938 372.563906 
" style="fill:none;stroke:#000000;stroke-linecap:square;stroke-linejoin:miter;"/>
   </g>
   <g id="patch_6">
    <path d="M 76.251563 372.563906 
L 76.251563 14.408203 
" style="fill:none;stroke:#000000;stroke-linecap:square;stroke-linejoin:miter;"/>
   </g>
   <g id="matplotlib.axis_1">
    <g id="xtick_1">
     <g id="line2d_5">
      <defs>
       <path d="M 0 0 
L 0 -4 
" id="mda0bfabb60" style="stroke:#000000;stroke-width:0.5;"/>
      </defs>
      <g>
       <use style="fill:none;stroke:#000000;stroke-width:0.5;" x="76.2515625" xlink:href="#mda0bfabb60" y="372.56390625"/>
      </g>
     </g>
     <g id="line2d_6">
      <defs>
       <path d="M 0 0 
L 0 4 
" id="m980ad9a42e" style="stroke:#000000;stroke-width:0.5;"/>
      </defs>
      <g>
       <use style="fill:none;stroke:#000000;stroke-width:0.5;" x="76.2515625" xlink:href="#m980ad9a42e" y="14.408203125000057"/>
      </g>
     </g>
     <g id="text_1">
      <text style="font-family:Verdana;font-size:15.0px;font-style:normal;font-weight:700;text-anchor:middle;" transform="rotate(-0.000000, 76.251563, 387.961563)" x="76.2515625" y="387.9615625">0</text>
     </g>
    </g>
    <g id="xtick_2">
     <g id="line2d_7">
      <g>
       <use style="fill:none;stroke:#000000;stroke-width:0.5;" x="128.51427083333334" xlink:href="#mda0bfabb60" y="372.56390625"/>
      </g>
     </g>
     <g id="line2d_8">
      <g>
       <use style="fill:none;stroke:#000000;stroke-width:0.5;" x="128.51427083333334" xlink:href="#m980ad9a42e" y="14.408203125000057"/>
      </g>
     </g>
     <g id="text_2">
      <text style="font-family:Verdana;font-size:15.0px;font-style:normal;font-weight:700;text-anchor:middle;" transform="rotate(-0.000000, 128.514271, 387.961563)" x="128.51427083333334" y="387.9615625">10</text>
     </g>
    </g>
    <g id="xtick_3">
     <g id="line2d_9">
      <g>
       <use style="fill:none;stroke:#000000;stroke-width:0.5;" x="180.7769791666667" xlink:href="#mda0bfabb60" y="372.56390625"/>
      </g>
     </g>
     <g id="line2d_10">
      <g>
       <use style="fill:none;stroke:#000000;stroke-width:0.5;" x="180.7769791666667" xlink:href="#m980ad9a42e" y="14.408203125000057"/>
      </g>
     </g>
     <g id="text_3">
      <text style="font-family:Verdana;font-size:15.0px;font-style:normal;font-weight:700;text-anchor:middle;" transform="rotate(-0.000000, 180.776979, 387.961563)" x="180.7769791666667" y="387.9615625">20</text>
     </g>
    </g>
    <g id="xtick_4">
     <g id="line2d_11">
      <g>
       <use style="fill:none;stroke:#000000;stroke-width:0.5;" x="233.03968750000004" xlink:href="#mda0bfabb60" y="372.56390625"/>
      </g>
     </g>
     <g id="line2d_12">
      <g>
       <use style="fill:none;stroke:#000000;stroke-width:0.5;" x="233.03968750000004" xlink:href="#m980ad9a42e" y="14.408203125000057"/>
      </g>
     </g>
     <g id="text_4">
      <text style="font-family:Verdana;font-size:15.0px;font-style:normal;font-weight:700;text-anchor:middle;" transform="rotate(-0.000000, 233.039688, 387.961563)" x="233.03968750000004" y="387.9615625">30</text>
     </g>
    </g>
    <g id="xtick_5">
     <g id="line2d_13">
      <g>
       <use style="fill:none;stroke:#000000;stroke-width:0.5;" x="285.3023958333334" xlink:href="#mda0bfabb60" y="372.56390625"/>
      </g>
     </g>
     <g id="line2d_14">
      <g>
       <use style="fill:none;stroke:#000000;stroke-width:0.5;" x="285.3023958333334" xlink:href="#m980ad9a42e" y="14.408203125000057"/>
      </g>
     </g>
     <g id="text_5">
      <text style="font-family:Verdana;font-size:15.0px;font-style:normal;font-weight:700;text-anchor:middle;" transform="rotate(-0.000000, 285.302396, 387.961563)" x="285.3023958333334" y="387.9615625">40</text>
     </g>
    </g>
    <g id="xtick_6">
     <g id="line2d_15">
      <g>
       <use style="fill:none;stroke:#000000;stroke-width:0.5;" x="337.56510416666674" xlink:href="#mda0bfabb60" y="372.56390625"/>
      </g>
     </g>
     <g id="line2d_16">
      <g>
       <use style="fill:none;stroke:#000000;stroke-width:0.5;" x="337.56510416666674" xlink:href="#m980ad9a42e" y="14.408203125000057"/>
      </g>
     </g>
     <g id="text_6">
      <text style="font-family:Verdana;font-size:15.0px;font-style:normal;font-weight:700;text-anchor:middle;" transform="rotate(-0.000000, 337.565104, 387.961563)" x="337.56510416666674" y="387.9615625">50</text>
     </g>
    </g>
    <g id="xtick_7">
     <g id="line2d_17">
      <g>
       <use style="fill:none;stroke:#000000;stroke-width:0.5;" x="389.82781250000005" xlink:href="#mda0bfabb60" y="372.56390625"/>
      </g>
     </g>
     <g id="line2d_18">
      <g>
       <use style="fill:none;stroke:#000000;stroke-width:0.5;" x="389.82781250000005" xlink:href="#m980ad9a42e" y="14.408203125000057"/>
      </g>
     </g>
     <g id="text_7">
      <text style="font-family:Verdana;font-size:15.0px;font-style:normal;font-weight:700;text-anchor:middle;" transform="rotate(-0.000000, 389.827813, 387.961563)" x="389.82781250000005" y="387.9615625">60</text>
     </g>
    </g>
    <g id="xtick_8">
     <g id="line2d_19">
      <g>
       <use style="fill:none;stroke:#000000;stroke-width:0.5;" x="442.09052083333336" xlink:href="#mda0bfabb60" y="372.56390625"/>
      </g>
     </g>
     <g id="line2d_20">
      <g>
       <use style="fill:none;stroke:#000000;stroke-width:0.5;" x="442.09052083333336" xlink:href="#m980ad9a42e" y="14.408203125000057"/>
      </g>
     </g>
     <g id="text_8">
      <text style="font-family:Verdana;font-size:15.0px;font-style:normal;font-weight:700;text-anchor:middle;" transform="rotate(-0.000000, 442.090521, 387.961563)" x="442.09052083333336" y="387.9615625">70</text>
     </g>
    </g>
    <g id="xtick_9">
     <g id="line2d_21">
      <g>
       <use style="fill:none;stroke:#000000;stroke-width:0.5;" x="494.3532291666668" xlink:href="#mda0bfabb60" y="372.56390625"/>
      </g>
     </g>
     <g id="line2d_22">
      <g>
       <use style="fill:none;stroke:#000000;stroke-width:0.5;" x="494.3532291666668" xlink:href="#m980ad9a42e" y="14.408203125000057"/>
      </g>
     </g>
     <g id="text_9">
      <text style="font-family:Verdana;font-size:15.0px;font-style:normal;font-weight:700;text-anchor:middle;" transform="rotate(-0.000000, 494.353229, 387.961563)" x="494.3532291666668" y="387.9615625">80</text>
     </g>
    </g>
    <g id="xtick_10">
     <g id="line2d_23">
      <g>
       <use style="fill:none;stroke:#000000;stroke-width:0.5;" x="546.6159375000001" xlink:href="#mda0bfabb60" y="372.56390625"/>
      </g>
     </g>
     <g id="line2d_24">
      <g>
       <use style="fill:none;stroke:#000000;stroke-width:0.5;" x="546.6159375000001" xlink:href="#m980ad9a42e" y="14.408203125000057"/>
      </g>
     </g>
     <g id="text_10">
      <text style="font-family:Verdana;font-size:15.0px;font-style:normal;font-weight:700;text-anchor:middle;" transform="rotate(-0.000000, 546.615938, 387.961563)" x="546.6159375000001" y="387.9615625">90</text>
     </g>
    </g>
    <g id="text_11">
     <text style="font-family:Verdana;font-size:18.0px;font-style:normal;font-weight:700;text-anchor:middle;" transform="rotate(-0.000000, 311.433750, 409.657500)" x="311.43375000000003" y="409.6575">Time (sec)</text>
    </g>
   </g>
   <g id="matplotlib.axis_2">
    <g id="ytick_1">
     <g id="line2d_25">
      <path clip-path="url(#pdd4ef55287)" d="M 76.251563 372.563906 
L 546.615938 372.563906 
" style="fill:none;stroke:#000000;stroke-dasharray:1.000000,3.000000;stroke-dashoffset:0.0;stroke-width:0.5;"/>
     </g>
     <g id="line2d_26">
      <defs>
       <path d="M 0 0 
L 4 0 
" id="m057ce6da24" style="stroke:#000000;stroke-width:0.5;"/>
      </defs>
      <g>
       <use style="fill:none;stroke:#000000;stroke-width:0.5;" x="76.2515625" xlink:href="#m057ce6da24" y="372.56390625"/>
      </g>
     </g>
     <g id="line2d_27">
      <defs>
       <path d="M 0 0 
L -4 0 
" id="m9e955d57d9" style="stroke:#000000;stroke-width:0.5;"/>
      </defs>
      <g>
       <use style="fill:none;stroke:#000000;stroke-width:0.5;" x="546.6159375000001" xlink:href="#m9e955d57d9" y="372.56390625"/>
      </g>
     </g>
     <g id="text_12">
      <text style="font-family:Verdana;font-size:15.0px;font-style:normal;font-weight:700;text-anchor:end;" transform="rotate(-0.000000, 72.251563, 376.753359)" x="72.2515625" y="376.753359375">0</text>
     </g>
    </g>
    <g id="ytick_2">
     <g id="line2d_28">
      <path clip-path="url(#pdd4ef55287)" d="M 76.251563 346.981356 
L 546.615938 346.981356 
" style="fill:none;stroke:#000000;stroke-dasharray:1.000000,3.000000;stroke-dashoffset:0.0;stroke-width:0.5;"/>
     </g>
     <g id="line2d_29">
      <g>
       <use style="fill:none;stroke:#000000;stroke-width:0.5;" x="76.2515625" xlink:href="#m057ce6da24" y="346.9813560267857"/>
      </g>
     </g>
     <g id="line2d_30">
      <g>
       <use style="fill:none;stroke:#000000;stroke-width:0.5;" x="546.6159375000001" xlink:href="#m9e955d57d9" y="346.9813560267857"/>
      </g>
     </g>
     <g id="text_13">
      <text style="font-family:Verdana;font-size:15.0px;font-style:normal;font-weight:700;text-anchor:end;" transform="rotate(-0.000000, 72.251563, 351.170809)" x="72.2515625" y="351.17080915178576">150</text>
     </g>
    </g>
    <g id="ytick_3">
     <g id="line2d_31">
      <path clip-path="url(#pdd4ef55287)" d="M 76.251563 321.398806 
L 546.615938 321.398806 
" style="fill:none;stroke:#000000;stroke-dasharray:1.000000,3.000000;stroke-dashoffset:0.0;stroke-width:0.5;"/>
     </g>
     <g id="line2d_32">
      <g>
       <use style="fill:none;stroke:#000000;stroke-width:0.5;" x="76.2515625" xlink:href="#m057ce6da24" y="321.39880580357146"/>
      </g>
     </g>
     <g id="line2d_33">
      <g>
       <use style="fill:none;stroke:#000000;stroke-width:0.5;" x="546.6159375000001" xlink:href="#m9e955d57d9" y="321.39880580357146"/>
      </g>
     </g>
     <g id="text_14">
      <text style="font-family:Verdana;font-size:15.0px;font-style:normal;font-weight:700;text-anchor:end;" transform="rotate(-0.000000, 72.251563, 325.588259)" x="72.2515625" y="325.58825892857146">300</text>
     </g>
    </g>
    <g id="ytick_4">
     <g id="line2d_34">
      <path clip-path="url(#pdd4ef55287)" d="M 76.251563 295.816256 
L 546.615938 295.816256 
" style="fill:none;stroke:#000000;stroke-dasharray:1.000000,3.000000;stroke-dashoffset:0.0;stroke-width:0.5;"/>
     </g>
     <g id="line2d_35">
      <g>
       <use style="fill:none;stroke:#000000;stroke-width:0.5;" x="76.2515625" xlink:href="#m057ce6da24" y="295.81625558035716"/>
      </g>
     </g>
     <g id="line2d_36">
      <g>
       <use style="fill:none;stroke:#000000;stroke-width:0.5;" x="546.6159375000001" xlink:href="#m9e955d57d9" y="295.81625558035716"/>
      </g>
     </g>
     <g id="text_15">
      <text style="font-family:Verdana;font-size:15.0px;font-style:normal;font-weight:700;text-anchor:end;" transform="rotate(-0.000000, 72.251563, 300.005709)" x="72.2515625" y="300.00570870535716">450</text>
     </g>
    </g>
    <g id="ytick_5">
     <g id="line2d_37">
      <path clip-path="url(#pdd4ef55287)" d="M 76.251563 270.233705 
L 546.615938 270.233705 
" style="fill:none;stroke:#000000;stroke-dasharray:1.000000,3.000000;stroke-dashoffset:0.0;stroke-width:0.5;"/>
     </g>
     <g id="line2d_38">
      <g>
       <use style="fill:none;stroke:#000000;stroke-width:0.5;" x="76.2515625" xlink:href="#m057ce6da24" y="270.23370535714287"/>
      </g>
     </g>
     <g id="line2d_39">
      <g>
       <use style="fill:none;stroke:#000000;stroke-width:0.5;" x="546.6159375000001" xlink:href="#m9e955d57d9" y="270.23370535714287"/>
      </g>
     </g>
     <g id="text_16">
      <text style="font-family:Verdana;font-size:15.0px;font-style:normal;font-weight:700;text-anchor:end;" transform="rotate(-0.000000, 72.251563, 274.423158)" x="72.2515625" y="274.42315848214287">600</text>
     </g>
    </g>
    <g id="ytick_6">
     <g id="line2d_40">
      <path clip-path="url(#pdd4ef55287)" d="M 76.251563 244.651155 
L 546.615938 244.651155 
" style="fill:none;stroke:#000000;stroke-dasharray:1.000000,3.000000;stroke-dashoffset:0.0;stroke-width:0.5;"/>
     </g>
     <g id="line2d_41">
      <g>
       <use style="fill:none;stroke:#000000;stroke-width:0.5;" x="76.2515625" xlink:href="#m057ce6da24" y="244.6511551339286"/>
      </g>
     </g>
     <g id="line2d_42">
      <g>
       <use style="fill:none;stroke:#000000;stroke-width:0.5;" x="546.6159375000001" xlink:href="#m9e955d57d9" y="244.6511551339286"/>
      </g>
     </g>
     <g id="text_17">
      <text style="font-family:Verdana;font-size:15.0px;font-style:normal;font-weight:700;text-anchor:end;" transform="rotate(-0.000000, 72.251563, 248.840608)" x="72.2515625" y="248.84060825892863">750</text>
     </g>
    </g>
    <g id="ytick_7">
     <g id="line2d_43">
      <path clip-path="url(#pdd4ef55287)" d="M 76.251563 219.068605 
L 546.615938 219.068605 
" style="fill:none;stroke:#000000;stroke-dasharray:1.000000,3.000000;stroke-dashoffset:0.0;stroke-width:0.5;"/>
     </g>
     <g id="line2d_44">
      <g>
       <use style="fill:none;stroke:#000000;stroke-width:0.5;" x="76.2515625" xlink:href="#m057ce6da24" y="219.06860491071433"/>
      </g>
     </g>
     <g id="line2d_45">
      <g>
       <use style="fill:none;stroke:#000000;stroke-width:0.5;" x="546.6159375000001" xlink:href="#m9e955d57d9" y="219.06860491071433"/>
      </g>
     </g>
     <g id="text_18">
      <text style="font-family:Verdana;font-size:15.0px;font-style:normal;font-weight:700;text-anchor:end;" transform="rotate(-0.000000, 72.251563, 223.258058)" x="72.2515625" y="223.25805803571436">900</text>
     </g>
    </g>
    <g id="ytick_8">
     <g id="line2d_46">
      <path clip-path="url(#pdd4ef55287)" d="M 76.251563 193.486055 
L 546.615938 193.486055 
" style="fill:none;stroke:#000000;stroke-dasharray:1.000000,3.000000;stroke-dashoffset:0.0;stroke-width:0.5;"/>
     </g>
     <g id="line2d_47">
      <g>
       <use style="fill:none;stroke:#000000;stroke-width:0.5;" x="76.2515625" xlink:href="#m057ce6da24" y="193.48605468750003"/>
      </g>
     </g>
     <g id="line2d_48">
      <g>
       <use style="fill:none;stroke:#000000;stroke-width:0.5;" x="546.6159375000001" xlink:href="#m9e955d57d9" y="193.48605468750003"/>
      </g>
     </g>
     <g id="text_19">
      <text style="font-family:Verdana;font-size:15.0px;font-style:normal;font-weight:700;text-anchor:end;" transform="rotate(-0.000000, 72.251563, 197.675508)" x="72.2515625" y="197.67550781250006">1050</text>
     </g>
    </g>
    <g id="ytick_9">
     <g id="line2d_49">
      <path clip-path="url(#pdd4ef55287)" d="M 76.251563 167.903504 
L 546.615938 167.903504 
" style="fill:none;stroke:#000000;stroke-dasharray:1.000000,3.000000;stroke-dashoffset:0.0;stroke-width:0.5;"/>
     </g>
     <g id="line2d_50">
      <g>
       <use style="fill:none;stroke:#000000;stroke-width:0.5;" x="76.2515625" xlink:href="#m057ce6da24" y="167.90350446428576"/>
      </g>
     </g>
     <g id="line2d_51">
      <g>
       <use style="fill:none;stroke:#000000;stroke-width:0.5;" x="546.6159375000001" xlink:href="#m9e955d57d9" y="167.90350446428576"/>
      </g>
     </g>
     <g id="text_20">
      <text style="font-family:Verdana;font-size:15.0px;font-style:normal;font-weight:700;text-anchor:end;" transform="rotate(-0.000000, 72.251563, 172.092958)" x="72.2515625" y="172.0929575892858">1200</text>
     </g>
    </g>
    <g id="ytick_10">
     <g id="line2d_52">
      <path clip-path="url(#pdd4ef55287)" d="M 76.251563 142.320954 
L 546.615938 142.320954 
" style="fill:none;stroke:#000000;stroke-dasharray:1.000000,3.000000;stroke-dashoffset:0.0;stroke-width:0.5;"/>
     </g>
     <g id="line2d_53">
      <g>
       <use style="fill:none;stroke:#000000;stroke-width:0.5;" x="76.2515625" xlink:href="#m057ce6da24" y="142.3209542410715"/>
      </g>
     </g>
     <g id="line2d_54">
      <g>
       <use style="fill:none;stroke:#000000;stroke-width:0.5;" x="546.6159375000001" xlink:href="#m9e955d57d9" y="142.3209542410715"/>
      </g>
     </g>
     <g id="text_21">
      <text style="font-family:Verdana;font-size:15.0px;font-style:normal;font-weight:700;text-anchor:end;" transform="rotate(-0.000000, 72.251563, 146.510407)" x="72.2515625" y="146.5104073660715">1350</text>
     </g>
    </g>
    <g id="ytick_11">
     <g id="line2d_55">
      <path clip-path="url(#pdd4ef55287)" d="M 76.251563 116.738404 
L 546.615938 116.738404 
" style="fill:none;stroke:#000000;stroke-dasharray:1.000000,3.000000;stroke-dashoffset:0.0;stroke-width:0.5;"/>
     </g>
     <g id="line2d_56">
      <g>
       <use style="fill:none;stroke:#000000;stroke-width:0.5;" x="76.2515625" xlink:href="#m057ce6da24" y="116.73840401785719"/>
      </g>
     </g>
     <g id="line2d_57">
      <g>
       <use style="fill:none;stroke:#000000;stroke-width:0.5;" x="546.6159375000001" xlink:href="#m9e955d57d9" y="116.73840401785719"/>
      </g>
     </g>
     <g id="text_22">
      <text style="font-family:Verdana;font-size:15.0px;font-style:normal;font-weight:700;text-anchor:end;" transform="rotate(-0.000000, 72.251563, 120.927857)" x="72.2515625" y="120.92785714285719">1500</text>
     </g>
    </g>
    <g id="ytick_12">
     <g id="line2d_58">
      <path clip-path="url(#pdd4ef55287)" d="M 76.251563 91.155854 
L 546.615938 91.155854 
" style="fill:none;stroke:#000000;stroke-dasharray:1.000000,3.000000;stroke-dashoffset:0.0;stroke-width:0.5;"/>
     </g>
     <g id="line2d_59">
      <g>
       <use style="fill:none;stroke:#000000;stroke-width:0.5;" x="76.2515625" xlink:href="#m057ce6da24" y="91.1558537946429"/>
      </g>
     </g>
     <g id="line2d_60">
      <g>
       <use style="fill:none;stroke:#000000;stroke-width:0.5;" x="546.6159375000001" xlink:href="#m9e955d57d9" y="91.1558537946429"/>
      </g>
     </g>
     <g id="text_23">
      <text style="font-family:Verdana;font-size:15.0px;font-style:normal;font-weight:700;text-anchor:end;" transform="rotate(-0.000000, 72.251563, 95.345307)" x="72.2515625" y="95.3453069196429">1650</text>
     </g>
    </g>
    <g id="ytick_13">
     <g id="line2d_61">
      <path clip-path="url(#pdd4ef55287)" d="M 76.251563 65.573304 
L 546.615938 65.573304 
" style="fill:none;stroke:#000000;stroke-dasharray:1.000000,3.000000;stroke-dashoffset:0.0;stroke-width:0.5;"/>
     </g>
     <g id="line2d_62">
      <g>
       <use style="fill:none;stroke:#000000;stroke-width:0.5;" x="76.2515625" xlink:href="#m057ce6da24" y="65.57330357142865"/>
      </g>
     </g>
     <g id="line2d_63">
      <g>
       <use style="fill:none;stroke:#000000;stroke-width:0.5;" x="546.6159375000001" xlink:href="#m9e955d57d9" y="65.57330357142865"/>
      </g>
     </g>
     <g id="text_24">
      <text style="font-family:Verdana;font-size:15.0px;font-style:normal;font-weight:700;text-anchor:end;" transform="rotate(-0.000000, 72.251563, 69.762757)" x="72.2515625" y="69.76275669642865">1800</text>
     </g>
    </g>
    <g id="ytick_14">
     <g id="line2d_64">
      <path clip-path="url(#pdd4ef55287)" d="M 76.251563 39.990753 
L 546.615938 39.990753 
" style="fill:none;stroke:#000000;stroke-dasharray:1.000000,3.000000;stroke-dashoffset:0.0;stroke-width:0.5;"/>
     </g>
     <g id="line2d_65">
      <g>
       <use style="fill:none;stroke:#000000;stroke-width:0.5;" x="76.2515625" xlink:href="#m057ce6da24" y="39.990753348214355"/>
      </g>
     </g>
     <g id="line2d_66">
      <g>
       <use style="fill:none;stroke:#000000;stroke-width:0.5;" x="546.6159375000001" xlink:href="#m9e955d57d9" y="39.990753348214355"/>
      </g>
     </g>
     <g id="text_25">
      <text style="font-family:Verdana;font-size:15.0px;font-style:normal;font-weight:700;text-anchor:end;" transform="rotate(-0.000000, 72.251563, 44.180206)" x="72.2515625" y="44.180206473214355">1950</text>
     </g>
    </g>
    <g id="ytick_15">
     <g id="line2d_67">
      <path clip-path="url(#pdd4ef55287)" d="M 76.251563 14.408203 
L 546.615938 14.408203 
" style="fill:none;stroke:#000000;stroke-dasharray:1.000000,3.000000;stroke-dashoffset:0.0;stroke-width:0.5;"/>
     </g>
     <g id="line2d_68">
      <g>
       <use style="fill:none;stroke:#000000;stroke-width:0.5;" x="76.2515625" xlink:href="#m057ce6da24" y="14.408203125000057"/>
      </g>
     </g>
     <g id="line2d_69">
      <g>
       <use style="fill:none;stroke:#000000;stroke-width:0.5;" x="546.6159375000001" xlink:href="#m9e955d57d9" y="14.408203125000057"/>
      </g>
     </g>
     <g id="text_26">
      <text style="font-family:Verdana;font-size:15.0px;font-style:normal;font-weight:700;text-anchor:end;" transform="rotate(-0.000000, 72.251563, 18.597656)" x="72.2515625" y="18.597656250000057">2100</text>
     </g>
    </g>
    <g id="text_27">
     <text style="font-family:Verdana;font-size:18.0px;font-style:normal;font-weight:700;text-anchor:middle;" transform="rotate(-90.000000, 20.877188, 193.486055)" x="20.877187500000005" y="193.48605468750006">Throughput (Mbps)</text>
    </g>
   </g>
   <g id="patch_7">
    <path d="M 386.707342 91.155854 
Q 308.818006 91.155854 230.92867 91.155854 
" style="fill:none;stroke:#000000;stroke-linecap:round;"/>
    <path d="M 381.907342 88.755854 
L 386.707342 91.155854 
L 381.907342 93.555854 
" style="fill:none;stroke:#000000;stroke-linecap:round;"/>
    <path d="M 235.72867 93.555854 
L 230.92867 91.155854 
L 235.72867 88.755854 
" style="fill:none;stroke:#000000;stroke-linecap:round;"/>
   </g>
   <g id="text_28">
    <text style="font-family:Verdana;font-size:12.0px;font-style:normal;font-weight:700;text-anchor:start;" transform="rotate(-0.000000, 238.265958, 87.744847)" x="238.26595833333337" y="87.74484709821434">802.11ac contention</text>
   </g>
   <g id="legend_1">
    <g id="patch_8">
     <path d="M 405.866719 70.241016 
L 539.115938 70.241016 
L 539.115938 21.908203 
L 405.866719 21.908203 
z
" style="fill:#ffffff;stroke:#000000;stroke-linejoin:miter;"/>
    </g>
    <g id="line2d_70">
     <path d="M 411.866719 34.055859 
L 441.866719 34.055859 
" style="fill:none;stroke:#0000ff;stroke-linecap:square;stroke-width:1.5;"/>
    </g>
    <g id="line2d_71"/>
    <g id="text_29">
     <text style="font-family:Verdana;font-size:15.0px;font-style:normal;font-weight:700;text-anchor:start;" transform="rotate(-0.000000, 453.866719, 39.305859)" x="453.86671875000013" y="39.30585937500007">802.11ad</text>
    </g>
    <g id="line2d_72">
     <path d="M 411.866719 55.972266 
L 441.866719 55.972266 
" style="fill:none;stroke:#008000;stroke-dasharray:6.000000,6.000000;stroke-dashoffset:0.0;stroke-width:1.5;"/>
    </g>
    <g id="line2d_73"/>
    <g id="text_30">
     <text style="font-family:Verdana;font-size:15.0px;font-style:normal;font-weight:700;text-anchor:start;" transform="rotate(-0.000000, 453.866719, 61.222266)" x="453.86671875000013" y="61.22226562500009">802.11ac</text>
    </g>
   </g>
  </g>
 </g>
 <defs>
  <clipPath id="pdd4ef55287">
   <rect height="358.15570312499995" width="470.3643750000001" x="76.2515625" y="14.408203125000057"/>
  </clipPath>
 </defs>
</svg>
