<?xml version="1.0" encoding="utf-8" standalone="no"?>
<!DOCTYPE svg PUBLIC "-//W3C//DTD SVG 1.1//EN"
  "http://www.w3.org/Graphics/SVG/1.1/DTD/svg11.dtd">
<!-- Created with matplotlib (http://matplotlib.org/) -->
<svg height="338.4pt" version="1.1" viewBox="0 0 453.6 338.4" width="453.6pt" xmlns="http://www.w3.org/2000/svg" xmlns:xlink="http://www.w3.org/1999/xlink">
 <defs>
  <style type="text/css">
*{stroke-linecap:butt;stroke-linejoin:round;}
  </style>
 </defs>
 <g id="figure_1">
  <g id="patch_1">
   <path d="M 0 338.4 
L 453.6 338.4 
L 453.6 0 
L 0 0 
z
" style="fill:#ffffff;"/>
  </g>
  <g id="axes_1">
   <g id="patch_2">
    <path d="M 78.251563 288.483906 
L 442.9 288.483906 
L 442.9 10.7 
L 78.251563 10.7 
z
" style="fill:#ffffff;"/>
   </g>
   <g id="matplotlib.axis_1">
    <g id="xtick_1">
     <g id="line2d_1">
      <defs>
       <path d="M 0 0 
L 0 3.5 
" id="m6cbe884efc" style="stroke:#000000;stroke-width:0.8;"/>
      </defs>
      <g>
       <use style="fill-opacity:0;stroke:#000000;stroke-width:0.8;" x="78.251563" xlink:href="#m6cbe884efc" y="288.483906"/>
      </g>
     </g>
     <g id="text_1">
      <text style="font-family:Verdana;font-size:15px;font-style:normal;font-weight:bold;text-anchor:middle;" transform="rotate(-0, 78.251563, 306.881562)" x="78.251563" y="306.881562">0</text>
     </g>
    </g>
    <g id="xtick_2">
     <g id="line2d_2">
      <g>
       <use style="fill-opacity:0;stroke:#000000;stroke-width:0.8;" x="159.284549" xlink:href="#m6cbe884efc" y="288.483906"/>
      </g>
     </g>
     <g id="text_2">
      <text style="font-family:Verdana;font-size:15px;font-style:normal;font-weight:bold;text-anchor:middle;" transform="rotate(-0, 159.284549, 306.881562)" x="159.284549" y="306.881562">20</text>
     </g>
    </g>
    <g id="xtick_3">
     <g id="line2d_3">
      <g>
       <use style="fill-opacity:0;stroke:#000000;stroke-width:0.8;" x="240.317535" xlink:href="#m6cbe884efc" y="288.483906"/>
      </g>
     </g>
     <g id="text_3">
      <text style="font-family:Verdana;font-size:15px;font-style:normal;font-weight:bold;text-anchor:middle;" transform="rotate(-0, 240.317535, 306.881562)" x="240.317535" y="306.881562">40</text>
     </g>
    </g>
    <g id="xtick_4">
     <g id="line2d_4">
      <g>
       <use style="fill-opacity:0;stroke:#000000;stroke-width:0.8;" x="321.350521" xlink:href="#m6cbe884efc" y="288.483906"/>
      </g>
     </g>
     <g id="text_4">
      <text style="font-family:Verdana;font-size:15px;font-style:normal;font-weight:bold;text-anchor:middle;" transform="rotate(-0, 321.350521, 306.881562)" x="321.350521" y="306.881562">60</text>
     </g>
    </g>
    <g id="xtick_5">
     <g id="line2d_5">
      <g>
       <use style="fill-opacity:0;stroke:#000000;stroke-width:0.8;" x="402.383507" xlink:href="#m6cbe884efc" y="288.483906"/>
      </g>
     </g>
     <g id="text_5">
      <text style="font-family:Verdana;font-size:15px;font-style:normal;font-weight:bold;text-anchor:middle;" transform="rotate(-0, 402.383507, 306.881562)" x="402.383507" y="306.881562">80</text>
     </g>
    </g>
    <g id="text_6">
     <text style="font-family:Verdana;font-size:18px;font-style:normal;font-weight:bold;text-anchor:middle;" transform="rotate(-0, 260.575781, 327.5775)" x="260.575781" y="327.5775">Time (sec)</text>
    </g>
   </g>
   <g id="matplotlib.axis_2">
    <g id="ytick_1">
     <g id="line2d_6">
      <path clip-path="url(#p4096ba0460)" d="M 78.251563 288.483906 
L 442.9 288.483906 
" style="fill:none;stroke:#b0b0b0;stroke-linecap:square;stroke-width:0.8;"/>
     </g>
     <g id="line2d_7">
      <defs>
       <path d="M 0 0 
L -3.5 0 
" id="ma4ad05f8fe" style="stroke:#000000;stroke-width:0.8;"/>
      </defs>
      <g>
       <use style="fill-opacity:0;stroke:#000000;stroke-width:0.8;" x="78.251563" xlink:href="#ma4ad05f8fe" y="288.483906"/>
      </g>
     </g>
     <g id="text_7">
      <text style="font-family:Verdana;font-size:15px;font-style:normal;font-weight:bold;text-anchor:end;" transform="rotate(-0, 71.251563, 294.182734)" x="71.251563" y="294.182734">0</text>
     </g>
    </g>
    <g id="ytick_2">
     <g id="line2d_8">
      <path clip-path="url(#p4096ba0460)" d="M 78.251563 255.149837 
L 442.9 255.149837 
" style="fill:none;stroke:#b0b0b0;stroke-linecap:square;stroke-width:0.8;"/>
     </g>
     <g id="line2d_9">
      <g>
       <use style="fill-opacity:0;stroke:#000000;stroke-width:0.8;" x="78.251563" xlink:href="#ma4ad05f8fe" y="255.149837"/>
      </g>
     </g>
     <g id="text_8">
      <text style="font-family:Verdana;font-size:15px;font-style:normal;font-weight:bold;text-anchor:end;" transform="rotate(-0, 71.251563, 260.848666)" x="71.251563" y="260.848666">300</text>
     </g>
    </g>
    <g id="ytick_3">
     <g id="line2d_10">
      <path clip-path="url(#p4096ba0460)" d="M 78.251563 221.815769 
L 442.9 221.815769 
" style="fill:none;stroke:#b0b0b0;stroke-linecap:square;stroke-width:0.8;"/>
     </g>
     <g id="line2d_11">
      <g>
       <use style="fill-opacity:0;stroke:#000000;stroke-width:0.8;" x="78.251563" xlink:href="#ma4ad05f8fe" y="221.815769"/>
      </g>
     </g>
     <g id="text_9">
      <text style="font-family:Verdana;font-size:15px;font-style:normal;font-weight:bold;text-anchor:end;" transform="rotate(-0, 71.251563, 227.514597)" x="71.251563" y="227.514597">600</text>
     </g>
    </g>
    <g id="ytick_4">
     <g id="line2d_12">
      <path clip-path="url(#p4096ba0460)" d="M 78.251563 188.4817 
L 442.9 188.4817 
" style="fill:none;stroke:#b0b0b0;stroke-linecap:square;stroke-width:0.8;"/>
     </g>
     <g id="line2d_13">
      <g>
       <use style="fill-opacity:0;stroke:#000000;stroke-width:0.8;" x="78.251563" xlink:href="#ma4ad05f8fe" y="188.4817"/>
      </g>
     </g>
     <g id="text_10">
      <text style="font-family:Verdana;font-size:15px;font-style:normal;font-weight:bold;text-anchor:end;" transform="rotate(-0, 71.251563, 194.180528)" x="71.251563" y="194.180528">900</text>
     </g>
    </g>
    <g id="ytick_5">
     <g id="line2d_14">
      <path clip-path="url(#p4096ba0460)" d="M 78.251563 155.147631 
L 442.9 155.147631 
" style="fill:none;stroke:#b0b0b0;stroke-linecap:square;stroke-width:0.8;"/>
     </g>
     <g id="line2d_15">
      <g>
       <use style="fill-opacity:0;stroke:#000000;stroke-width:0.8;" x="78.251563" xlink:href="#ma4ad05f8fe" y="155.147631"/>
      </g>
     </g>
     <g id="text_11">
      <text style="font-family:Verdana;font-size:15px;font-style:normal;font-weight:bold;text-anchor:end;" transform="rotate(-0, 71.251563, 160.846459)" x="71.251563" y="160.846459">1200</text>
     </g>
    </g>
    <g id="ytick_6">
     <g id="line2d_16">
      <path clip-path="url(#p4096ba0460)" d="M 78.251563 121.813562 
L 442.9 121.813562 
" style="fill:none;stroke:#b0b0b0;stroke-linecap:square;stroke-width:0.8;"/>
     </g>
     <g id="line2d_17">
      <g>
       <use style="fill-opacity:0;stroke:#000000;stroke-width:0.8;" x="78.251563" xlink:href="#ma4ad05f8fe" y="121.813562"/>
      </g>
     </g>
     <g id="text_12">
      <text style="font-family:Verdana;font-size:15px;font-style:normal;font-weight:bold;text-anchor:end;" transform="rotate(-0, 71.251563, 127.512391)" x="71.251563" y="127.512391">1500</text>
     </g>
    </g>
    <g id="ytick_7">
     <g id="line2d_18">
      <path clip-path="url(#p4096ba0460)" d="M 78.251563 88.479494 
L 442.9 88.479494 
" style="fill:none;stroke:#b0b0b0;stroke-linecap:square;stroke-width:0.8;"/>
     </g>
     <g id="line2d_19">
      <g>
       <use style="fill-opacity:0;stroke:#000000;stroke-width:0.8;" x="78.251563" xlink:href="#ma4ad05f8fe" y="88.479494"/>
      </g>
     </g>
     <g id="text_13">
      <text style="font-family:Verdana;font-size:15px;font-style:normal;font-weight:bold;text-anchor:end;" transform="rotate(-0, 71.251563, 94.178322)" x="71.251563" y="94.178322">1800</text>
     </g>
    </g>
    <g id="ytick_8">
     <g id="line2d_20">
      <path clip-path="url(#p4096ba0460)" d="M 78.251563 55.145425 
L 442.9 55.145425 
" style="fill:none;stroke:#b0b0b0;stroke-linecap:square;stroke-width:0.8;"/>
     </g>
     <g id="line2d_21">
      <g>
       <use style="fill-opacity:0;stroke:#000000;stroke-width:0.8;" x="78.251563" xlink:href="#ma4ad05f8fe" y="55.145425"/>
      </g>
     </g>
     <g id="text_14">
      <text style="font-family:Verdana;font-size:15px;font-style:normal;font-weight:bold;text-anchor:end;" transform="rotate(-0, 71.251563, 60.844253)" x="71.251563" y="60.844253">2100</text>
     </g>
    </g>
    <g id="ytick_9">
     <g id="line2d_22">
      <path clip-path="url(#p4096ba0460)" d="M 78.251563 21.811356 
L 442.9 21.811356 
" style="fill:none;stroke:#b0b0b0;stroke-linecap:square;stroke-width:0.8;"/>
     </g>
     <g id="line2d_23">
      <g>
       <use style="fill-opacity:0;stroke:#000000;stroke-width:0.8;" x="78.251563" xlink:href="#ma4ad05f8fe" y="21.811356"/>
      </g>
     </g>
     <g id="text_15">
      <text style="font-family:Verdana;font-size:15px;font-style:normal;font-weight:bold;text-anchor:end;" transform="rotate(-0, 71.251563, 27.510184)" x="71.251563" y="27.510184">2400</text>
     </g>
    </g>
    <g id="text_16">
     <text style="font-family:Verdana;font-size:18px;font-style:normal;font-weight:bold;text-anchor:middle;" transform="rotate(-90, 20.877188, 149.591953)" x="20.877188" y="149.591953">Throughput (Mbps)</text>
    </g>
   </g>
   <g id="line2d_24">
    <path clip-path="url(#p4096ba0460)" d="M 78.251563 59.249942 
L 78.656727 51.113336 
L 79.061892 50.288251 
L 79.467057 47.838384 
L 79.872222 52.67465 
L 80.277387 54.92142 
L 80.682552 49.145826 
L 81.087717 40.387233 
L 81.492882 50.478655 
L 81.898047 51.430676 
L 82.303212 50.859464 
L 82.708377 50.859464 
L 83.113542 51.938421 
L 83.518707 44.068381 
L 83.923872 49.272762 
L 84.329036 58.158291 
L 85.139366 42.291275 
L 85.544531 46.505554 
L 86.354861 50.643672 
L 86.760026 59.199168 
L 87.165191 49.374311 
L 87.570356 44.258785 
L 87.975521 51.113336 
L 88.380686 46.035891 
L 88.785851 47.178316 
L 89.191016 48.805801 
L 89.596181 46.629788 
L 90.001345 47.432188 
L 90.40651 80.562519 
L 90.811675 51.30374 
L 91.622005 50.453268 
L 92.02717 50.288251 
L 92.432335 53.715527 
L 92.8375 52.931225 
L 93.242665 43.075576 
L 93.64783 50.161315 
L 94.052995 52.700038 
L 94.45816 46.695959 
L 94.863325 48.168418 
L 95.26849 45.147338 
L 95.673655 48.003401 
L 96.078819 52.001889 
L 96.483984 46.035891 
L 96.889149 46.543635 
L 97.294314 46.289763 
L 97.699479 49.082358 
L 98.104644 46.035891 
L 98.509809 50.034379 
L 98.914974 52.192293 
L 99.320139 48.384209 
L 99.725304 45.71855 
L 100.130469 49.145826 
L 100.535634 47.241784 
L 100.940799 56.190781 
L 101.345964 48.003401 
L 101.751128 49.717039 
L 102.156293 46.289763 
L 102.561458 49.717039 
L 102.966623 75.992818 
L 103.371788 53.715527 
L 103.776953 42.862487 
L 104.182118 43.4337 
L 104.587283 48.574613 
L 105.397613 52.001889 
L 105.802778 49.145826 
L 106.207943 55.429165 
L 106.613108 49.717039 
L 107.018273 53.080846 
L 107.423438 52.63657 
L 107.828602 51.430676 
L 108.233767 55.327616 
L 108.638932 55.530714 
L 109.044097 56.57159 
L 109.449262 50.227485 
L 109.854427 53.547808 
L 110.259592 52.382697 
L 110.664757 56.190781 
L 111.069922 52.230374 
L 111.475087 52.535021 
L 111.880252 58.323308 
L 112.285417 72.565543 
L 112.690582 54.18519 
L 113.500911 46.543635 
L 113.906076 46.289763 
L 114.311241 50.859464 
L 114.716406 47.774916 
L 115.121571 48.231886 
L 115.931901 42.504364 
L 116.337066 55.809973 
L 116.742231 46.480167 
L 117.147396 46.289763 
L 117.552561 53.715527 
L 118.362891 108.488469 
L 118.768056 84.220982 
L 119.17322 94.103902 
L 119.578385 100.55496 
L 119.98355 93.129196 
L 120.388715 100.55496 
L 120.79388 112.106148 
L 121.199045 110.138638 
L 121.60421 100.55496 
L 122.009375 111.408 
L 122.41454 85.44956 
L 122.819705 105.695874 
L 123.22487 95.645234 
L 123.630035 115.746513 
L 124.0352 90.463538 
L 124.84553 120.823958 
L 125.250694 109.503958 
L 125.655859 94.375873 
L 126.061024 108.171128 
L 126.466189 108.193813 
L 126.871354 110.646383 
L 127.276519 90.590474 
L 127.681684 90.463538 
L 128.086849 112.04268 
L 128.492014 85.703433 
L 128.897179 93.129196 
L 129.302344 90.273133 
L 129.707509 78.214201 
L 130.112674 77.135243 
L 130.517839 74.152244 
L 130.923003 72.733262 
L 131.328168 86.868543 
L 131.733333 86.845858 
L 132.138498 105.695874 
L 132.543663 86.274645 
L 132.948828 87.988283 
L 133.353993 87.41707 
L 133.759158 87.41707 
L 134.164323 84.561007 
L 134.569488 85.703433 
L 134.974653 85.703433 
L 135.379818 75.992818 
L 135.784983 79.991306 
L 136.190148 75.992818 
L 136.595313 78.277669 
L 137.000477 70.280692 
L 137.405642 76.564031 
L 138.215972 72.438607 
L 139.026302 66.282204 
L 139.431467 71.867394 
L 139.836632 73.263691 
L 140.241797 75.92935 
L 141.052127 69.229825 
L 141.457292 69.871794 
L 141.862457 72.31167 
L 142.267622 65.63483 
L 142.672786 70.928067 
L 143.077951 71.423117 
L 143.483116 75.421606 
L 143.888281 67.74197 
L 144.293446 104.236108 
L 144.698611 102.078194 
L 145.103776 79.216996 
L 145.508941 72.387832 
L 145.914106 75.992818 
L 146.319271 75.421606 
L 146.724436 75.992818 
L 147.534766 68.757459 
L 147.939931 74.850393 
L 148.345095 73.707968 
L 148.75026 73.136755 
L 149.155425 73.009819 
L 149.56059 73.263691 
L 149.965755 71.99433 
L 150.37092 73.101377 
L 150.776085 73.679878 
L 151.18125 74.913861 
L 151.586415 68.567054 
L 151.99158 74.596521 
L 152.80191 67.615033 
L 153.207075 73.771436 
L 153.61224 75.992818 
L 154.017405 75.421606 
L 154.422569 71.423117 
L 154.827734 76.564031 
L 155.638064 72.565543 
L 156.043229 74.850393 
L 156.448394 72.565543 
L 156.853559 69.138267 
L 157.258724 98.58745 
L 157.663889 75.675478 
L 158.069054 75.421606 
L 158.474219 76.564031 
L 158.879384 74.27918 
L 159.284549 69.138267 
L 159.689714 75.231201 
L 160.094878 75.040797 
L 160.500043 105.886278 
L 160.905208 82.656965 
L 161.310373 76.690967 
L 161.715538 87.861347 
L 162.120703 93.700409 
L 162.525868 90.209665 
L 162.931033 80.625987 
L 163.336198 83.291646 
L 163.741363 68.693991 
L 164.146528 74.27918 
L 164.551693 65.012843 
L 164.956858 68.693991 
L 165.362023 97.064216 
L 165.767188 113.185105 
L 166.172352 84.510233 
L 166.577517 68.617829 
L 166.982682 67.995842 
L 167.387847 68.148165 
L 167.793012 63.591158 
L 168.198177 63.553077 
L 168.603342 71.651602 
L 169.413672 61.027048 
L 169.818837 77.759933 
L 170.224002 85.281841 
L 170.629167 77.592214 
L 171.034332 81.578008 
L 171.439497 96.810344 
L 171.844661 102.179743 
L 172.249826 114.581403 
L 172.654991 106.571733 
L 173.060156 114.974905 
L 173.465321 117.995985 
L 173.870486 67.119983 
L 174.275651 78.49346 
L 174.680816 63.781562 
L 175.085981 69.70948 
L 175.491146 68.084697 
L 175.896311 67.615033 
L 176.301476 63.578464 
L 176.706641 69.11288 
L 177.111806 59.59267 
L 177.922135 96.632634 
L 178.3273 68.021229 
L 179.13763 142.507352 
L 179.542795 139.96863 
L 179.94796 156.470327 
L 180.353125 129.53448 
L 180.75829 137.683779 
L 181.163455 163.388346 
L 181.56862 137.112567 
L 181.973785 142.25348 
L 182.37895 119.684236 
L 182.784115 119.125717 
L 183.18928 137.963039 
L 183.594444 162.921385 
L 183.999609 115.59419 
L 184.809939 130.978849 
L 185.215104 129.813739 
L 185.620269 143.880965 
L 186.025434 113.20779 
L 186.430599 138.699268 
L 186.835764 117.224377 
L 187.240929 142.377714 
L 187.646094 148.879546 
L 188.051259 152.763792 
L 188.456424 132.355164 
L 188.861589 142.403101 
L 189.266753 138.699268 
L 189.671918 113.286654 
L 190.077083 148.983797 
L 190.482248 130.953462 
L 190.887413 129.686803 
L 191.292578 129.966062 
L 191.697743 147.584798 
L 192.102908 128.544378 
L 192.508073 133.139466 
L 192.913238 131.413134 
L 193.318403 96.048727 
L 193.723568 99.412535 
L 194.128733 95.033238 
L 194.533898 80.308647 
L 195.344227 104.299576 
L 195.749392 103.982236 
L 196.154557 99.983748 
L 196.559722 99.983748 
L 196.964887 97.67351 
L 197.370052 97.153072 
L 198.180382 97.127685 
L 198.585547 92.316805 
L 198.990712 84.802186 
L 199.395877 93.700409 
L 199.801042 88.432559 
L 200.206207 89.283031 
L 200.611372 115.761909 
L 201.016536 87.036262 
L 201.421701 84.561007 
L 201.826866 92.291418 
L 202.232031 84.827573 
L 202.637196 90.844346 
L 203.042361 94.842834 
L 203.447526 92.365695 
L 203.852691 93.321485 
L 204.257856 90.273133 
L 204.663021 88.648351 
L 205.068186 108.234596 
L 205.473351 85.931918 
L 205.878516 100.55496 
L 206.283681 96.239132 
L 206.688845 87.163198 
L 207.09401 88.686432 
L 207.499175 91.821754 
L 207.90434 90.311214 
L 208.309505 89.701921 
L 208.71467 86.300032 
L 209.119835 90.247746 
L 209.525 88.557611 
L 209.930165 93.702293 
L 210.33533 85.13222 
L 210.740495 89.130708 
L 211.14566 89.574985 
L 211.550825 90.400069 
L 211.95599 86.274645 
L 212.361155 90.273133 
L 212.766319 90.844346 
L 213.171484 83.989795 
L 213.576649 97.280008 
L 213.981814 88.978385 
L 214.386979 89.130708 
L 214.792144 87.988283 
L 215.197309 89.321112 
L 215.602474 86.655454 
L 216.007639 91.415559 
L 216.412804 85.13222 
L 216.817969 93.662328 
L 217.223134 115.761909 
L 217.628299 92.811856 
L 218.033464 153.677732 
L 218.438628 114.835275 
L 218.843793 91.415559 
L 219.248958 84.561007 
L 219.654123 92.557984 
L 220.059288 90.273133 
L 220.464453 89.701921 
L 220.869618 92.012158 
L 221.274783 93.675022 
L 221.679948 89.790776 
L 222.490278 93.129196 
L 222.895443 90.653942 
L 223.300608 91.605963 
L 223.705773 86.274645 
L 224.110938 90.844346 
L 224.516102 90.590474 
L 224.921267 94.271622 
L 225.326432 94.360477 
L 225.731597 93.865426 
L 226.136762 91.415559 
L 226.541927 92.557984 
L 226.947092 97.698897 
L 227.352257 89.06724 
L 227.757422 104.426512 
L 228.162587 96.873812 
L 228.567752 104.426512 
L 228.972917 122.261039 
L 229.378082 121.689826 
L 229.783247 94.208153 
L 230.188411 93.00226 
L 230.593576 95.540983 
L 230.998741 94.906302 
L 231.403906 98.841322 
L 231.809071 97.622735 
L 232.214236 92.634145 
L 233.024566 101.88779 
L 233.429731 91.529801 
L 233.834896 114.327531 
L 234.240061 94.779366 
L 234.645226 96.533787 
L 235.86072 86.119619 
L 236.265885 121.568295 
L 236.67105 137.325656 
L 237.076215 110.669068 
L 237.48138 119.658848 
L 237.886545 113.312042 
L 238.29171 118.211776 
L 238.696875 100.796139 
L 239.10204 115.955015 
L 239.91237 77.706456 
L 240.317535 77.071775 
L 240.7227 77.769924 
L 241.127865 77.135243 
L 241.53303 79.420094 
L 241.938194 79.991306 
L 242.343359 79.420094 
L 242.748524 77.960328 
L 243.153689 72.31167 
L 243.558854 80.562519 
L 243.964019 77.706456 
L 244.774349 82.847369 
L 245.179514 81.578008 
L 245.584679 81.324136 
L 245.989844 104.553448 
L 246.395009 77.706456 
L 246.800174 76.564031 
L 247.205339 96.93728 
L 247.610503 71.042309 
L 248.015668 75.421606 
L 248.420833 74.850393 
L 248.825998 77.706456 
L 249.231163 73.136755 
L 249.636328 75.421606 
L 250.041493 98.841322 
L 250.446658 80.562519 
L 250.851823 75.421606 
L 251.256988 74.025308 
L 251.662153 78.531541 
L 252.067318 85.703433 
L 252.472483 103.347555 
L 252.877648 79.483562 
L 253.282813 72.248202 
L 253.687977 76.310159 
L 254.093142 75.421606 
L 254.498307 75.992818 
L 254.903472 78.277669 
L 255.308637 77.706456 
L 255.713802 74.025308 
L 256.118967 75.675478 
L 256.524132 99.983748 
L 256.929297 75.992818 
L 257.334462 73.136755 
L 257.739627 79.293158 
L 258.144792 95.540983 
L 258.549957 124.165081 
L 258.955122 90.082729 
L 259.360286 81.704944 
L 259.765451 80.562519 
L 260.170616 70.851905 
L 260.575781 71.105777 
L 260.980946 59.998865 
L 261.386111 59.744993 
L 261.791276 47.432188 
L 262.196441 42.291275 
L 262.601606 59.173781 
L 263.006771 82.530029 
L 263.411936 85.13222 
L 263.817101 81.704944 
L 264.222266 58.85644 
L 264.627431 53.144314 
L 265.032595 53.144314 
L 265.43776 52.573102 
L 265.842925 50.288251 
L 266.24809 50.288251 
L 266.653255 46.860976 
L 267.05842 55.429165 
L 267.463585 44.576125 
L 267.86875 52.573102 
L 268.273915 54.578692 
L 268.67908 61.268227 
L 269.084245 76.716354 
L 269.48941 68.985944 
L 269.894575 85.284543 
L 270.29974 91.986771 
L 270.704905 85.436867 
L 271.110069 57.409368 
L 271.920399 54.667548 
L 272.325564 50.202098 
L 272.730729 49.739724 
L 273.135894 56.063845 
L 273.541059 51.240272 
L 273.946224 56.190781 
L 274.351389 48.003401 
L 274.756554 44.004913 
L 275.161719 66.0918 
L 275.566884 53.334718 
L 275.972049 77.706456 
L 276.377214 58.85644 
L 276.782378 81.704944 
L 277.187543 52.509634 
L 277.592708 43.91876 
L 277.997873 63.575762 
L 278.403038 49.717039 
L 278.808203 52.573102 
L 279.213368 56.254249 
L 279.618533 57.460143 
L 280.023698 101.697385 
L 280.428863 111.067974 
L 280.834028 100.323773 
L 281.239193 95.731387 
L 281.644358 89.298427 
L 282.049523 97.78505 
L 282.454687 90.758193 
L 282.859852 91.501712 
L 283.265017 93.129196 
L 283.670182 105.695874 
L 284.075347 79.420094 
L 284.480512 98.968258 
L 284.885677 91.732899 
L 285.290842 103.157151 
L 285.696007 81.51454 
L 286.101172 83.989795 
L 286.506337 84.411386 
L 286.911502 90.400069 
L 287.316667 89.153393 
L 287.721832 100.55496 
L 288.126997 94.271622 
L 288.532161 95.708702 
L 288.937326 105.401218 
L 289.342491 107.155639 
L 289.747656 106.965235 
L 290.557986 86.845858 
L 290.963151 105.695874 
L 291.368316 93.065728 
L 291.773481 86.655454 
L 292.178646 95.540983 
L 292.988976 85.639964 
L 293.394141 81.768412 
L 293.799306 70.661501 
L 294.20447 72.692479 
L 294.609635 62.347184 
L 295.0148 55.111824 
L 295.419965 74.977329 
L 295.82513 84.116731 
L 296.230295 76.056286 
L 296.63546 74.850393 
L 297.040625 70.851905 
L 297.44579 101.126173 
L 297.850955 67.995842 
L 298.25612 65.139779 
L 298.661285 71.867394 
L 299.06645 66.218736 
L 299.471615 62.47412 
L 299.87678 62.283716 
L 300.281944 58.285228 
L 300.687109 59.427653 
L 301.092274 61.712503 
L 301.497439 59.747695 
L 301.902604 78.528839 
L 302.712934 56.91702 
L 303.523264 105.695874 
L 303.928429 71.626215 
L 304.333594 102.72827 
L 304.738759 58.396768 
L 305.143924 77.998409 
L 305.549089 70.153756 
L 305.954253 81.539927 
L 306.359418 79.077366 
L 306.764583 79.143537 
L 307.169748 106.860984 
L 307.574913 81.578008 
L 307.980078 67.576953 
L 308.385243 81.616089 
L 308.790408 79.143537 
L 309.195573 75.12695 
L 309.600738 75.231201 
L 310.005903 68.846314 
L 310.411068 70.258007 
L 310.816233 68.922476 
L 311.221398 67.091893 
L 311.626562 72.819415 
L 312.031727 56.482735 
L 312.436892 71.527369 
L 312.842057 73.96184 
L 313.247222 67.615033 
L 313.652387 90.359286 
L 314.057552 66.449923 
L 314.462717 81.578008 
L 314.867882 67.615033 
L 315.273047 70.049505 
L 315.678212 80.308647 
L 316.083377 72.692479 
L 316.488542 91.732899 
L 316.893707 81.578008 
L 317.298872 67.615033 
L 317.704036 68.592442 
L 318.109201 64.060822 
L 318.514366 72.834811 
L 318.919531 71.725062 
L 319.324696 73.707968 
L 319.729861 77.135243 
L 320.135026 82.060365 
L 320.540191 101.890492 
L 320.945356 151.392882 
L 321.350521 114.578701 
L 321.755686 125.967574 
L 322.160851 115.955015 
L 322.566016 122.131401 
L 322.971181 109.503958 
L 323.376345 119.658848 
L 323.78151 119.658848 
L 324.186675 110.87757 
L 324.59184 88.924908 
L 324.997005 110.836787 
L 325.807335 86.274645 
L 326.2125 82.847369 
L 326.617665 78.214201 
L 327.02283 78.658477 
L 327.427995 95.667919 
L 327.83316 98.206642 
L 328.238325 90.907814 
L 328.64349 93.129196 
L 329.048655 113.69285 
L 329.453819 77.135243 
L 329.858984 84.53562 
L 330.264149 78.303056 
L 330.669314 78.277669 
L 331.074479 70.902679 
L 331.479644 83.367808 
L 331.884809 78.848881 
L 332.289974 71.753151 
L 332.695139 68.23702 
L 333.100304 75.891269 
L 333.505469 76.604814 
L 333.910634 70.696879 
L 334.315799 77.351035 
L 334.720964 95.972566 
L 335.126128 81.578008 
L 335.531293 93.268826 
L 335.936458 87.965598 
L 336.341623 78.871566 
L 336.746788 86.274645 
L 337.151953 73.136755 
L 337.557118 89.295725 
L 338.367448 77.769924 
L 338.772613 84.182901 
L 339.177778 67.320378 
L 339.582943 86.883939 
L 339.988108 89.194176 
L 340.393273 68.592442 
L 340.798437 80.562519 
L 341.203602 74.27918 
L 341.608767 100.339169 
L 342.013932 82.951621 
L 342.419097 74.961933 
L 342.824262 82.847369 
L 343.229427 69.049412 
L 344.039757 105.695874 
L 344.444922 67.615033 
L 344.850087 78.937737 
L 345.255252 66.853417 
L 345.660417 94.906302 
L 346.065582 77.998409 
L 346.470747 71.423117 
L 346.875911 75.066184 
L 347.281076 108.399613 
L 347.686241 80.308647 
L 348.091406 99.247518 
L 348.496571 97.698897 
L 348.901736 74.27918 
L 349.306901 74.231108 
L 349.712066 76.612103 
L 350.117231 90.844346 
L 350.522396 75.903963 
L 350.927561 75.231201 
L 351.332726 65.076311 
L 351.737891 84.116731 
L 352.143056 77.769924 
L 352.54822 95.312498 
L 352.953385 92.811856 
L 353.35855 73.215619 
L 353.763715 94.76397 
L 354.16888 79.712047 
L 354.574045 84.116731 
L 354.97921 75.231201 
L 355.384375 74.621908 
L 355.78954 77.112559 
L 356.194705 85.38339 
L 356.59987 82.847369 
L 357.005035 75.231201 
L 357.4102 98.803242 
L 357.815365 99.412535 
L 358.22053 94.753979 
L 358.625694 127.275016 
L 359.030859 93.344988 
L 359.841189 114.835275 
L 360.246354 115.406488 
L 360.651519 115.089147 
L 361.056684 128.544378 
L 361.461849 102.585938 
L 361.867014 98.650918 
L 362.272179 101.316577 
L 362.677344 101.126173 
L 363.082509 102.839811 
L 363.487674 118.262551 
L 363.892839 92.36758 
L 364.298003 89.194176 
L 364.703168 90.400069 
L 365.108333 86.845858 
L 365.513498 91.986771 
L 365.918663 86.78239 
L 366.323828 88.622964 
L 366.728993 89.130708 
L 367.134158 126.55148 
L 367.539323 95.439434 
L 367.944488 93.103809 
L 368.349653 120.255448 
L 368.754818 94.944383 
L 369.159983 91.31401 
L 369.565148 100.935769 
L 369.970312 117.881742 
L 370.375477 90.273133 
L 370.780642 91.161686 
L 371.185807 91.098218 
L 371.590972 89.701921 
L 371.996137 86.274645 
L 372.401302 84.561007 
L 372.806467 86.274645 
L 373.211632 90.844346 
L 373.616797 84.180199 
L 374.021962 86.757002 
L 374.427127 82.745821 
L 374.832292 95.985259 
L 376.047786 89.638453 
L 376.452951 90.336601 
L 376.858116 90.590474 
L 377.263281 92.240643 
L 377.668446 94.842834 
L 378.073611 92.557984 
L 378.478776 93.73849 
L 378.883941 90.806265 
L 379.289106 90.225061 
L 380.099436 87.036262 
L 380.504601 89.194176 
L 380.909766 89.448048 
L 381.314931 83.418582 
L 381.720095 90.844346 
L 382.12526 109.567426 
L 382.530425 91.542495 
L 382.93559 90.653942 
L 383.340755 91.732899 
L 383.74592 91.859835 
L 384.151085 85.703433 
L 384.55625 87.41707 
L 384.961415 90.273133 
L 385.36658 91.986771 
L 385.771745 90.273133 
L 386.17691 93.129196 
L 386.582075 88.559496 
L 386.98724 93.801958 
L 387.392405 86.553905 
L 387.797569 95.642532 
L 388.202734 87.823266 
L 388.607899 90.565086 
L 389.013064 88.394479 
L 389.418229 93.129196 
L 390.228559 83.951714 
L 390.633724 93.700409 
L 391.038889 99.412535 
L 391.444054 87.290134 
L 392.254384 90.400069 
L 392.659549 122.301822 
L 393.064714 110.554825 
L 393.469878 126.005655 
L 393.875043 95.464821 
L 394.280208 93.446537 
L 394.685373 95.604451 
L 395.090538 118.491036 
L 395.495703 86.655454 
L 395.900868 90.044648 
L 396.306033 86.274645 
L 396.711198 90.072738 
L 397.116363 84.761403 
L 397.521528 81.704944 
L 397.926693 82.847369 
L 398.331858 76.564031 
L 398.737023 82.441174 
L 399.142187 93.00226 
L 399.547352 100.516879 
L 399.952517 122.75609 
L 400.357682 91.999465 
L 400.762847 87.924815 
L 401.168012 81.260668 
L 401.573177 87.41707 
L 401.978342 83.989795 
L 402.383507 84.941816 
L 402.788672 85.322624 
L 403.193837 84.180199 
L 403.599002 86.084241 
L 404.004167 81.704944 
L 404.409332 88.369091 
L 404.814497 89.194176 
L 405.219661 88.686432 
L 405.624826 88.432559 
L 406.435156 86.845858 
L 406.840321 87.988283 
L 407.245486 87.41707 
L 407.650651 87.290134 
L 408.055816 82.847369 
L 408.460981 87.924815 
L 408.866146 87.607475 
L 409.271311 87.988283 
L 409.676476 91.986771 
L 410.081641 83.418582 
L 410.486806 86.845858 
L 410.89197 85.703433 
L 411.297135 89.130708 
L 411.7023 107.980724 
L 412.107465 89.130708 
L 412.51263 90.844346 
L 412.917795 86.845858 
L 413.32296 85.13222 
L 413.728125 89.130708 
L 414.13329 90.273133 
L 414.538455 88.432559 
L 414.94362 110.773319 
L 415.348785 87.924815 
L 415.75395 84.116731 
L 416.159115 78.975817 
L 416.56428 89.257644 
L 416.969444 88.432559 
L 417.374609 86.147709 
L 418.184939 89.130708 
L 418.590104 88.369091 
L 418.995269 89.194176 
L 419.400434 89.194176 
L 419.805599 86.338113 
L 420.210764 88.559496 
L 420.615929 86.274645 
L 421.021094 88.559496 
L 421.831424 87.290134 
L 422.236589 80.308647 
L 422.641753 82.656965 
L 423.046918 89.38458 
L 423.452083 91.161686 
L 424.262413 98.58745 
L 424.667578 88.813368 
L 425.072743 86.845858 
L 425.477908 77.706456 
L 425.883073 74.27918 
L 426.288238 71.99433 
L 426.693403 62.283716 
L 427.098568 73.136755 
L 427.503733 73.136755 
L 427.908898 48.003401 
L 428.314062 73.136755 
L 428.719227 75.992818 
L 429.124392 77.706456 
L 429.529557 76.564031 
L 429.934722 84.561007 
L 430.339887 79.420094 
L 430.745052 82.276157 
L 431.150217 74.27918 
L 431.555382 100.55496 
L 431.960547 53.715527 
L 432.365712 58.85644 
L 432.770877 61.141291 
L 433.176042 50.288251 
L 433.581207 53.652059 
L 433.986372 52.63657 
L 434.796701 47.305252 
L 435.201866 46.543635 
L 435.607031 41.720062 
L 436.012196 48.983511 
L 436.417361 47.594503 
L 436.822526 51.989195 
L 437.227691 77.465277 
L 437.632856 47.114848 
L 438.038021 46.226295 
L 438.443186 44.639593 
L 438.848351 47.980716 
L 439.253516 46.756724 
L 439.658681 81.578008 
L 440.063845 48.257273 
L 440.46901 54.286739 
L 440.874175 42.215113 
L 441.27934 65.787153 
L 441.684505 65.139779 
L 442.08967 47.432188 
L 442.494835 43.4337 
L 442.494835 43.4337 
" style="fill:none;stroke:#000000;stroke-linecap:square;stroke-width:1.5;"/>
   </g>
   <g id="line2d_25">
    <path clip-path="url(#p4096ba0460)" d="M 118.768056 288.483906 
L 118.768056 10.7 
" style="fill:none;stroke:#000000;stroke-linecap:square;stroke-width:1.5;"/>
   </g>
   <g id="line2d_26">
    <path clip-path="url(#p4096ba0460)" d="M 179.542795 288.483906 
L 179.542795 10.7 
" style="fill:none;stroke:#000000;stroke-linecap:square;stroke-width:1.5;"/>
   </g>
   <g id="line2d_27">
    <path clip-path="url(#p4096ba0460)" d="M 240.317535 288.483906 
L 240.317535 10.7 
" style="fill:none;stroke:#000000;stroke-linecap:square;stroke-width:1.5;"/>
   </g>
   <g id="line2d_28">
    <path clip-path="url(#p4096ba0460)" d="M 280.834028 288.483906 
L 280.834028 10.7 
" style="fill:none;stroke:#000000;stroke-linecap:square;stroke-width:1.5;"/>
   </g>
   <g id="line2d_29">
    <path clip-path="url(#p4096ba0460)" d="M 321.350521 288.483906 
L 321.350521 10.7 
" style="fill:none;stroke:#000000;stroke-linecap:square;stroke-width:1.5;"/>
   </g>
   <g id="line2d_30">
    <path clip-path="url(#p4096ba0460)" d="M 361.867014 288.483906 
L 361.867014 10.7 
" style="fill:none;stroke:#000000;stroke-linecap:square;stroke-width:1.5;"/>
   </g>
   <g id="line2d_31">
    <path clip-path="url(#p4096ba0460)" d="M 402.383507 288.483906 
L 402.383507 10.7 
" style="fill:none;stroke:#000000;stroke-linecap:square;stroke-width:1.5;"/>
   </g>
   <g id="patch_3">
    <path d="M 78.251563 288.483906 
L 78.251563 10.7 
" style="fill:none;stroke:#000000;stroke-linecap:square;stroke-linejoin:miter;stroke-width:0.8;"/>
   </g>
   <g id="patch_4">
    <path d="M 442.9 288.483906 
L 442.9 10.7 
" style="fill:none;stroke:#000000;stroke-linecap:square;stroke-linejoin:miter;stroke-width:0.8;"/>
   </g>
   <g id="patch_5">
    <path d="M 78.251563 288.483906 
L 442.9 288.483906 
" style="fill:none;stroke:#000000;stroke-linecap:square;stroke-linejoin:miter;stroke-width:0.8;"/>
   </g>
   <g id="patch_6">
    <path d="M 78.251563 10.7 
L 442.9 10.7 
" style="fill:none;stroke:#000000;stroke-linecap:square;stroke-linejoin:miter;stroke-width:0.8;"/>
   </g>
  </g>
 </g>
 <defs>
  <clipPath id="p4096ba0460">
   <rect height="277.783906" width="364.648438" x="78.251563" y="10.7"/>
  </clipPath>
 </defs>
</svg>
